<svg width="444" height="441" viewBox="0 0 444 441" fill="none" xmlns="http://www.w3.org/2000/svg">
<path d="M216.973 127.772C220.332 127.772 223.055 125.786 223.055 123.337C223.055 120.888 220.332 118.902 216.973 118.902C213.614 118.902 210.891 120.888 210.891 123.337C210.891 125.786 213.614 127.772 216.973 127.772Z" fill="#F19C94"/>
<path d="M272.325 134.006C275.684 134.006 278.407 132.021 278.407 129.572C278.407 127.122 275.684 125.137 272.325 125.137C268.965 125.137 266.242 127.122 266.242 129.572C266.242 132.021 268.965 134.006 272.325 134.006Z" fill="#F19C94"/>
<path d="M140.327 430.697L76.4542 428.788L49.2961 424.436L29.8817 418.518L15.1356 408.495L5.18129 392.788L1.11719 372.509L3.12178 348.001L8.90215 321.708L21.2592 286.05L34.7422 255.817L52.8522 229.51L70.7287 212.842L88.6191 201.404L112.825 190.956L137.814 183.061L160.867 178.544L166.153 177.871L171.535 188.828L178.345 196.695L184.757 201.459L194.245 205.935L206.547 208.778L219.975 207.418L228.542 202.269L233.719 196.256L238.428 186.384L245.966 189.459L267.261 196.997L277.586 202.269L290.987 211.016L298.909 217.414L307.847 226.009L319.285 240.741L331.518 261.625L339.633 280.407L344.315 295.016H306.598L270.474 294.7L243.467 295.016L238.428 297.488L234.034 304.284L212.629 371.946L198.556 372.687L184.496 377.479L174.583 385.154L169.86 397.827L169.228 409.868L170.437 417.763H149.787L145.503 419.672L142.235 425.274L140.327 430.697Z" fill="#FF7A00"/>
<path d="M204.305 439.169L241.705 309.241C241.884 308.418 242.461 306.399 244.259 304.601C246.099 302.775 248.145 302.225 248.969 302.047H442.33L438.993 316.683L401.675 439.183H204.305V439.169Z" fill="#A0A0A0"/>
<path d="M150.707 83.1764C150.845 83.3549 150.639 83.0803 150.598 83.0391C150.515 82.9293 150.433 82.8332 150.364 82.7233C150.158 82.4487 149.966 82.1604 149.774 81.8858C149.321 81.2267 148.909 80.5402 148.511 79.84C147.508 78.0551 146.698 76.1878 146.108 74.2381C144.653 69.4326 144.543 64.2975 145.792 59.4371C147.042 54.5766 147.879 53.6293 149.513 50.9656C152.081 46.7917 155.046 42.9335 158.479 39.4461C162.213 35.6703 166.415 32.3751 170.987 29.6565C171.879 29.1348 172.772 28.6268 173.692 28.1462C174.612 27.6657 174.406 27.5695 174.557 27.0615C174.708 26.5535 174.941 25.8807 175.175 25.3041C175.408 24.7274 175.326 24.9196 175.408 24.7137C175.49 24.5077 175.49 24.5077 175.532 24.3979C175.573 24.2881 175.573 24.2881 175.6 24.2331C175.641 24.1233 175.545 24.3704 175.614 24.1919C175.834 23.6702 176.067 23.1622 176.314 22.6542C176.891 21.4459 177.522 20.2789 178.209 19.1255C179.925 16.2559 181.998 13.606 184.415 11.2994C191.101 4.8737 200.273 1.56475 209.527 2.10022C213.44 2.33363 217.312 3.22609 220.964 4.65402C221.98 5.05219 222.969 5.49155 223.985 6.0133C225.001 6.53504 224.809 6.53504 225.248 6.54877C226.223 6.58996 227.225 6.43893 228.214 6.41147C238.292 6.20552 248.397 8.53964 257.335 13.2079C257.83 13.4687 258.269 13.7983 258.846 13.7021C259.422 13.606 259.67 13.5099 260.095 13.4275C260.974 13.2491 261.866 13.0843 262.759 12.9607C264.942 12.6449 267.152 12.5351 269.363 12.59C274.855 12.741 280.265 14.169 285.056 16.8601C288.667 18.8921 291.77 21.5558 294.722 24.4253C296.452 26.1004 298.073 27.8853 299.487 29.8487C300.901 31.8121 301.533 32.8968 302.576 34.4071C306.901 40.6269 313.176 44.8283 320.302 47.2585C322.759 48.096 325.272 48.7139 327.826 49.1944L327.208 47.6841C324.544 51.5285 321.386 55.0434 317.844 58.0778C315.057 60.4668 312.187 62.7735 309.029 64.6682C305.871 66.563 300.874 68.6774 296.384 69.2541C291.894 69.8308 286.594 69.2541 281.981 67.6339C278.507 66.3982 275.253 64.5996 272.287 62.4165C271.999 62.2106 271.532 62.238 271.244 62.4165C263.486 67.0024 254.713 69.7484 245.706 70.2564C237.825 70.6958 229.93 69.4738 222.461 66.9749C214.992 64.476 217.271 65.0527 214.758 63.8582C212.246 62.6637 213.454 63.8033 213.248 64.476C210.584 72.9887 205.477 80.5814 198.653 86.3206L200.369 86.7737C196.36 77.1764 187.696 69.8445 177.261 68.4578C172.332 67.7987 167.321 68.5676 162.804 70.6546C158.287 72.7415 155.952 74.8285 153.275 77.7668C151.71 79.483 150.213 81.364 149.101 83.4098C147.989 85.4556 150.241 85.6204 150.886 84.4533C151.737 82.9018 152.781 81.5151 153.838 80.2519C156.131 77.5333 158.836 75.1718 161.939 73.4143C170.191 68.7461 180.351 69.5287 188.149 74.7599C195.948 79.991 196.291 82.2702 198.392 87.3229C198.694 88.0643 199.477 88.3115 200.108 87.776C207.207 81.8171 212.465 73.8674 215.239 65.0252L213.729 65.6431C219.248 68.2793 225.111 70.2427 231.125 71.3411C240.296 73.0299 249.798 72.7141 258.763 70.0916C263.5 68.7049 268.059 66.7003 272.301 64.2014H271.258C277.958 69.1443 286.278 72.0825 294.654 71.4921C299.555 71.1489 304.279 69.6523 308.576 67.3044C312.874 64.9566 315.139 63.0206 318.132 60.508C321.125 57.9954 325.917 53.1487 328.979 48.7139C332.041 44.2791 328.979 47.3134 328.361 47.2036C322.718 46.1601 317.185 44.3477 312.366 41.1761C308.837 38.8557 305.981 35.8351 303.647 32.3339C302.274 30.2744 300.915 28.2286 299.322 26.3338C297.729 24.4391 295.67 22.4208 293.679 20.6358C288.983 16.4207 283.519 13.1529 277.368 11.6152C271.12 10.0637 264.544 10.2559 258.296 11.725L259.093 11.8349C250.8 7.37258 241.546 4.81878 232.127 4.40688C229.834 4.31076 227.541 4.33823 225.248 4.50299L225.77 4.64029C217.161 -0.0965926 206.493 -1.34603 197.088 1.53729C187.628 4.43434 179.994 11.2857 175.367 19.9631C174.2 22.1462 173.17 24.4528 172.47 26.8418L172.937 26.224C163.271 31.2904 154.964 38.8145 148.978 47.945C147.096 50.8009 145.435 53.7391 144.35 57.0069C142.675 62.087 142.401 67.5928 143.582 72.8102C144.762 78.0276 146.534 81.1718 149.238 84.6593C151.943 88.1467 150.337 85.0163 150.694 84.6593C151.051 84.3023 151.037 83.6432 150.694 83.2039L150.707 83.1764Z" fill="#231F20"/>
<path d="M174.265 69.228C174.306 65.1639 174.746 61.1136 175.556 57.1318C176.915 50.4041 179.291 43.896 182.668 37.9234C186.046 31.9508 191.771 24.8387 197.922 19.7997C204.073 14.7608 208.083 12.6875 213.753 10.2573C217.295 8.74699 220.989 7.53874 224.737 6.68748C224.998 6.63256 225.259 6.5639 225.52 6.50898C226.81 6.23438 226.261 4.24352 224.971 4.51812C221.414 5.287 217.927 6.35795 214.549 7.7035C208.838 9.98269 203.442 12.9759 198.54 16.6967C192.156 21.5434 186.664 27.516 182.407 34.3124C178.549 40.4772 175.721 47.3011 174.046 54.3858C172.371 61.4705 172.329 63.585 172.22 68.2532C172.11 72.9214 172.22 68.8985 172.206 69.228C172.206 70.5599 174.252 70.5599 174.265 69.228ZM188.531 73.4157C189.135 69.5026 190.096 65.6445 191.346 61.8962C193.515 55.4156 196.577 49.2508 200.462 43.6351C205.611 36.1934 212.256 29.7952 219.877 24.9073C226.797 20.4588 234.485 17.3008 242.504 15.4885C247.433 14.3763 252.486 13.7585 257.552 13.731H258.568C259.9 13.731 259.9 11.6852 258.568 11.6715C253.831 11.6303 249.094 12.1109 244.44 12.9896C236.49 14.4999 228.774 17.3283 221.758 21.3649C213.616 26.0469 206.462 32.349 200.737 39.8044C196.247 45.6397 192.719 52.1753 190.165 59.0815C188.613 63.2829 187.419 67.6216 186.677 72.029C186.636 72.3036 186.581 72.5919 186.54 72.8802C186.458 73.4294 186.677 73.9786 187.254 74.1434C187.831 74.3082 188.435 73.9786 188.517 73.4294L188.531 73.4157ZM272.477 64.0106C275.442 61.4019 278.532 58.7382 281.03 55.6764C283.529 52.6146 282.321 54.1661 282.362 53.2188C282.403 52.2714 280.358 51.9007 280.303 53.2188C280.303 53.3698 280.344 52.9441 280.317 53.1089C280.289 53.2737 280.22 53.3149 280.303 53.1776C280.385 53.0403 280.165 53.411 280.124 53.4934C279.863 53.9053 279.795 53.9739 279.52 54.3172C278.792 55.1959 277.996 56.0197 277.2 56.816C275.58 58.4362 273.905 60.0014 272.202 61.5255C270.499 63.0495 271.433 62.2257 271.035 62.5689C270.033 63.4477 271.502 64.8893 272.49 64.0243L272.477 64.0106ZM149.084 83.3838C145.487 89.1504 143.565 96.1802 143.867 102.977C144.155 109.498 146.517 116.103 150.499 121.293C153.135 124.739 156.526 127.567 160.48 129.393C165.396 131.659 170.833 132.359 176.174 131.618C180.609 131 184.934 129.366 188.545 126.702C192.156 124.039 194.545 121.141 196.59 117.599C201.272 109.485 202.453 99.7363 201.08 90.5646C199.707 81.3929 200.641 88.0108 200.352 86.7476C200.064 85.4845 198.073 86.0062 198.362 87.2968C200.38 96.0017 200.023 105.503 196.275 113.7C192.526 121.897 192.375 120.606 189.465 123.283C186.526 125.988 182.984 127.869 179.139 128.899C174.389 130.176 169.295 130.176 164.572 128.748C160.357 127.471 156.567 125.041 153.588 121.787C150.608 118.533 147.176 111.901 146.242 106.135C145.089 98.9949 146.778 91.4296 150.375 85.1961C153.972 78.9627 150.691 84.6607 150.855 84.3998C151.556 83.2739 149.771 82.2304 149.071 83.3563L149.084 83.3838Z" fill="#231F20"/>
<path d="M175.896 69.3086C176.816 70.0912 191.273 82.9563 188.321 102.604C185.438 121.785 168.578 129.899 167.328 130.476L180.893 129.46L188.72 125.272L194.816 118.517L199.237 108.398L200.596 97.0846L197.452 83.2172L191.067 75.6794L185.122 71.8487L179.026 69.7754L175.896 69.3223V69.3086Z" fill="#231F20" stroke="#231F20" stroke-width="0.230215" stroke-miterlimit="10"/>
<path d="M166.149 114.987C171.775 114.987 176.336 108.226 176.336 99.8843C176.336 91.5431 171.775 84.7812 166.149 84.7812C160.522 84.7812 155.961 91.5431 155.961 99.8843C155.961 108.226 160.522 114.987 166.149 114.987Z" fill="#231F20" stroke="#231F20" stroke-width="0.230215" stroke-miterlimit="10"/>
<path d="M265.574 92.5967C268.978 89.5335 273.832 88.4353 278.083 90.2822C280.839 91.4771 282.976 93.8421 284.133 96.6055V96.6074C284.317 97.0348 284.022 97.5628 283.493 97.7139C282.994 97.8565 282.574 97.5429 282.367 97.0645L282.361 97.0664C282.34 97.0175 282.317 96.9662 282.298 96.9248C282.262 96.8474 282.254 96.8248 282.23 96.7773C282.205 96.7271 282.156 96.635 282.02 96.3828C281.953 96.2597 281.919 96.1839 281.892 96.1201C281.863 96.0552 281.839 95.9967 281.794 95.916C281.705 95.7585 281.535 95.5154 281.076 94.9131C280.853 94.6197 280.743 94.401 280.647 94.209C280.551 94.0156 280.466 93.8385 280.293 93.6484C279.954 93.2749 279.285 92.858 277.532 92.0361C274.003 90.3818 269.814 91.3252 266.972 93.8232L266.957 93.8086L266.876 93.8799C266.438 94.2694 265.896 94.1512 265.564 93.8213C265.399 93.6568 265.294 93.446 265.283 93.2324C265.272 93.0225 265.351 92.798 265.574 92.5967ZM231.648 84.6621C235.334 84.363 239.024 85.7914 241.721 88.2979C241.94 88.5021 242.017 88.7298 242.005 88.9434C241.992 89.1604 241.887 89.3738 241.722 89.5391C241.391 89.8701 240.854 89.9853 240.423 89.585C239.261 88.5 237.707 87.6757 236.126 87.1484C234.545 86.6214 232.926 86.3877 231.63 86.4922C229.209 86.6874 226.78 87.8083 225.035 89.2842L224.696 89.584C224.473 89.7887 224.14 89.9323 223.795 89.998C223.449 90.0639 223.11 90.0481 222.875 89.9521C222.759 89.9046 222.673 89.8398 222.622 89.7627C222.572 89.6875 222.548 89.5907 222.567 89.4639C222.607 89.2007 222.834 88.8158 223.396 88.2979C225.646 86.2259 227.957 84.9618 231.648 84.6621Z" fill="#231F20" stroke="#231F20" stroke-width="0.230215"/>
<path d="M289.954 70.4768C289.487 77.7126 288.897 84.9484 288.21 92.1704C287.537 99.1727 286.892 106.203 285.999 113.191C285.231 119.205 284.091 125.178 282.855 131.109C281.441 137.878 279.711 144.661 276.718 150.921C273.725 157.182 270.924 160.711 266.928 164.83C262.933 168.949 259.363 171.64 254.887 174.043C248.818 177.297 241.981 178.986 235.088 178.766C229.033 178.56 223.074 176.885 217.637 174.249C212.2 171.613 208.836 169.182 204.964 165.901C202.644 163.938 200.434 161.823 198.429 159.53C198.264 159.338 198.099 159.146 197.935 158.94C197.083 157.924 195.642 159.379 196.479 160.395C197.99 162.221 199.678 163.896 201.422 165.503C205.019 168.812 208.96 171.777 213.203 174.221C217.445 176.665 224.159 179.453 230.145 180.359C236.132 181.265 244.315 180.675 250.919 178.121C256.507 175.965 261.56 172.656 265.981 168.633C270.402 164.61 273.121 161.274 275.798 156.935C279.478 150.976 281.826 144.304 283.514 137.521C285.162 130.917 286.439 124.162 287.469 117.434C288.402 111.338 288.979 105.2 289.597 99.0629C290.407 91.0033 291.148 82.9438 291.725 74.8568C292.302 66.7697 291.931 71.9322 292.027 70.4768C292.109 69.1588 290.05 69.1588 289.967 70.4768H289.954Z" fill="#231F20"/>
<path d="M235.09 105.646C235.717 102.771 234.465 100.057 232.294 99.5837C230.123 99.1104 227.855 101.057 227.229 103.932C226.602 106.806 227.854 109.52 230.024 109.994C232.195 110.467 234.463 108.52 235.09 105.646Z" fill="#231F20" stroke="#231F20" stroke-width="0.230215" stroke-miterlimit="10"/>
<path d="M275.738 110.915C276.365 108.041 275.113 105.327 272.943 104.853C270.772 104.38 268.504 106.327 267.877 109.201C267.25 112.076 268.502 114.79 270.673 115.263C272.844 115.737 275.111 113.79 275.738 110.915Z" fill="#231F20" stroke="#231F20" stroke-width="0.230215" stroke-miterlimit="10"/>
<path d="M232.319 138.881C232.801 138.743 233.216 139.032 233.418 139.477C233.418 139.482 233.419 139.486 233.419 139.488C233.419 139.491 233.42 139.496 233.421 139.498C233.422 139.501 233.423 139.503 233.423 139.504C233.424 139.506 233.424 139.508 233.424 139.509L233.425 139.51C233.425 139.511 233.426 139.513 233.427 139.514C233.389 139.463 233.355 139.417 233.326 139.379C233.297 139.34 233.272 139.308 233.256 139.288C233.25 139.281 233.239 139.267 233.228 139.257C233.227 139.256 233.212 139.242 233.19 139.234C233.181 139.231 233.145 139.219 233.104 139.237C233.053 139.26 233.039 139.305 233.036 139.326C233.033 139.346 233.036 139.362 233.037 139.367C233.039 139.374 233.041 139.38 233.042 139.383C233.044 139.389 233.046 139.394 233.048 139.397C233.057 139.416 233.077 139.449 233.104 139.491C233.134 139.537 233.177 139.602 233.235 139.689C233.468 140.038 233.95 140.747 234.828 142.034C238.374 147.229 245.16 149.208 251.015 147.021C251.296 146.915 251.526 146.952 251.699 147.061C251.877 147.172 252.008 147.365 252.069 147.593C252.194 148.05 252.031 148.594 251.483 148.795C251.403 148.824 251.34 148.852 251.294 148.88C251.253 148.904 251.202 148.941 251.181 148.998C251.168 149.032 251.167 149.069 251.181 149.104C251.193 149.137 251.214 149.159 251.231 149.174C251.253 149.192 251.28 149.204 251.305 149.215C251.225 149.227 251.131 149.244 251.021 149.259C250.433 149.34 249.403 149.461 247.666 149.653C240.83 150.41 234.381 146.41 231.734 140.148H231.747L231.68 139.989C231.494 139.548 231.791 139.032 232.319 138.881ZM255.731 103.369C255.824 103.365 255.92 103.393 256.017 103.467C256.216 103.62 256.42 103.978 256.56 104.66C257.123 107.421 257.836 110.608 258.372 112.888C258.908 115.168 259.442 117.401 259.784 119.716V119.717C259.99 121.088 260.183 122.45 260.444 123.812V123.813C260.665 124.93 260.952 126.056 260.932 127.184L260.923 127.409C260.889 128.03 260.696 128.702 260.427 129.301C260.158 129.9 259.818 130.415 259.502 130.725C258.84 131.373 258.237 132.068 256.871 132.147C256.171 132.188 255.457 132.157 254.735 132.109C254.017 132.062 253.287 131.996 252.571 131.969C251.144 131.914 249.578 131.845 248.26 131.79C247.672 131.765 247.328 131.292 247.305 130.823C247.293 130.59 247.362 130.369 247.511 130.21C247.658 130.053 247.896 129.945 248.25 129.961C249.012 129.995 249.779 130.026 250.544 130.057C251.309 130.088 252.074 130.118 252.835 130.152V130.153C253.549 130.195 254.388 130.235 254.994 130.249C255.138 130.252 255.277 130.27 255.42 130.291C255.561 130.312 255.71 130.336 255.864 130.352C256.178 130.384 256.524 130.38 256.954 130.244C257.805 129.975 258.537 129.444 258.922 128.389C259.306 127.337 259.063 126.163 258.858 125.142V125.141L258.683 124.234C258.516 123.326 258.373 122.41 258.232 121.492C258.092 120.575 257.955 119.655 257.799 118.739L257.637 117.824C257.279 115.886 256.741 113.968 256.304 112.067V112.066L255.909 110.355C255.523 108.642 255.158 106.921 254.808 105.191L254.805 105.176L254.798 105.162L254.791 105.149C254.736 104.854 254.788 104.513 254.91 104.205C255.035 103.891 255.228 103.625 255.434 103.482C255.536 103.412 255.637 103.374 255.731 103.369Z" fill="#231F20" stroke="#231F20" stroke-width="0.230215"/>
<path d="M187.525 127.371C189.282 131.215 193.223 138.479 201.104 144.795C209.04 151.152 217.031 153.39 221.164 154.268C221.548 153.637 222.221 152.772 223.319 152.236C224.624 151.591 225.859 151.756 228.193 152.113C231.475 152.607 233.493 152.923 234.468 153.074C234.743 153.129 236.308 153.472 237.228 154.996C237.983 156.232 237.832 157.481 237.763 157.866C237.571 158.991 236.981 159.705 236.624 160.117C235.855 161.037 234.962 161.504 234.468 161.71C233.397 161.861 232.23 161.957 230.967 161.971C228.839 161.985 225.969 161.779 222.962 160.872C222.962 160.872 220.559 160.996 220.807 158.113C220.765 157.481 220.738 156.863 220.697 156.232C219.928 156.067 219.173 155.888 218.404 155.724C215.905 155.133 212.596 154.145 208.93 152.401C199.978 148.172 194.829 142.378 193.827 141.211C190.793 137.71 188.623 133.948 187.841 132.575C186.907 130.941 186.179 129.513 185.685 128.456C185.108 127.783 184.532 127.124 183.969 126.465C185.15 126.767 186.344 127.083 187.525 127.385V127.371Z" fill="#231F20" stroke="#231F20" stroke-width="0.230215" stroke-miterlimit="10"/>
<path d="M238.44 179.794C238.536 182.32 238.042 184.819 236.93 187.098C235.818 189.378 236.847 188.471 237.548 188.609C246.513 190.339 255.314 192.989 263.731 196.559C274.386 201.076 284.463 207.048 293.539 214.257C300.514 219.804 307.146 226.037 312.555 233.135C319.283 241.978 325.214 251.438 330.24 261.351C335.224 271.195 339.301 281.493 342.418 292.092C342.734 293.15 343.036 294.221 343.324 295.292L344.313 293.987C328.674 293.932 313.022 293.891 297.383 293.836C281.745 293.781 266.093 293.74 250.454 293.685C247.777 293.685 245.072 293.424 242.477 294.234C239.882 295.044 236.916 297.008 235.131 299.548C233.346 302.088 233.415 302.857 232.88 304.656C232.028 307.553 231.163 310.45 230.312 313.36C228.706 318.811 227.085 324.262 225.479 329.713C223.419 336.674 221.36 343.635 219.3 350.61C217.241 357.585 214.893 365.521 212.683 372.99C210.65 379.841 208.632 386.679 206.6 393.53C205.035 398.803 203.483 404.075 201.918 409.347C201.149 411.956 200.38 414.551 199.611 417.16C199.584 417.27 199.543 417.393 199.515 417.503L200.504 416.748H154.426C152.778 416.748 151.158 416.679 149.538 416.981C148.082 417.256 146.627 417.736 145.378 418.519C143.51 419.672 142.371 421.389 141.712 423.462C141.053 425.535 140.696 427.732 140.682 429.915L141.712 428.885C133.199 428.968 124.686 428.899 116.174 428.679C107.181 428.446 98.1873 428.048 89.2078 427.471C80.2284 426.894 71.3724 426.153 62.4891 425.247C58.2327 424.807 54.0039 424.327 49.8025 423.503C46.3425 422.83 42.9237 421.979 39.5598 420.949C34.0678 419.274 28.5758 417.215 23.729 414.084C18.0036 410.391 13.1706 405.544 9.69689 399.668C6.22318 393.791 4.02636 387.393 2.99661 380.789C1.92566 373.951 1.77463 366.867 2.46113 359.988C2.83184 356.185 3.46343 352.409 4.10874 348.647C4.75406 344.885 5.61905 340.175 6.51151 335.974C7.40396 331.772 8.928 325.539 10.3971 320.376C11.8662 315.214 13.8434 308.953 15.8068 303.337C18.3606 296.06 21.1752 288.866 24.2233 281.781C25.8297 278.033 27.6421 274.367 29.1524 270.577C30.1547 268.051 31.2119 265.566 32.3515 263.108C35.0289 257.328 38.0907 251.712 41.5232 246.344C45.4912 240.152 49.9535 234.275 54.9101 228.838C60.5257 222.673 66.7591 217.044 73.5006 212.115C80.2421 207.186 86.9286 203.3 94.1644 199.813C100.384 196.819 106.81 194.279 113.304 191.918C120.814 189.185 128.366 186.645 136.096 184.613C143.208 182.746 150.403 181.236 157.666 180.096C164.929 178.957 163.364 179.259 166.22 178.929C169.076 178.6 167.126 178.641 167.208 178.174C167.497 176.622 167.799 175.057 168.087 173.506C168.801 169.771 169.501 166.037 170.215 162.302C170.929 158.567 171.932 153.254 172.783 148.737L175.007 136.997C175.364 135.089 175.762 133.18 176.092 131.272C176.421 129.363 176.092 131.217 176.106 131.19C176.353 129.899 174.362 129.336 174.115 130.64C173.826 132.192 173.524 133.757 173.236 135.309C172.522 139.043 171.822 142.778 171.108 146.512C170.257 151.03 169.392 155.56 168.54 160.078C167.689 164.595 167.057 167.904 166.316 171.817C165.575 175.73 165.822 174.398 165.575 175.689C165.327 176.979 165.259 176.938 165.218 177.542C165.176 178.146 165.218 177.597 165.204 177.625L166.192 176.87C159.684 177.625 153.19 178.654 146.778 179.986C138.636 181.675 130.604 183.817 122.709 186.426C116.023 188.636 109.364 191.053 102.842 193.73C95.8395 196.6 88.9882 199.854 82.4801 203.726C75.0658 208.133 68.1047 213.282 61.7339 219.09C55.8574 224.444 50.5164 230.362 45.7246 236.705C41.537 242.238 37.7887 248.115 34.4934 254.225C31.1982 260.335 29.2485 264.728 27.0929 270.179C25.5689 274.024 23.7153 277.758 22.0814 281.561C20.475 285.337 18.9235 289.14 17.4407 292.957C14.9555 299.369 12.6763 305.864 10.6168 312.427C9.14769 317.109 7.78841 321.818 6.58016 326.569C4.67168 334.12 3.1751 341.768 1.87074 349.457C0.607571 356.912 -0.312346 364.381 0.0995565 371.96C0.278048 375.311 0.53892 378.674 1.10185 381.997C1.7609 385.938 2.87303 389.768 4.38334 393.462C6.84103 399.489 10.2049 405.077 14.8731 409.677C18.9235 413.672 23.7153 416.899 28.9053 419.219C35.3447 422.103 42.2235 424.121 49.1434 425.48C56.0634 426.84 57.6836 426.826 61.9811 427.279C66.4022 427.732 70.837 428.144 75.2581 428.528C84.4435 429.297 93.6564 429.901 102.869 430.313C111.698 430.711 120.54 430.945 129.382 431C133.487 431.027 137.606 431.027 141.712 430.986C142.275 430.986 142.741 430.519 142.741 429.956C142.741 428.144 143.044 426.373 143.524 424.629C144.005 422.885 144.719 421.457 146.201 420.469C147.684 419.48 148.673 419.261 150.032 419.013C151.391 418.766 150.677 418.89 151.158 418.849C152.243 418.766 153.355 418.849 154.426 418.849H200.504C200.957 418.849 201.369 418.533 201.493 418.093C202.028 416.309 202.55 414.51 203.085 412.725L207.245 398.679C209.168 392.185 211.09 385.677 213.012 379.182C215.195 371.809 217.365 364.45 219.548 357.077C221.662 349.924 223.776 342.77 225.891 335.631C228.005 328.491 229.406 323.768 231.15 317.836C232.248 314.143 233.333 310.436 234.431 306.742C234.637 306.056 234.843 305.383 235.035 304.697C236.202 300.619 239.127 297.406 243.259 296.198C244.275 295.896 244.948 295.772 245.799 295.786C247.722 295.786 249.644 295.786 251.566 295.8C255.411 295.8 259.255 295.827 263.099 295.841C270.871 295.868 278.656 295.896 286.427 295.909C301.983 295.964 317.539 296.006 333.082 296.06C336.83 296.06 340.578 296.088 344.34 296.102C345.013 296.102 345.507 295.443 345.329 294.797C342.487 284.459 338.738 274.367 334.153 264.687C329.182 254.211 323.223 244.202 316.372 234.852C314.931 232.888 313.448 230.952 311.937 229.044C310.715 227.506 309.315 226.078 307.956 224.65C304.757 221.314 301.393 218.156 297.85 215.19C288.939 207.68 279.04 201.364 268.468 196.476C259.626 192.385 250.344 189.282 240.815 187.236C231.287 185.19 239.031 186.865 238.138 186.687L238.756 188.197C240.019 185.588 240.651 182.746 240.541 179.849C240.5 178.531 238.44 178.517 238.481 179.849L238.44 179.794Z" fill="#231F20"/>
<path d="M148.802 180.677C150.971 188.05 154.5 195.052 159.168 201.162C164.372 207.959 170.976 213.67 178.459 217.817C182.646 220.137 187.122 221.991 191.736 223.24C196.994 224.668 202.363 225.204 207.8 225.176C212.056 225.149 216.313 224.833 220.459 223.886C224.606 222.938 230.921 220.371 235.274 216.993C243.086 210.952 248.057 201.862 249.718 192.196C249.828 191.565 249.924 190.92 250.006 190.288C250.089 189.656 249.484 189.258 248.976 189.258C248.468 189.258 248.015 189.739 247.947 190.288C247.988 189.986 247.933 190.425 247.919 190.494C247.905 190.631 247.878 190.755 247.864 190.892L247.7 191.881C247.562 192.65 247.397 193.418 247.219 194.187C246.766 196.096 246.189 197.977 245.489 199.803C243.608 204.691 240.711 209.181 236.949 212.833C232.967 216.718 228.066 219.533 222.752 221.153C218.564 222.43 214.226 222.979 209.873 223.103C205.026 223.24 200.193 223.021 195.429 222.032C190.692 221.043 186.106 219.437 181.781 217.268C174.697 213.725 168.312 208.796 163.122 202.824C157.795 196.686 153.731 189.409 151.246 181.679C148.761 173.949 150.93 180.663 150.779 180.155C150.408 178.892 148.417 179.428 148.788 180.704L148.802 180.677Z" fill="#231F20"/>
<path d="M197.194 159.651C196.604 160.008 201.684 176.485 214.069 183.665C216.938 185.327 225.025 189.281 238.426 186.384V179.793L230.737 179.395L217.034 175.084L209.291 170.512L203.538 166.022L198.869 161.546C198.293 160.764 197.359 159.542 197.181 159.651H197.194Z" fill="#231F20" stroke="#231F20" stroke-width="0.230215" stroke-miterlimit="10"/>
<path d="M140.623 429.904V439.968C140.623 440.517 141.09 440.998 141.653 440.998H143.465C145.182 440.998 146.898 440.997 148.614 440.984L156.742 440.956C160.34 440.956 163.937 440.929 167.548 440.929C171.887 440.929 176.225 440.901 180.578 440.888L195.502 440.846C200.473 440.833 206.514 440.819 212.02 440.792C217.924 440.778 223.827 440.75 229.718 440.737C235.869 440.723 242.02 440.695 248.171 440.682C254.473 440.668 260.775 440.641 267.077 440.627C273.434 440.613 279.778 440.586 286.135 440.572C292.368 440.558 298.615 440.531 304.849 440.517C310.876 440.503 316.904 440.476 322.917 440.462C328.629 440.448 334.341 440.421 340.053 440.407C345.284 440.393 350.529 440.38 355.76 440.352L369.751 440.311C373.733 440.311 377.714 440.284 381.696 440.27C384.84 440.27 387.998 440.256 391.142 440.242H397.788C398.941 440.215 400.108 440.215 401.261 440.215H401.687C402.154 440.215 402.552 439.899 402.676 439.46C406.836 425.826 410.982 412.178 415.143 398.544C419.316 384.855 423.477 371.18 427.651 357.491C431.811 343.857 435.957 330.209 440.118 316.575C441.161 313.17 442.191 309.752 443.234 306.346C443.893 304.191 443.578 301.802 442.671 299.756C441.6 297.34 439.568 295.527 437.138 294.539C434.708 293.55 435.82 294.031 435.147 294.003C432.676 293.907 430.177 294.003 427.706 294.003H344.309C342.977 294.003 342.977 296.063 344.309 296.063H435.216C435.271 296.063 434.859 295.98 435.106 296.063C435.353 296.145 435.669 296.2 435.944 296.296C438.127 297.024 439.966 298.658 440.873 300.786C441.34 301.884 441.545 303.079 441.504 304.273C441.477 305.317 441.175 306.017 440.79 307.253C436.658 320.804 432.539 334.356 428.406 347.907C424.273 361.459 420.154 375.011 416.021 388.562C411.916 402.031 407.811 415.487 403.719 428.956C402.703 432.279 401.701 435.602 400.685 438.924C401.014 438.677 401.344 438.416 401.673 438.169H394.712C392.007 438.197 389.289 438.197 386.584 438.21C382.987 438.21 379.389 438.238 375.778 438.238C371.44 438.238 367.101 438.265 362.748 438.279L347.824 438.32C342.318 438.334 336.812 438.348 331.307 438.375C325.403 438.389 319.499 438.416 313.609 438.43C307.457 438.444 301.306 438.471 295.155 438.485C288.853 438.499 282.551 438.526 276.249 438.54C269.892 438.554 263.549 438.581 257.192 438.595C250.958 438.608 244.711 438.636 238.477 438.65C232.45 438.663 226.422 438.691 220.409 438.705C214.697 438.718 208.985 438.746 203.274 438.759C198.042 438.773 192.797 438.787 187.566 438.814L173.575 438.856C168.907 438.869 165.612 438.883 161.63 438.897C158.486 438.897 155.328 438.911 152.184 438.924C149.973 438.924 147.763 438.924 145.538 438.938H141.639L142.669 439.968V429.904C142.669 428.572 140.609 428.572 140.609 429.904H140.623Z" fill="#231F20"/>
<path d="M188.334 374.817C187.221 374.556 186.123 374.282 185.011 374.021C182.059 373.321 179.107 372.607 176.155 371.906C171.912 370.89 167.683 369.888 163.441 368.872C159.198 367.856 153.514 366.51 148.557 365.316C143.422 364.094 138.301 362.872 133.166 361.65C128.429 360.524 123.692 359.385 118.955 358.259C114.218 357.133 111.39 356.46 107.601 355.554C103.811 354.648 103.056 354.469 100.777 353.934C99.4998 353.632 98.2367 353.439 96.9323 353.233C92.4014 352.52 87.8704 351.806 83.3258 351.092C82.9825 351.037 82.6393 350.982 82.2823 350.927C81.7331 350.844 81.1839 351.064 81.0191 351.641C80.8544 352.217 81.1839 352.822 81.7331 352.904C85.5226 353.494 89.3121 354.099 93.1016 354.689C95.2023 355.018 97.3579 355.224 99.4312 355.719C101.257 356.158 103.083 356.584 104.909 357.023C108.383 357.847 111.843 358.684 115.317 359.508C119.875 360.593 124.434 361.678 128.992 362.776C134.072 363.984 139.166 365.206 144.246 366.414C149.299 367.623 154.352 368.831 159.404 370.025C163.866 371.096 168.329 372.154 172.791 373.225C176.1 374.021 179.423 374.803 182.732 375.6C186.041 376.396 185.931 376.382 187.537 376.753C189.144 377.124 187.674 376.781 187.757 376.808C189.047 377.11 189.597 375.133 188.306 374.817H188.334Z" fill="#231F20"/>
<path d="M98.3687 354.606C99.1238 351.6 99.8653 348.579 100.62 345.572L105.975 324.029L112.442 297.997C114.309 290.501 116.163 283.004 118.03 275.521C119.897 268.038 119.925 268.272 120.735 264.619C121.545 260.967 120.762 264.523 120.776 264.468C121.092 263.178 119.115 262.629 118.785 263.919C118.03 266.926 117.289 269.947 116.534 272.954L111.179 294.496L104.712 320.528C102.845 328.025 100.991 335.522 99.1238 343.004C98.2177 346.629 97.2291 350.254 96.419 353.906C95.6089 357.558 96.3915 354.002 96.3778 354.057C96.062 355.348 98.0392 355.897 98.3687 354.606ZM286.54 294.826C286.43 291.613 286.32 288.414 286.21 285.201C286.032 280.107 285.867 275.027 285.688 269.933C285.647 268.752 285.606 267.585 285.565 266.404C285.524 265.224 283.464 265.072 283.505 266.404C283.615 269.617 283.725 272.816 283.835 276.029C284.013 281.123 284.178 286.203 284.356 291.297C284.398 292.478 284.439 293.645 284.48 294.826C284.521 296.006 286.581 296.157 286.54 294.826ZM28.1942 440.845H39.4803C43.5444 440.845 47.6085 440.845 51.6864 440.859C56.6429 440.859 61.6132 440.873 66.5698 440.886C71.5263 440.9 77.444 440.9 82.8811 440.914C88.3869 440.914 93.9064 440.927 99.4122 440.941C104.533 440.941 109.641 440.955 114.762 440.969C119.087 440.969 123.412 440.969 127.737 440.982C132.062 440.996 133.957 440.982 137.06 440.982C138.529 440.982 140.012 441.024 141.481 440.982C142.95 440.941 141.605 440.982 141.673 440.982C142.195 440.982 142.758 440.516 142.703 439.953C142.442 436.918 142.168 433.884 141.907 430.85C141.646 427.815 141.618 430.012 141.152 429.861C140.424 429.628 139.71 429.394 138.982 429.161C138.255 428.927 138.282 428.914 137.898 428.9C137.17 428.872 136.442 428.9 135.715 428.9H113.842C111.687 428.9 109.531 428.969 107.376 428.9C105.577 428.845 103.765 428.625 101.966 428.488C98.0254 428.186 94.0712 427.884 90.1306 427.582C85.7645 427.252 81.412 426.895 77.0596 426.497L65.1968 425.426C63.1647 425.248 61.0915 424.918 59.0457 424.918H56.8214C55.4896 424.918 55.4896 426.978 56.8214 426.978C58.1532 426.978 58.7848 426.923 59.7597 427.005C60.7345 427.088 61.778 427.184 62.794 427.28C66.611 427.623 70.4417 427.966 74.2586 428.31C78.666 428.708 83.0734 429.106 87.4944 429.435C94.0437 429.943 100.579 430.52 107.128 430.946C108.515 431.042 109.929 430.959 111.316 430.959H137.115C137.362 430.959 137.623 430.987 137.884 430.959C138.145 430.932 137.966 430.959 137.994 430.959C137.801 431.056 137.623 430.863 137.953 431.001C138.282 431.138 138.351 431.124 138.543 431.193L140.602 431.852L139.847 430.863C140.108 433.898 140.383 436.932 140.644 439.966L141.673 438.937H130.387C126.323 438.937 122.259 438.937 118.181 438.923C113.225 438.923 108.254 438.909 103.298 438.895C98.3412 438.882 92.4235 438.882 86.9864 438.868C81.4807 438.868 75.9612 438.854 70.4554 438.84C64.9496 438.827 60.2265 438.827 55.1052 438.813C50.7802 438.813 46.4552 438.813 42.1302 438.799C37.8052 438.786 35.9105 438.799 32.8075 438.799C31.3384 438.799 29.8555 438.758 28.3864 438.799C26.9173 438.841 28.2628 438.799 28.1942 438.799C26.8624 438.799 26.8624 440.859 28.1942 440.859V440.845Z" fill="#231F20"/>
<path d="M51.5391 439.814L55.8503 425.273L82.0611 427.992L102.986 429.598L124.089 429.749L139.906 429.585L141.512 433.745L141.663 439.978H102.67L51.5391 439.814Z" fill="#231F20" stroke="#231F20" stroke-width="0.230215" stroke-miterlimit="10"/>
</svg>
