<svg width="230" height="135" viewBox="0 0 230 135" fill="none" xmlns="http://www.w3.org/2000/svg">
<g filter="url(#filter0_d_6199_124)">
<rect x="38" y="13" width="154" height="59" rx="16" fill="white" fill-opacity="0.1" shape-rendering="crispEdges"/>
<g filter="url(#filter1_d_6199_124)">
<rect x="38" y="13" width="153.53" height="59" rx="16" fill="white" fill-opacity="0.01" shape-rendering="crispEdges"/>
</g>
<rect x="54" y="22.5" width="40" height="40" rx="8" fill="#DBEAFE"/>
<g clip-path="url(#clip0_6199_124)">
<path fill-rule="evenodd" clip-rule="evenodd" d="M73.9984 43.0471C76.0421 43.0471 77.8937 43.7237 79.2522 44.6697C80.543 45.57 81.6363 46.9077 81.6363 48.347C81.6363 49.137 81.2991 49.7917 80.7678 50.2784C80.268 50.7378 79.6155 51.0357 78.9434 51.2386C77.6002 51.6456 75.8315 51.7766 73.9984 51.7766C72.1653 51.7766 70.3966 51.6456 69.0535 51.2386C68.3813 51.0357 67.7288 50.7378 67.228 50.2784C66.6988 49.7928 66.3606 49.1381 66.3606 48.3481C66.3606 46.9088 67.4539 45.571 68.7447 44.6708C70.1031 43.7237 71.9548 43.0471 73.9984 43.0471ZM73.9984 45.2295C72.4272 45.2295 71.0055 45.7533 69.994 46.4593C68.9149 47.2122 68.5428 47.9782 68.5428 48.347C68.5428 48.6787 68.9269 48.886 69.2761 49.017L69.4997 49.0934L69.6852 49.1501C70.7109 49.46 72.2166 49.5942 73.9984 49.5942C75.6438 49.5942 77.0525 49.4796 78.0661 49.2188L78.3978 49.1239L78.6052 49.0584C78.9794 48.9308 79.454 48.7158 79.454 48.347C79.454 47.9782 79.082 47.2122 78.0029 46.4593C76.9925 45.7544 75.5697 45.2295 73.9984 45.2295ZM81.6363 44.1383C82.7754 44.1383 83.8098 44.5148 84.5747 45.0473C85.273 45.535 86.0008 46.3458 86.0008 47.3344C86.0008 48.7911 84.5856 49.3127 83.3133 49.4949L82.986 49.5353L82.6707 49.5626L82.5201 49.5713C82.6532 49.1948 82.7274 48.7856 82.7274 48.347C82.7268 48.0205 82.6876 47.6953 82.6107 47.378C83.0318 47.3453 83.3777 47.2907 83.6352 47.2133C83.7487 47.1783 83.6461 47.0714 83.5261 46.9787L83.4094 46.8935L83.3264 46.8379C82.9989 46.6143 82.6297 46.4592 82.2408 46.3818C81.8261 45.5525 81.1889 44.8345 80.5103 44.2616C80.88 44.1799 81.2576 44.1386 81.6363 44.1383ZM66.3606 44.1383C66.7512 44.1398 67.1265 44.1809 67.4866 44.2616C66.8079 44.8345 66.1707 45.5525 65.7561 46.3818C65.3672 46.4592 64.9979 46.6143 64.6704 46.8379L64.5308 46.9339C64.3922 47.0343 64.2296 47.174 64.3616 47.2133C64.6192 47.2907 64.965 47.3464 65.3873 47.378C65.309 47.6951 65.2694 48.0204 65.2695 48.347C65.2695 48.7856 65.3437 49.1948 65.4768 49.5713L65.1713 49.5495L64.8483 49.5167C63.5368 49.3563 61.9961 48.8544 61.9961 47.3344C61.9961 46.3469 62.7228 45.535 63.4222 45.0473C64.2874 44.4546 65.3118 44.1377 66.3606 44.1383ZM81.0907 37.5913C81.8142 37.5913 82.508 37.8787 83.0196 38.3903C83.5311 38.9019 83.8185 39.5957 83.8185 40.3192C83.8185 41.0427 83.5311 41.7366 83.0196 42.2482C82.508 42.7597 81.8142 43.0471 81.0907 43.0471C80.3673 43.0471 79.6734 42.7597 79.1619 42.2482C78.6503 41.7366 78.3629 41.0427 78.3629 40.3192C78.3629 39.5957 78.6503 38.9019 79.1619 38.3903C79.6734 37.8787 80.3673 37.5913 81.0907 37.5913ZM66.9061 37.5913C67.6296 37.5913 68.3234 37.8787 68.835 38.3903C69.3466 38.9019 69.6339 39.5957 69.6339 40.3192C69.6339 41.0427 69.3466 41.7366 68.835 42.2482C68.3234 42.7597 67.6296 43.0471 66.9061 43.0471C66.1827 43.0471 65.4889 42.7597 64.9773 42.2482C64.4657 41.7366 64.1783 41.0427 64.1783 40.3192C64.1783 39.5957 64.4657 38.9019 64.9773 38.3903C65.4889 37.8787 66.1827 37.5913 66.9061 37.5913ZM73.9984 33.2266C75.156 33.2266 76.2661 33.6864 77.0846 34.505C77.9031 35.3235 78.3629 36.4337 78.3629 37.5913C78.3629 38.7489 77.9031 39.859 77.0846 40.6776C76.2661 41.4961 75.156 41.956 73.9984 41.956C72.8409 41.956 71.7308 41.4961 70.9123 40.6776C70.0938 39.859 69.6339 38.7489 69.6339 37.5913C69.6339 36.4337 70.0938 35.3235 70.9123 34.505C71.7308 33.6864 72.8409 33.2266 73.9984 33.2266ZM81.0907 39.7736C80.946 39.7736 80.8073 39.8311 80.705 39.9334C80.6026 40.0357 80.5452 40.1745 80.5452 40.3192C80.5452 40.4639 80.6026 40.6027 80.705 40.705C80.8073 40.8073 80.946 40.8648 81.0907 40.8648C81.2354 40.8648 81.3742 40.8073 81.4765 40.705C81.5788 40.6027 81.6363 40.4639 81.6363 40.3192C81.6363 40.1745 81.5788 40.0357 81.4765 39.9334C81.3742 39.8311 81.2354 39.7736 81.0907 39.7736ZM66.9061 39.7736C66.7615 39.7736 66.6227 39.8311 66.5204 39.9334C66.4181 40.0357 66.3606 40.1745 66.3606 40.3192C66.3606 40.4639 66.4181 40.6027 66.5204 40.705C66.6227 40.8073 66.7615 40.8648 66.9061 40.8648C67.0508 40.8648 67.1896 40.8073 67.2919 40.705C67.3942 40.6027 67.4517 40.4639 67.4517 40.3192C67.4517 40.1745 67.3942 40.0357 67.2919 39.9334C67.1896 39.8311 67.0508 39.7736 66.9061 39.7736ZM73.9984 35.4089C73.4197 35.4089 72.8646 35.6388 72.4554 36.0481C72.0461 36.4574 71.8162 37.0125 71.8162 37.5913C71.8162 38.1701 72.0461 38.7252 72.4554 39.1344C72.8646 39.5437 73.4197 39.7736 73.9984 39.7736C74.5772 39.7736 75.1323 39.5437 75.5415 39.1344C75.9508 38.7252 76.1807 38.1701 76.1807 37.5913C76.1807 37.0125 75.9508 36.4574 75.5415 36.0481C75.1323 35.6388 74.5772 35.4089 73.9984 35.4089Z" fill="#004370"/>
</g>
<path d="M106.2 32L108.47 24.8H110.235L112.505 32H111.265L109.205 25.54H109.475L107.44 32H106.2ZM107.465 30.44V29.315H111.245V30.44H107.465ZM116.259 32.15C115.539 32.15 114.922 31.9933 114.409 31.68C113.895 31.3633 113.5 30.9233 113.224 30.36C112.95 29.7967 112.814 29.1433 112.814 28.4C112.814 27.6567 112.95 27.0033 113.224 26.44C113.5 25.8767 113.895 25.4383 114.409 25.125C114.922 24.8083 115.539 24.65 116.259 24.65C117.089 24.65 117.78 24.8583 118.334 25.275C118.887 25.6883 119.275 26.2467 119.499 26.95L118.284 27.285C118.144 26.815 117.905 26.4483 117.569 26.185C117.232 25.9183 116.795 25.785 116.259 25.785C115.775 25.785 115.372 25.8933 115.049 26.11C114.729 26.3267 114.487 26.6317 114.324 27.025C114.164 27.415 114.082 27.8733 114.079 28.4C114.079 28.9267 114.159 29.3867 114.319 29.78C114.482 30.17 114.725 30.4733 115.049 30.69C115.372 30.9067 115.775 31.015 116.259 31.015C116.795 31.015 117.232 30.8817 117.569 30.615C117.905 30.3483 118.144 29.9817 118.284 29.515L119.499 29.85C119.275 30.5533 118.887 31.1133 118.334 31.53C117.78 31.9433 117.089 32.15 116.259 32.15ZM122.326 32V25.93H119.996V24.8H125.861V25.93H123.531V32H122.326ZM126.761 32V24.8H127.966V32H126.761ZM131.084 32L128.814 24.8H130.054L131.954 30.83L133.879 24.8H135.119L132.849 32H131.084ZM135.87 32V24.8H140.52V25.93H137.075V27.705H139.92V28.835H137.075V30.87H140.52V32H135.87ZM146.621 32.15C146.048 32.15 145.543 32.0333 145.106 31.8C144.673 31.5667 144.333 31.2383 144.086 30.815C143.843 30.3917 143.721 29.895 143.721 29.325V24.81L144.941 24.8V29.295C144.941 29.565 144.986 29.8067 145.076 30.02C145.17 30.2333 145.295 30.415 145.451 30.565C145.608 30.7117 145.788 30.8233 145.991 30.9C146.195 30.9767 146.405 31.015 146.621 31.015C146.845 31.015 147.056 30.9767 147.256 30.9C147.46 30.82 147.64 30.7067 147.796 30.56C147.953 30.41 148.076 30.2283 148.166 30.015C148.256 29.8017 148.301 29.5617 148.301 29.295V24.8H149.521V29.325C149.521 29.895 149.398 30.3917 149.151 30.815C148.908 31.2383 148.568 31.5667 148.131 31.8C147.698 32.0333 147.195 32.15 146.621 32.15ZM153.281 32.15C152.754 32.15 152.279 32.0583 151.856 31.875C151.436 31.6917 151.089 31.43 150.816 31.09C150.546 30.7467 150.374 30.34 150.301 29.87L151.551 29.68C151.658 30.1067 151.876 30.4367 152.206 30.67C152.539 30.9033 152.923 31.02 153.356 31.02C153.613 31.02 153.854 30.98 154.081 30.9C154.308 30.82 154.491 30.7033 154.631 30.55C154.774 30.3967 154.846 30.2083 154.846 29.985C154.846 29.885 154.829 29.7933 154.796 29.71C154.763 29.6233 154.713 29.5467 154.646 29.48C154.583 29.4133 154.499 29.3533 154.396 29.3C154.296 29.2433 154.179 29.195 154.046 29.155L152.186 28.605C152.026 28.5583 151.853 28.4967 151.666 28.42C151.483 28.34 151.308 28.2317 151.141 28.095C150.978 27.955 150.843 27.7783 150.736 27.565C150.633 27.3483 150.581 27.0817 150.581 26.765C150.581 26.3017 150.698 25.9133 150.931 25.6C151.168 25.2833 151.484 25.0467 151.881 24.89C152.281 24.7333 152.724 24.6567 153.211 24.66C153.704 24.6633 154.144 24.7483 154.531 24.915C154.918 25.0783 155.241 25.3167 155.501 25.63C155.761 25.9433 155.944 26.3217 156.051 26.765L154.756 26.99C154.703 26.7367 154.599 26.5217 154.446 26.345C154.296 26.165 154.111 26.0283 153.891 25.935C153.674 25.8417 153.443 25.7917 153.196 25.785C152.956 25.7817 152.733 25.8183 152.526 25.895C152.323 25.9683 152.158 26.075 152.031 26.215C151.908 26.355 151.846 26.5183 151.846 26.705C151.846 26.8817 151.899 27.0267 152.006 27.14C152.113 27.25 152.244 27.3383 152.401 27.405C152.561 27.4683 152.723 27.5217 152.886 27.565L154.176 27.925C154.353 27.9717 154.551 28.035 154.771 28.115C154.991 28.195 155.203 28.3067 155.406 28.45C155.609 28.5933 155.776 28.7817 155.906 29.015C156.039 29.2483 156.106 29.545 156.106 29.905C156.106 30.2783 156.028 30.6067 155.871 30.89C155.718 31.17 155.509 31.4033 155.246 31.59C154.983 31.7767 154.681 31.9167 154.341 32.01C154.004 32.1033 153.651 32.15 153.281 32.15ZM157.188 32V24.8H161.838V25.93H158.393V27.705H161.238V28.835H158.393V30.87H161.838V32H157.188ZM163.038 32V24.8H166.013C166.083 24.8 166.173 24.8033 166.283 24.81C166.393 24.8133 166.495 24.8233 166.588 24.84C167.005 24.9033 167.348 25.0417 167.618 25.255C167.891 25.4683 168.093 25.7383 168.223 26.065C168.356 26.3883 168.423 26.7483 168.423 27.145C168.423 27.7317 168.275 28.2367 167.978 28.66C167.681 29.08 167.226 29.34 166.613 29.44L166.098 29.485H164.243V32H163.038ZM167.173 32L165.753 29.07L166.978 28.8L168.538 32H167.173ZM164.243 28.36H165.963C166.03 28.36 166.105 28.3567 166.188 28.35C166.271 28.3433 166.348 28.33 166.418 28.31C166.618 28.26 166.775 28.1717 166.888 28.045C167.005 27.9183 167.086 27.775 167.133 27.615C167.183 27.455 167.208 27.2983 167.208 27.145C167.208 26.9917 167.183 26.835 167.133 26.675C167.086 26.5117 167.005 26.3667 166.888 26.24C166.775 26.1133 166.618 26.025 166.418 25.975C166.348 25.955 166.271 25.9433 166.188 25.94C166.105 25.9333 166.03 25.93 165.963 25.93H164.243V28.36ZM172.304 32.15C171.778 32.15 171.303 32.0583 170.879 31.875C170.459 31.6917 170.113 31.43 169.839 31.09C169.569 30.7467 169.398 30.34 169.324 29.87L170.574 29.68C170.681 30.1067 170.899 30.4367 171.229 30.67C171.563 30.9033 171.946 31.02 172.379 31.02C172.636 31.02 172.878 30.98 173.104 30.9C173.331 30.82 173.514 30.7033 173.654 30.55C173.798 30.3967 173.869 30.2083 173.869 29.985C173.869 29.885 173.853 29.7933 173.819 29.71C173.786 29.6233 173.736 29.5467 173.669 29.48C173.606 29.4133 173.523 29.3533 173.419 29.3C173.319 29.2433 173.203 29.195 173.069 29.155L171.209 28.605C171.049 28.5583 170.876 28.4967 170.689 28.42C170.506 28.34 170.331 28.2317 170.164 28.095C170.001 27.955 169.866 27.7783 169.759 27.565C169.656 27.3483 169.604 27.0817 169.604 26.765C169.604 26.3017 169.721 25.9133 169.954 25.6C170.191 25.2833 170.508 25.0467 170.904 24.89C171.304 24.7333 171.748 24.6567 172.234 24.66C172.728 24.6633 173.168 24.7483 173.554 24.915C173.941 25.0783 174.264 25.3167 174.524 25.63C174.784 25.9433 174.968 26.3217 175.074 26.765L173.779 26.99C173.726 26.7367 173.623 26.5217 173.469 26.345C173.319 26.165 173.134 26.0283 172.914 25.935C172.698 25.8417 172.466 25.7917 172.219 25.785C171.979 25.7817 171.756 25.8183 171.549 25.895C171.346 25.9683 171.181 26.075 171.054 26.215C170.931 26.355 170.869 26.5183 170.869 26.705C170.869 26.8817 170.923 27.0267 171.029 27.14C171.136 27.25 171.268 27.3383 171.424 27.405C171.584 27.4683 171.746 27.5217 171.909 27.565L173.199 27.925C173.376 27.9717 173.574 28.035 173.794 28.115C174.014 28.195 174.226 28.3067 174.429 28.45C174.633 28.5933 174.799 28.7817 174.929 29.015C175.063 29.2483 175.129 29.545 175.129 29.905C175.129 30.2783 175.051 30.6067 174.894 30.89C174.741 31.17 174.533 31.4033 174.269 31.59C174.006 31.7767 173.704 31.9167 173.364 32.01C173.028 32.1033 172.674 32.15 172.304 32.15Z" fill="#222222"/>
<path d="M109.51 57V46.704L107.08 48.198V45.498L109.51 44.04H112.012V57H109.51ZM114.532 59.43L114.676 58.404C114.964 58.428 115.198 58.3815 115.378 58.2645C115.558 58.1475 115.683 57.9795 115.752 57.7605C115.821 57.5415 115.834 57.288 115.792 57H114.532V54.552H116.98V57C116.98 57.864 116.779 58.518 116.377 58.962C115.975 59.406 115.36 59.562 114.532 59.43ZM120.04 56.982V54.858L125.476 50.034C125.884 49.674 126.172 49.335 126.34 49.017C126.508 48.699 126.592 48.402 126.592 48.126C126.592 47.73 126.511 47.3775 126.349 47.0685C126.187 46.7595 125.959 46.5165 125.665 46.3395C125.371 46.1625 125.026 46.074 124.63 46.074C124.216 46.074 123.852 46.1685 123.537 46.3575C123.222 46.5465 122.977 46.7955 122.803 47.1045C122.629 47.4135 122.548 47.748 122.56 48.108H120.04C120.04 47.22 120.235 46.452 120.625 45.804C121.015 45.156 121.558 44.655 122.254 44.301C122.95 43.947 123.76 43.77 124.684 43.77C125.53 43.77 126.288 43.9545 126.957 44.3235C127.626 44.6925 128.152 45.207 128.536 45.867C128.92 46.527 129.112 47.292 129.112 48.162C129.112 48.804 129.022 49.3365 128.842 49.7595C128.662 50.1825 128.395 50.5725 128.041 50.9295C127.687 51.2865 127.252 51.69 126.736 52.14L123.226 55.218L123.028 54.678H129.112V56.982H120.04ZM135.61 57.27C134.734 57.27 133.955 57.0915 133.274 56.7345C132.593 56.3775 132.059 55.8855 131.672 55.2585C131.285 54.6315 131.092 53.916 131.092 53.112C131.092 52.428 131.246 51.783 131.555 51.177C131.864 50.571 132.31 50.076 132.892 49.692L132.838 50.448C132.4 50.022 132.056 49.572 131.807 49.098C131.558 48.624 131.434 48.09 131.434 47.496C131.434 46.746 131.612 46.092 131.969 45.534C132.326 44.976 132.818 44.5425 133.445 44.2335C134.072 43.9245 134.794 43.77 135.61 43.77C136.426 43.77 137.147 43.9245 137.774 44.2335C138.401 44.5425 138.893 44.976 139.25 45.534C139.607 46.092 139.786 46.746 139.786 47.496C139.786 48.09 139.669 48.6225 139.435 49.0935C139.201 49.5645 138.844 50.022 138.364 50.466V49.71C138.934 50.07 139.373 50.556 139.682 51.168C139.991 51.78 140.146 52.428 140.146 53.112C140.146 53.916 139.951 54.6315 139.561 55.2585C139.171 55.8855 138.634 56.3775 137.95 56.7345C137.266 57.0915 136.486 57.27 135.61 57.27ZM135.61 54.966C136.186 54.966 136.654 54.81 137.014 54.498C137.374 54.186 137.554 53.724 137.554 53.112C137.554 52.506 137.374 52.0425 137.014 51.7215C136.654 51.4005 136.186 51.24 135.61 51.24C135.034 51.24 134.569 51.4005 134.215 51.7215C133.861 52.0425 133.684 52.506 133.684 53.112C133.684 53.724 133.861 54.186 134.215 54.498C134.569 54.81 135.034 54.966 135.61 54.966ZM135.61 48.918C136.078 48.918 136.459 48.8025 136.753 48.5715C137.047 48.3405 137.194 47.982 137.194 47.496C137.194 47.01 137.047 46.6485 136.753 46.4115C136.459 46.1745 136.078 46.056 135.61 46.056C135.142 46.056 134.761 46.1745 134.467 46.4115C134.173 46.6485 134.026 47.01 134.026 47.496C134.026 47.982 134.173 48.3405 134.467 48.5715C134.761 48.8025 135.142 48.918 135.61 48.918ZM147.76 57V54.984H142.126V52.698L146.212 44.04H149.02L144.934 52.698H147.76V49.458H150.244V52.698H151.396V54.984H150.244V57H147.76Z" fill="#1E1B4B"/>
</g>
<defs>
<filter id="filter0_d_6199_124" x="28" y="4" width="174" height="79" filterUnits="userSpaceOnUse" color-interpolation-filters="sRGB">
<feFlood flood-opacity="0" result="BackgroundImageFix"/>
<feColorMatrix in="SourceAlpha" type="matrix" values="0 0 0 0 0 0 0 0 0 0 0 0 0 0 0 0 0 0 127 0" result="hardAlpha"/>
<feOffset dy="1"/>
<feGaussianBlur stdDeviation="5"/>
<feComposite in2="hardAlpha" operator="out"/>
<feColorMatrix type="matrix" values="0 0 0 0 0 0 0 0 0 0 0 0 0 0 0 0 0 0 0.1 0"/>
<feBlend mode="normal" in2="BackgroundImageFix" result="effect1_dropShadow_6199_124"/>
<feBlend mode="normal" in="BackgroundImageFix" in2="effect1_dropShadow_6199_124" result="BackgroundImageFix"/>
<feBlend mode="normal" in="SourceGraphic" in2="BackgroundImageFix" result="shape"/>
</filter>
<filter id="filter1_d_6199_124" x="0" y="0" width="229.531" height="135" filterUnits="userSpaceOnUse" color-interpolation-filters="sRGB">
<feFlood flood-opacity="0" result="BackgroundImageFix"/>
<feColorMatrix in="SourceAlpha" type="matrix" values="0 0 0 0 0 0 0 0 0 0 0 0 0 0 0 0 0 0 127 0" result="hardAlpha"/>
<feMorphology radius="12" operator="erode" in="SourceAlpha" result="effect1_dropShadow_6199_124"/>
<feOffset dy="25"/>
<feGaussianBlur stdDeviation="25"/>
<feComposite in2="hardAlpha" operator="out"/>
<feColorMatrix type="matrix" values="0 0 0 0 0 0 0 0 0 0 0 0 0 0 0 0 0 0 0.25 0"/>
<feBlend mode="normal" in2="BackgroundImageFix" result="effect1_dropShadow_6199_124"/>
<feBlend mode="normal" in="SourceGraphic" in2="effect1_dropShadow_6199_124" result="shape"/>
</filter>
<clipPath id="clip0_6199_124">
<rect width="24.0047" height="24.55" fill="white" transform="translate(61.9961 30.2266)"/>
</clipPath>
</defs>
</svg>
