<svg width="226" height="135" viewBox="0 0 226 135" fill="none" xmlns="http://www.w3.org/2000/svg">
<g filter="url(#filter0_d_6199_113)">
<rect x="38" y="13" width="150" height="59" rx="16" fill="white" fill-opacity="0.1" shape-rendering="crispEdges"/>
<g filter="url(#filter1_d_6199_113)">
<rect x="38" y="13" width="149.98" height="59" rx="16" fill="white" fill-opacity="0.01" shape-rendering="crispEdges"/>
</g>
<rect x="54" y="22.5" width="40" height="40" rx="8" fill="#DCFCE7"/>
<path d="M75 37.5H83M83 37.5V45.5M83 37.5L75 45.5L71 41.5L65 47.5" stroke="#16A34A" stroke-width="2" stroke-linecap="round" stroke-linejoin="round"/>
<path d="M109.747 32.15C109.027 32.15 108.41 31.9928 107.896 31.6783C107.381 31.3639 106.987 30.925 106.712 30.3617C106.437 29.7983 106.3 29.1444 106.3 28.4C106.3 27.6556 106.437 27.0017 106.712 26.4383C106.987 25.875 107.381 25.4361 107.896 25.1217C108.41 24.8072 109.027 24.65 109.747 24.65C110.576 24.65 111.267 24.8574 111.82 25.2721C112.374 25.6868 112.762 26.2467 112.983 26.9517L111.768 27.285C111.631 26.815 111.393 26.4478 111.056 26.1833C110.719 25.9189 110.283 25.7866 109.747 25.7866C109.263 25.7866 108.861 25.895 108.538 26.1117C108.216 26.3283 107.974 26.6326 107.812 27.0246C107.649 27.4165 107.568 27.875 107.567 28.4C107.566 28.925 107.646 29.3833 107.808 29.775C107.971 30.1667 108.213 30.471 108.537 30.6879C108.86 30.9049 109.263 31.0134 109.747 31.0134C110.283 31.0134 110.719 30.8803 111.056 30.6142C111.393 30.3481 111.631 29.9817 111.768 29.515L112.983 29.8483C112.762 30.5533 112.374 31.1132 111.82 31.5279C111.267 31.9426 110.576 32.15 109.747 32.15ZM117.132 32.15C116.412 32.15 115.795 31.9928 115.281 31.6783C114.766 31.3639 114.372 30.925 114.097 30.3617C113.822 29.7983 113.685 29.1444 113.685 28.4C113.685 27.6556 113.822 27.0017 114.097 26.4383C114.372 25.875 114.766 25.4361 115.281 25.1217C115.795 24.8072 116.412 24.65 117.132 24.65C117.851 24.65 118.468 24.8072 118.982 25.1217C119.497 25.4361 119.892 25.875 120.166 26.4383C120.441 27.0017 120.578 27.6556 120.578 28.4C120.578 29.1444 120.441 29.7983 120.166 30.3617C119.892 30.925 119.497 31.3639 118.982 31.6783C118.468 31.9928 117.851 32.15 117.132 32.15ZM117.132 31.0134C117.615 31.0189 118.017 30.9132 118.339 30.6963C118.66 30.4793 118.901 30.1736 119.062 29.7792C119.223 29.3847 119.303 28.925 119.303 28.4C119.303 27.875 119.223 27.4179 119.062 27.0287C118.901 26.6396 118.66 26.3367 118.339 26.12C118.017 25.9033 117.615 25.7922 117.132 25.7866C116.648 25.7811 116.246 25.8867 115.925 26.1033C115.605 26.32 115.364 26.6257 115.203 27.0204C115.042 27.4151 114.961 27.875 114.96 28.4C114.959 28.925 115.039 29.382 115.2 29.7708C115.36 30.1597 115.602 30.4627 115.924 30.6796C116.246 30.8965 116.648 31.0078 117.132 31.0134ZM121.58 32V24.8H122.8L126.138 29.875V24.8H127.358V32H126.138L122.8 26.9233V32H121.58ZM130.38 32L128.11 24.8H129.352L131.25 30.8317L133.175 24.8H134.417L132.147 32H130.38ZM135.165 32V24.8H139.815V25.9283H136.368V27.7067H139.215V28.835H136.368V30.8717H139.815V32H135.165ZM141.015 32V24.8H143.99C144.06 24.8 144.15 24.8025 144.261 24.8075C144.372 24.8125 144.474 24.8233 144.567 24.84C144.983 24.9044 145.327 25.0435 145.598 25.2571C145.87 25.4707 146.072 25.7394 146.203 26.0633C146.334 26.3872 146.4 26.7472 146.4 27.1433C146.4 27.7317 146.252 28.2365 145.955 28.6579C145.658 29.0793 145.203 29.3405 144.59 29.4417L144.077 29.4867H142.218V32H141.015ZM145.15 32L143.73 29.07L144.957 28.8L146.517 32H145.15ZM142.218 28.3583H143.94C144.008 28.3583 144.083 28.355 144.165 28.3483C144.248 28.3417 144.325 28.3289 144.397 28.31C144.596 28.2595 144.752 28.171 144.867 28.0446C144.982 27.9182 145.063 27.7747 145.111 27.6142C145.159 27.4536 145.183 27.2967 145.183 27.1433C145.183 26.99 145.159 26.833 145.111 26.6725C145.063 26.5119 144.982 26.3685 144.867 26.2421C144.752 26.1157 144.596 26.0272 144.397 25.9766C144.325 25.9572 144.248 25.9443 144.165 25.9379C144.083 25.9315 144.008 25.9283 143.94 25.9283H142.218V28.3583ZM150.28 32.15C149.754 32.15 149.281 32.0583 148.859 31.875C148.437 31.6917 148.091 31.4293 147.819 31.0879C147.547 30.7465 147.374 30.34 147.298 29.8683L148.552 29.68C148.657 30.1067 148.875 30.437 149.207 30.6708C149.538 30.9047 149.921 31.0217 150.355 31.0217C150.611 31.0217 150.853 30.9814 151.08 30.9008C151.307 30.8203 151.492 30.7029 151.633 30.5488C151.774 30.3946 151.845 30.2072 151.845 29.9867C151.845 29.885 151.828 29.7921 151.795 29.7079C151.762 29.6237 151.713 29.5482 151.649 29.4812C151.584 29.4143 151.501 29.3536 151.4 29.2992C151.298 29.2447 151.179 29.1967 151.043 29.155L149.185 28.6067C149.025 28.5605 148.852 28.4978 148.667 28.4183C148.481 28.3389 148.306 28.2305 148.142 28.0933C147.977 27.9561 147.842 27.7798 147.737 27.5646C147.631 27.3493 147.578 27.0828 147.578 26.765C147.578 26.3011 147.696 25.9121 147.932 25.5979C148.168 25.2838 148.485 25.0479 148.882 24.8904C149.28 24.7329 149.723 24.6556 150.212 24.6583C150.704 24.6639 151.144 24.7492 151.531 24.9142C151.918 25.0792 152.241 25.3178 152.5 25.63C152.76 25.9422 152.943 26.3211 153.05 26.7667L151.755 26.9883C151.703 26.7355 151.6 26.5204 151.448 26.3429C151.295 26.1654 151.109 26.0297 150.891 25.9358C150.673 25.8419 150.441 25.7922 150.195 25.7866C149.954 25.7811 149.732 25.8162 149.527 25.8921C149.323 25.9679 149.158 26.0755 149.033 26.215C148.908 26.3544 148.845 26.5178 148.845 26.705C148.845 26.8833 148.898 27.0278 149.005 27.1383C149.111 27.2489 149.244 27.3371 149.403 27.4029C149.563 27.4688 149.723 27.5233 149.885 27.5667L151.175 27.925C151.352 27.9728 151.55 28.0367 151.769 28.1167C151.989 28.1967 152.2 28.3082 152.403 28.4513C152.607 28.5943 152.774 28.7826 152.907 29.0163C153.039 29.2499 153.105 29.5456 153.105 29.9033C153.105 30.2772 153.028 30.6051 152.874 30.8871C152.72 31.169 152.51 31.4032 152.246 31.5896C151.981 31.776 151.68 31.916 151.341 32.0096C151.003 32.1032 150.649 32.15 150.28 32.15ZM154.29 32V24.8H155.493V32H154.29ZM160.042 32.15C159.322 32.15 158.705 31.9928 158.191 31.6783C157.676 31.3639 157.282 30.925 157.007 30.3617C156.732 29.7983 156.595 29.1444 156.595 28.4C156.595 27.6556 156.732 27.0017 157.007 26.4383C157.282 25.875 157.676 25.4361 158.191 25.1217C158.705 24.8072 159.322 24.65 160.042 24.65C160.761 24.65 161.378 24.8072 161.892 25.1217C162.407 25.4361 162.802 25.875 163.076 26.4383C163.351 27.0017 163.488 27.6556 163.488 28.4C163.488 29.1444 163.351 29.7983 163.076 30.3617C162.802 30.925 162.407 31.3639 161.892 31.6783C161.378 31.9928 160.761 32.15 160.042 32.15ZM160.042 31.0134C160.525 31.0189 160.927 30.9132 161.249 30.6963C161.57 30.4793 161.811 30.1736 161.972 29.7792C162.133 29.3847 162.213 28.925 162.213 28.4C162.213 27.875 162.133 27.4179 161.972 27.0287C161.811 26.6396 161.57 26.3367 161.249 26.12C160.927 25.9033 160.525 25.7922 160.042 25.7866C159.558 25.7811 159.156 25.8867 158.835 26.1033C158.515 26.32 158.274 26.6257 158.113 27.0204C157.952 27.4151 157.871 27.875 157.87 28.4C157.869 28.925 157.949 29.382 158.11 29.7708C158.27 30.1597 158.512 30.4627 158.834 30.6796C159.156 30.8965 159.558 31.0078 160.042 31.0134ZM164.49 32V24.8H165.71L169.048 29.875V24.8H170.268V32H169.048L165.71 26.9233V32H164.49Z" fill="#222222"/>
<path d="M110.194 54.57V51.456H107.08V49.566H110.194V46.47H112.084V49.566H115.18V51.456H112.084V54.57H110.194ZM122.044 57.27C121.186 57.27 120.415 57.069 119.731 56.667C119.053 56.265 118.516 55.707 118.12 54.993C117.724 54.273 117.526 53.442 117.526 52.5V48.738C117.526 47.718 117.724 46.839 118.12 46.101C118.516 45.357 119.074 44.787 119.794 44.391C120.514 43.989 121.36 43.788 122.332 43.788C122.962 43.788 123.562 43.881 124.132 44.067C124.702 44.253 125.224 44.568 125.698 45.012L123.952 46.758C123.736 46.542 123.487 46.374 123.205 46.254C122.923 46.134 122.632 46.074 122.332 46.074C121.864 46.074 121.456 46.185 121.108 46.407C120.766 46.623 120.499 46.908 120.307 47.262C120.121 47.61 120.028 47.982 120.028 48.378V50.304L119.614 49.854C119.986 49.476 120.415 49.188 120.901 48.99C121.393 48.786 121.9 48.684 122.422 48.684C123.238 48.684 123.955 48.867 124.573 49.233C125.197 49.599 125.683 50.1 126.031 50.736C126.385 51.372 126.562 52.098 126.562 52.914C126.562 53.73 126.355 54.468 125.941 55.128C125.527 55.782 124.978 56.304 124.294 56.694C123.61 57.078 122.86 57.27 122.044 57.27ZM122.044 54.93C122.416 54.93 122.755 54.84 123.061 54.66C123.373 54.48 123.619 54.237 123.799 53.931C123.985 53.625 124.078 53.286 124.078 52.914C124.078 52.542 123.988 52.203 123.808 51.897C123.628 51.585 123.385 51.339 123.079 51.159C122.773 50.973 122.434 50.88 122.062 50.88C121.69 50.88 121.348 50.973 121.036 51.159C120.73 51.339 120.484 51.585 120.298 51.897C120.118 52.203 120.028 52.542 120.028 52.914C120.028 53.274 120.118 53.607 120.298 53.913C120.478 54.219 120.721 54.465 121.027 54.651C121.333 54.837 121.672 54.93 122.044 54.93ZM133.997 57V54.984H128.363V52.698L132.449 44.04H135.257L131.171 52.698H133.997V49.458H136.481V52.698H137.633V54.984H136.481V57H133.997ZM139.842 57V54.552H142.29V57H139.842ZM149.549 57.27C148.673 57.27 147.893 57.093 147.209 56.739C146.531 56.379 145.997 55.887 145.607 55.263C145.223 54.633 145.031 53.916 145.031 53.112C145.031 52.428 145.184 51.783 145.49 51.177C145.802 50.571 146.249 50.076 146.831 49.692L146.777 50.448C146.339 50.022 145.994 49.572 145.742 49.098C145.496 48.624 145.373 48.09 145.373 47.496C145.373 46.746 145.55 46.092 145.904 45.534C146.264 44.976 146.756 44.544 147.38 44.238C148.01 43.926 148.733 43.77 149.549 43.77C150.365 43.77 151.085 43.926 151.709 44.238C152.339 44.544 152.831 44.976 153.185 45.534C153.545 46.092 153.725 46.746 153.725 47.496C153.725 48.09 153.608 48.624 153.374 49.098C153.14 49.566 152.783 50.022 152.303 50.466V49.71C152.873 50.07 153.311 50.556 153.617 51.168C153.929 51.78 154.085 52.428 154.085 53.112C154.085 53.916 153.89 54.633 153.5 55.263C153.11 55.887 152.573 56.379 151.889 56.739C151.205 57.093 150.425 57.27 149.549 57.27ZM149.549 54.966C150.125 54.966 150.593 54.81 150.953 54.498C151.313 54.186 151.493 53.724 151.493 53.112C151.493 52.506 151.313 52.044 150.953 51.726C150.593 51.402 150.125 51.24 149.549 51.24C148.973 51.24 148.508 51.402 148.154 51.726C147.8 52.044 147.623 52.506 147.623 53.112C147.623 53.724 147.8 54.186 148.154 54.498C148.508 54.81 148.973 54.966 149.549 54.966ZM149.549 48.918C150.017 48.918 150.398 48.804 150.692 48.576C150.986 48.342 151.133 47.982 151.133 47.496C151.133 47.01 150.986 46.65 150.692 46.416C150.398 46.176 150.017 46.056 149.549 46.056C149.081 46.056 148.7 46.176 148.406 46.416C148.112 46.65 147.965 47.01 147.965 47.496C147.965 47.982 148.112 48.342 148.406 48.576C148.7 48.804 149.081 48.918 149.549 48.918ZM158.406 57L156.786 55.38L168.126 44.04L169.746 45.678L158.406 57ZM167.046 57.27C166.452 57.27 165.909 57.126 165.417 56.838C164.931 56.544 164.541 56.154 164.247 55.668C163.953 55.176 163.806 54.63 163.806 54.03C163.806 53.442 163.956 52.902 164.256 52.41C164.556 51.918 164.952 51.525 165.444 51.231C165.936 50.937 166.47 50.79 167.046 50.79C167.64 50.79 168.183 50.937 168.675 51.231C169.167 51.519 169.557 51.909 169.845 52.401C170.139 52.887 170.286 53.43 170.286 54.03C170.286 54.63 170.139 55.176 169.845 55.668C169.557 56.154 169.167 56.544 168.675 56.838C168.183 57.126 167.64 57.27 167.046 57.27ZM167.046 55.2C167.256 55.2 167.448 55.146 167.622 55.038C167.802 54.93 167.946 54.789 168.054 54.615C168.162 54.435 168.216 54.24 168.216 54.03C168.216 53.82 168.162 53.628 168.054 53.454C167.946 53.274 167.802 53.13 167.622 53.022C167.448 52.914 167.256 52.86 167.046 52.86C166.836 52.86 166.641 52.914 166.461 53.022C166.287 53.13 166.146 53.274 166.038 53.454C165.93 53.628 165.876 53.82 165.876 54.03C165.876 54.24 165.93 54.435 166.038 54.615C166.146 54.789 166.287 54.93 166.461 55.038C166.641 55.146 166.836 55.2 167.046 55.2ZM159.486 50.25C158.892 50.25 158.349 50.106 157.857 49.818C157.365 49.524 156.972 49.134 156.678 48.648C156.39 48.156 156.246 47.61 156.246 47.01C156.246 46.422 156.396 45.882 156.696 45.39C156.996 44.898 157.392 44.505 157.884 44.211C158.376 43.917 158.91 43.77 159.486 43.77C160.08 43.77 160.62 43.917 161.106 44.211C161.598 44.499 161.991 44.889 162.285 45.381C162.579 45.867 162.726 46.41 162.726 47.01C162.726 47.61 162.579 48.156 162.285 48.648C161.991 49.134 161.598 49.524 161.106 49.818C160.62 50.106 160.08 50.25 159.486 50.25ZM159.486 48.18C159.696 48.18 159.888 48.126 160.062 48.018C160.242 47.91 160.386 47.769 160.494 47.595C160.602 47.415 160.656 47.22 160.656 47.01C160.656 46.8 160.602 46.608 160.494 46.434C160.386 46.254 160.242 46.11 160.062 46.002C159.888 45.894 159.696 45.84 159.486 45.84C159.276 45.84 159.081 45.894 158.901 46.002C158.727 46.11 158.586 46.254 158.478 46.434C158.37 46.608 158.316 46.8 158.316 47.01C158.316 47.22 158.37 47.415 158.478 47.595C158.586 47.769 158.727 47.91 158.901 48.018C159.081 48.126 159.276 48.18 159.486 48.18Z" fill="#1E1B4B"/>
</g>
<defs>
<filter id="filter0_d_6199_113" x="28" y="4" width="170" height="79" filterUnits="userSpaceOnUse" color-interpolation-filters="sRGB">
<feFlood flood-opacity="0" result="BackgroundImageFix"/>
<feColorMatrix in="SourceAlpha" type="matrix" values="0 0 0 0 0 0 0 0 0 0 0 0 0 0 0 0 0 0 127 0" result="hardAlpha"/>
<feOffset dy="1"/>
<feGaussianBlur stdDeviation="5"/>
<feComposite in2="hardAlpha" operator="out"/>
<feColorMatrix type="matrix" values="0 0 0 0 0 0 0 0 0 0 0 0 0 0 0 0 0 0 0.1 0"/>
<feBlend mode="normal" in2="BackgroundImageFix" result="effect1_dropShadow_6199_113"/>
<feBlend mode="normal" in="BackgroundImageFix" in2="effect1_dropShadow_6199_113" result="BackgroundImageFix"/>
<feBlend mode="normal" in="SourceGraphic" in2="BackgroundImageFix" result="shape"/>
</filter>
<filter id="filter1_d_6199_113" x="0" y="0" width="225.98" height="135" filterUnits="userSpaceOnUse" color-interpolation-filters="sRGB">
<feFlood flood-opacity="0" result="BackgroundImageFix"/>
<feColorMatrix in="SourceAlpha" type="matrix" values="0 0 0 0 0 0 0 0 0 0 0 0 0 0 0 0 0 0 127 0" result="hardAlpha"/>
<feMorphology radius="12" operator="erode" in="SourceAlpha" result="effect1_dropShadow_6199_113"/>
<feOffset dy="25"/>
<feGaussianBlur stdDeviation="25"/>
<feComposite in2="hardAlpha" operator="out"/>
<feColorMatrix type="matrix" values="0 0 0 0 0 0 0 0 0 0 0 0 0 0 0 0 0 0 0.25 0"/>
<feBlend mode="normal" in2="BackgroundImageFix" result="effect1_dropShadow_6199_113"/>
<feBlend mode="normal" in="SourceGraphic" in2="effect1_dropShadow_6199_113" result="shape"/>
</filter>
</defs>
</svg>
