<svg width="300" height="230" viewBox="0 0 300 230" fill="none" xmlns="http://www.w3.org/2000/svg">
<g clip-path="url(#clip0_539_58)">
<path d="M300 0H0V230H300V0Z" fill="white"/>
<path d="M266.814 30H33.1858C24.7989 30 18 36.0346 18 43.4788V199.521C18 206.965 24.7989 213 33.1858 213H266.814C275.201 213 282 206.965 282 199.521V43.4788C282 36.0346 275.201 30 266.814 30Z" fill="url(#paint0_linear_539_58)"/>
<path d="M267.188 30.3086H32.8125C24.5606 30.3086 17.8711 36.7762 17.8711 44.7544V215.272C17.8711 223.25 24.5606 229.717 32.8125 229.717H267.188C275.439 229.717 282.129 223.25 282.129 215.272V44.7544C282.129 36.7762 275.439 30.3086 267.188 30.3086Z" stroke="url(#paint1_linear_539_58)" stroke-opacity="0.1"/>
<path d="M224.171 57.7841C224.171 58.6186 224.871 59.295 225.734 59.295C226.597 59.295 227.296 58.6186 227.296 57.7841C227.296 56.9497 226.597 56.2734 225.734 56.2734C224.871 56.2734 224.171 56.9497 224.171 57.7841ZM78.1488 57.7841C78.1488 58.6186 78.8484 59.295 79.7109 59.295C80.574 59.295 81.2736 58.6186 81.2736 57.7841C81.2736 56.9497 80.574 56.2734 79.7109 56.2734C78.8484 56.2734 78.1488 56.9497 78.1488 57.7841ZM244.922 63.4492H244.629V104.237H244.922H245.215V63.4492H244.922ZM229.688 118.966V118.683H70.8984V118.966V119.25H229.688V118.966ZM55.6641 104.237H55.957V63.4492H55.6641H55.3711V104.237H55.6641ZM225.734 57.7841V58.0674H239.062V57.7841V57.5009H225.734V57.7841ZM61.5234 57.7841V58.0674H79.7109V57.7841V57.5009H61.5234V57.7841ZM70.8984 118.966V118.683C62.6467 118.683 55.957 112.215 55.957 104.237H55.6641H55.3711C55.3711 112.529 62.3227 119.25 70.8984 119.25V118.966ZM244.922 104.237H244.629C244.629 112.215 237.939 118.683 229.688 118.683V118.966V119.25C238.263 119.25 245.215 112.529 245.215 104.237H244.922ZM244.922 63.4492H245.215C245.215 60.164 242.46 57.5009 239.062 57.5009V57.7841V58.0674C242.137 58.0674 244.629 60.4767 244.629 63.4492H244.922ZM55.6641 63.4492H55.957C55.957 60.4767 58.4492 58.0674 61.5234 58.0674V57.7841V57.5009C58.1256 57.5009 55.3711 60.164 55.3711 63.4492H55.6641Z" fill="black" fill-opacity="0.1"/>
<path d="M224.171 180.148C224.171 179.314 224.871 178.637 225.734 178.637C226.597 178.637 227.296 179.314 227.296 180.148C227.296 180.983 226.597 181.659 225.734 181.659C224.871 181.659 224.171 180.983 224.171 180.148ZM78.1488 180.148C78.1488 179.314 78.8484 178.637 79.7109 178.637C80.574 178.637 81.2736 179.314 81.2736 180.148C81.2736 180.983 80.574 181.659 79.7109 181.659C78.8484 181.659 78.1488 180.983 78.1488 180.148ZM244.922 174.483H244.629V139.926H244.922H245.215V174.483H244.922ZM229.688 125.197V125.481H70.8984V125.197V124.914H229.688V125.197ZM55.6641 139.926H55.957V174.483H55.6641H55.3711V139.926H55.6641ZM225.734 180.148V179.865H239.062V180.148V180.431H225.734V180.148ZM61.5234 180.148V179.865H79.7109V180.148V180.431H61.5234V180.148ZM70.8984 125.197V125.481C62.6467 125.481 55.957 131.948 55.957 139.926H55.6641H55.3711C55.3711 131.635 62.3227 124.914 70.8984 124.914V125.197ZM244.922 139.926H244.629C244.629 131.948 237.939 125.481 229.688 125.481V125.197V124.914C238.263 124.914 245.215 131.635 245.215 139.926H244.922ZM244.922 174.483H245.215C245.215 177.768 242.46 180.431 239.062 180.431V180.148V179.865C242.137 179.865 244.629 177.455 244.629 174.483H244.922ZM55.6641 174.483H55.957C55.957 177.455 58.4492 179.865 61.5234 179.865V180.148V180.431C58.1256 180.431 55.3711 177.768 55.3711 174.483H55.6641Z" fill="black" fill-opacity="0.1"/>
<path d="M252.539 45.8867H168.164C160.074 45.8867 153.516 52.2275 153.516 60.0493C153.516 67.871 160.074 74.2118 168.164 74.2118H252.539C260.629 74.2118 267.188 67.871 267.188 60.0493C267.188 52.2275 260.629 45.8867 252.539 45.8867Z" fill="white"/>
<path d="M252.539 46.1699H168.164C160.236 46.1699 153.809 52.3839 153.809 60.0492C153.809 67.7146 160.236 73.9285 168.164 73.9285H252.539C260.467 73.9285 266.895 67.7146 266.895 60.0492C266.895 52.3839 260.467 46.1699 252.539 46.1699Z" stroke="black" stroke-opacity="0.1"/>
<path d="M195.101 63.1652V56.7298H199.282V57.4911H195.504L195.907 57.0923V60.0472L195.504 59.6484H199.113V60.3916H195.504L195.907 59.9928V63.1652H195.101ZM200.335 63.1652V58.3613H201.122V63.1652H200.335ZM200.316 57.609V56.7207H201.141V57.609H200.316ZM202.715 63.1652V58.3613H203.437L203.465 59.5849L203.372 59.5034C203.434 59.2195 203.543 58.9867 203.7 58.8054C203.856 58.6179 204.043 58.4791 204.262 58.3885C204.487 58.2978 204.728 58.2525 204.984 58.2525C205.365 58.2525 205.678 58.3341 205.922 58.4973C206.171 58.6604 206.356 58.8808 206.475 59.1589C206.6 59.4309 206.662 59.7362 206.662 60.0744V63.1652H205.875V60.2919C205.875 59.9957 205.837 59.7481 205.762 59.5487C205.693 59.343 205.581 59.189 205.425 59.0864C205.268 58.9777 205.065 58.9233 204.815 58.9233C204.434 58.9233 204.118 59.0411 203.869 59.2768C203.625 59.5062 203.503 59.845 203.503 60.2919V63.1652H202.715ZM209.606 63.1652C209.156 63.1652 208.821 63.0655 208.603 62.8661C208.39 62.6667 208.284 62.3557 208.284 61.9325V57.2374H209.072V61.9144C209.072 62.1319 209.121 62.2832 209.222 62.3676C209.321 62.452 209.475 62.4945 209.681 62.4945H210.394V63.1652H209.606ZM207.553 59.032V58.3613H210.394V59.032H207.553ZM213.252 63.274C212.784 63.274 212.378 63.1715 212.034 62.9658C211.696 62.7602 211.434 62.4701 211.246 62.0957C211.065 61.715 210.974 61.2709 210.974 60.7633C210.974 60.2557 211.065 59.8144 211.246 59.4399C211.434 59.0655 211.693 58.7754 212.024 58.5698C212.362 58.3585 212.759 58.2525 213.215 58.2525C213.646 58.2525 214.028 58.3522 214.359 58.5516C214.69 58.7448 214.946 59.0292 215.127 59.4037C215.315 59.7781 215.409 60.2347 215.409 60.7723V60.9989H211.799C211.831 61.5127 211.971 61.8991 212.221 62.1591C212.478 62.4192 212.821 62.5489 213.252 62.5489C213.578 62.5489 213.843 62.4764 214.049 62.3313C214.262 62.1801 214.409 61.9841 214.49 61.7422L215.334 61.8056C215.202 62.2345 214.953 62.588 214.584 62.8661C214.221 63.138 213.777 63.274 213.252 63.274ZM211.799 60.3282H214.546C214.509 59.8631 214.368 59.5215 214.124 59.304C213.887 59.0864 213.584 58.9776 213.215 58.9776C212.834 58.9776 212.518 59.0927 212.268 59.3221C212.024 59.5459 211.868 59.8812 211.799 60.3282ZM218.416 63.274C217.954 63.274 217.551 63.1715 217.207 62.9658C216.869 62.7602 216.607 62.4701 216.419 62.0957C216.232 61.715 216.138 61.2709 216.138 60.7633C216.138 60.2557 216.232 59.8144 216.419 59.4399C216.607 59.0655 216.869 58.7754 217.207 58.5698C217.551 58.3585 217.954 58.2525 218.416 58.2525C218.798 58.2525 219.135 58.3188 219.429 58.4519C219.729 58.5788 219.972 58.7663 220.16 59.0139C220.347 59.2615 220.469 59.564 220.526 59.9203L219.701 59.9747C219.644 59.6546 219.501 59.4099 219.269 59.2405C219.038 59.0655 218.754 58.9776 218.416 58.9776C217.96 58.9776 217.604 59.138 217.347 59.458C217.091 59.7725 216.963 60.2075 216.963 60.7633C216.963 61.319 217.091 61.7575 217.347 62.0776C217.604 62.392 217.96 62.5489 218.416 62.5489C218.754 62.5489 219.038 62.4582 219.269 62.277C219.501 62.0957 219.644 61.8238 219.701 61.4612L220.526 61.5156C220.469 61.8719 220.347 62.1835 220.16 62.4492C219.972 62.7092 219.729 62.9114 219.429 63.0565C219.135 63.2015 218.798 63.274 218.416 63.274ZM221.502 63.1652V56.7298H222.289V59.4218L222.196 59.4037C222.258 59.138 222.364 58.9204 222.514 58.751C222.664 58.5817 222.849 58.4582 223.067 58.3794C223.286 58.295 223.527 58.2525 223.789 58.2525C224.146 58.2525 224.446 58.3313 224.689 58.4882C224.939 58.6394 225.127 58.8536 225.252 59.1317C225.383 59.4037 225.449 59.7181 225.449 60.0744V63.1652H224.661V60.2919C224.661 59.8268 224.574 59.4824 224.399 59.2586C224.23 59.0349 223.97 58.9233 223.621 58.9233C223.22 58.9233 222.899 59.0411 222.655 59.2768C222.411 59.5124 222.289 59.854 222.289 60.301V63.1652H221.502Z" fill="#1C1C22"/>
<path d="M130.664 45.8867H47.4609C39.3708 45.8867 32.8125 52.2275 32.8125 60.0493C32.8125 67.871 39.3708 74.2118 47.4609 74.2118H130.664C138.754 74.2118 145.312 67.871 145.312 60.0493C145.312 52.2275 138.754 45.8867 130.664 45.8867Z" fill="white"/>
<path d="M76.0992 63.3095C75.5865 63.3095 75.14 63.216 74.7586 63.0285C74.3771 62.841 74.0742 62.5844 73.8492 62.2581C73.6307 61.9255 73.5023 61.542 73.4648 61.1069L74.3086 61.0526C74.3525 61.3726 74.4492 61.6445 74.5992 61.8683C74.7492 62.0921 74.949 62.2609 75.1992 62.3759C75.4553 62.4909 75.7617 62.5481 76.118 62.5481C76.4303 62.5481 76.6963 62.509 76.9148 62.4303C77.1334 62.3515 77.2992 62.2371 77.4117 62.0859C77.5307 61.9346 77.5898 61.7505 77.5898 61.5329C77.5898 61.3335 77.54 61.1585 77.4398 61.0072C77.3461 60.8503 77.1615 60.7081 76.8867 60.5812C76.6178 60.4481 76.2182 60.3184 75.6867 60.1915C75.174 60.0646 74.765 59.9258 74.4586 59.7745C74.1586 59.6233 73.94 59.4392 73.8023 59.2216C73.6711 59.0041 73.6055 58.735 73.6055 58.4149C73.6055 58.0524 73.6928 57.7351 73.868 57.4632C74.049 57.185 74.3057 56.9709 74.6367 56.8196C74.9678 56.6627 75.3615 56.584 75.818 56.584C76.3055 56.584 76.7244 56.6746 77.0742 56.8559C77.424 57.031 77.7023 57.2728 77.9086 57.581C78.1148 57.8892 78.2432 58.2399 78.293 58.6325L77.4492 58.6868C77.4117 58.4268 77.3244 58.1974 77.1867 57.998C77.0555 57.7923 76.8744 57.6326 76.643 57.5176C76.4115 57.4026 76.1303 57.3454 75.7992 57.3454C75.3867 57.3454 75.0586 57.4422 74.8148 57.6354C74.5711 57.8229 74.4492 58.0705 74.4492 58.3787C74.4492 58.5781 74.4961 58.7441 74.5898 58.8772C74.69 59.0041 74.8646 59.1191 75.1148 59.2216C75.365 59.3185 75.7242 59.4239 76.193 59.5389C76.749 59.672 77.1897 59.8317 77.5148 60.0193C77.8459 60.2005 78.0803 60.4118 78.218 60.6537C78.3615 60.8956 78.4336 61.1704 78.4336 61.4786C78.4336 61.853 78.3334 62.1793 78.1336 62.4575C77.9338 62.7294 77.6584 62.9407 77.3086 63.092C76.9588 63.237 76.5557 63.3095 76.0992 63.3095ZM81.2859 63.1645C80.8359 63.1645 80.5014 63.0648 80.2828 62.8654C80.0701 62.666 79.9641 62.3549 79.9641 61.9318V57.2366H80.7516V61.9136C80.7516 62.1312 80.8014 62.2824 80.9016 62.3668C81.0012 62.4513 81.1547 62.4937 81.3609 62.4937H82.0734V63.1645H81.2859ZM79.2328 59.0313V58.3605H82.0734V59.0313H79.2328ZM84.3873 63.2732C83.8746 63.2732 83.4656 63.1582 83.1592 62.9288C82.8592 62.6994 82.7092 62.3787 82.7092 61.968C82.7092 61.5573 82.834 61.2338 83.0842 60.9982C83.3344 60.7625 83.7311 60.5965 84.2748 60.4996L86.0373 60.1824C86.0373 59.7774 85.9371 59.4754 85.7373 59.276C85.5434 59.0766 85.2498 58.9769 84.8561 58.9769C84.5121 58.9769 84.2402 59.0522 84.0404 59.2035C83.8406 59.3485 83.7029 59.5598 83.6279 59.838L82.7936 59.7745C82.8873 59.3213 83.1123 58.9559 83.4686 58.6778C83.8313 58.394 84.2936 58.2518 84.8561 58.2518C85.4936 58.2518 85.9811 58.4268 86.3186 58.7775C86.6561 59.1219 86.8248 59.5995 86.8248 60.2096V62.1946C86.8248 62.3034 86.8436 62.3821 86.8811 62.4303C86.925 62.4728 86.9936 62.4937 87.0873 62.4937H87.2842V63.1645C87.259 63.1707 87.2186 63.1735 87.1623 63.1735C87.1061 63.1798 87.0469 63.1826 86.9842 63.1826C86.7592 63.1826 86.5746 63.1492 86.4311 63.0829C86.2934 63.0104 86.1937 62.9016 86.1311 62.7566C86.0684 62.6053 86.0373 62.4093 86.0373 62.1674L86.1311 62.1856C86.0871 62.3912 85.9811 62.5781 85.8123 62.7475C85.6436 62.9107 85.4344 63.0404 85.1842 63.1373C84.934 63.2279 84.6686 63.2732 84.3873 63.2732ZM84.4623 62.6025C84.7934 62.6025 85.0746 62.5419 85.3061 62.4212C85.5434 62.2943 85.725 62.1249 85.8498 61.9136C85.9746 61.6961 86.0373 61.4542 86.0373 61.1885V60.8441L84.4248 61.1341C84.0873 61.1947 83.8529 61.2882 83.7217 61.4151C83.5969 61.5358 83.5342 61.6961 83.5342 61.8955C83.5342 62.1193 83.6156 62.2943 83.7779 62.4212C83.9467 62.5419 84.1746 62.6025 84.4623 62.6025ZM88.1736 63.1645V58.3605H88.8674L88.9049 59.5751L88.8299 59.5479C88.8926 59.1372 89.0268 58.8381 89.233 58.6506C89.4457 58.4574 89.727 58.3605 90.0768 58.3605H90.5643V59.0857H90.0861C89.8359 59.0857 89.6268 59.131 89.458 59.2216C89.2957 59.306 89.1703 59.4363 89.083 59.6114C89.0016 59.7808 88.9611 59.9983 88.9611 60.264V63.1645H88.1736ZM93.0779 63.1645C92.6279 63.1645 92.2934 63.0648 92.0748 62.8654C91.8621 62.666 91.7561 62.3549 91.7561 61.9318V57.2366H92.5436V61.9136C92.5436 62.1312 92.5934 62.2824 92.6936 62.3668C92.7932 62.4513 92.9467 62.4937 93.1529 62.4937H93.8654V63.1645H93.0779ZM91.0248 59.0313V58.3605H93.8654V59.0313H91.0248ZM96.5068 63.2732C96.0129 63.2732 95.6162 63.1129 95.3162 62.7929C95.0221 62.4665 94.8756 62.0196 94.8756 61.4514V58.3605H95.6631V61.2429C95.6631 61.708 95.7475 62.0524 95.9162 62.2762C96.0908 62.4937 96.3568 62.6025 96.7131 62.6025C97.1068 62.6025 97.4162 62.4818 97.6412 62.2399C97.8662 61.9924 97.9787 61.6536 97.9787 61.2248V58.3605H98.7662V63.1645H98.0162V61.9771L98.1381 62.0405C98.0379 62.4331 97.8475 62.7385 97.5662 62.956C97.285 63.1673 96.9316 63.2732 96.5068 63.2732ZM100.268 64.5241V58.3605H100.999L101.018 59.3938L100.905 59.3395C101.03 58.9831 101.237 58.714 101.524 58.5327C101.818 58.3452 102.155 58.2518 102.537 58.2518C103.03 58.2518 103.433 58.3696 103.746 58.6053C104.065 58.8409 104.299 59.1491 104.449 59.5298C104.605 59.9105 104.684 60.3212 104.684 60.7625C104.684 61.2038 104.605 61.6145 104.449 61.9952C104.299 62.3759 104.065 62.6841 103.746 62.9197C103.433 63.1554 103.03 63.2732 102.537 63.2732C102.28 63.2732 102.04 63.2308 101.815 63.1463C101.596 63.0619 101.408 62.9441 101.252 62.7929C101.102 62.6416 100.999 62.4637 100.943 62.2581L101.055 62.1312V64.5241H100.268ZM102.462 62.5481C102.893 62.5481 103.233 62.3912 103.484 62.0768C103.733 61.7624 103.859 61.3245 103.859 60.7625C103.859 60.2005 103.733 59.7626 103.484 59.4482C103.233 59.1338 102.893 58.9769 102.462 58.9769C102.174 58.9769 101.924 59.0432 101.712 59.1763C101.505 59.3094 101.343 59.5088 101.224 59.7745C101.112 60.0402 101.055 60.3699 101.055 60.7625C101.055 61.1551 101.112 61.4848 101.224 61.7505C101.337 62.0162 101.499 62.2156 101.712 62.3487C101.924 62.4818 102.174 62.5481 102.462 62.5481Z" fill="#1D1B21"/>
<path d="M252.539 169.951H168.164C160.074 169.951 153.516 176.292 153.516 184.114C153.516 191.935 160.074 198.276 168.164 198.276H252.539C260.629 198.276 267.188 191.935 267.188 184.114C267.188 176.292 260.629 169.951 252.539 169.951Z" fill="white"/>
<path d="M252.539 170.234H168.164C160.236 170.234 153.809 176.448 153.809 184.114C153.809 191.779 160.236 197.993 168.164 197.993H252.539C260.467 197.993 266.895 191.779 266.895 184.114C266.895 176.448 260.467 170.234 252.539 170.234Z" stroke="black" stroke-opacity="0.1"/>
<path d="M195.101 187.23V180.794H199.282V181.556H195.504L195.907 181.157V184.112L195.504 183.713H199.113V184.456H195.504L195.907 184.057V187.23H195.101ZM200.335 187.23V182.426H201.122V187.23H200.335ZM200.316 181.673V180.785H201.141V181.673H200.316ZM202.715 187.23V182.426H203.437L203.465 183.649L203.372 183.568C203.434 183.284 203.543 183.051 203.7 182.87C203.856 182.682 204.043 182.544 204.262 182.453C204.487 182.362 204.728 182.317 204.984 182.317C205.365 182.317 205.678 182.399 205.922 182.562C206.171 182.725 206.356 182.945 206.475 183.223C206.6 183.495 206.662 183.801 206.662 184.139V187.23H205.875V184.356C205.875 184.06 205.837 183.813 205.762 183.613C205.693 183.407 205.581 183.253 205.425 183.151C205.268 183.042 205.065 182.988 204.815 182.988C204.434 182.988 204.118 183.106 203.869 183.341C203.625 183.571 203.503 183.909 203.503 184.356V187.23H202.715ZM209.606 187.23C209.156 187.23 208.821 187.13 208.603 186.931C208.39 186.731 208.284 186.42 208.284 185.997V181.302H209.072V185.979C209.072 186.196 209.121 186.348 209.222 186.432C209.321 186.516 209.475 186.559 209.681 186.559H210.394V187.23H209.606ZM207.553 183.096V182.426H210.394V183.096H207.553ZM213.252 187.338C212.784 187.338 212.378 187.236 212.034 187.03C211.696 186.825 211.434 186.535 211.246 186.16C211.065 185.779 210.974 185.335 210.974 184.828C210.974 184.32 211.065 183.879 211.246 183.504C211.434 183.13 211.693 182.84 212.024 182.634C212.362 182.423 212.759 182.317 213.215 182.317C213.646 182.317 214.028 182.417 214.359 182.616C214.69 182.809 214.946 183.094 215.127 183.468C215.315 183.843 215.409 184.299 215.409 184.837V185.063H211.799C211.831 185.577 211.971 185.964 212.221 186.224C212.478 186.484 212.821 186.613 213.252 186.613C213.578 186.613 213.843 186.541 214.049 186.396C214.262 186.245 214.409 186.049 214.49 185.807L215.334 185.87C215.202 186.299 214.953 186.652 214.584 186.931C214.221 187.202 213.777 187.338 213.252 187.338ZM211.799 184.393H214.546C214.509 183.928 214.368 183.586 214.124 183.368C213.887 183.151 213.584 183.042 213.215 183.042C212.834 183.042 212.518 183.157 212.268 183.387C212.024 183.61 211.868 183.946 211.799 184.393ZM218.416 187.338C217.954 187.338 217.551 187.236 217.207 187.03C216.869 186.825 216.607 186.535 216.419 186.16C216.232 185.779 216.138 185.335 216.138 184.828C216.138 184.32 216.232 183.879 216.419 183.504C216.607 183.13 216.869 182.84 217.207 182.634C217.551 182.423 217.954 182.317 218.416 182.317C218.798 182.317 219.135 182.383 219.429 182.516C219.729 182.643 219.972 182.831 220.16 183.078C220.347 183.326 220.469 183.628 220.526 183.985L219.701 184.039C219.644 183.719 219.501 183.474 219.269 183.305C219.038 183.13 218.754 183.042 218.416 183.042C217.96 183.042 217.604 183.202 217.347 183.522C217.091 183.837 216.963 184.272 216.963 184.828C216.963 185.383 217.091 185.822 217.347 186.142C217.604 186.456 217.96 186.613 218.416 186.613C218.754 186.613 219.038 186.523 219.269 186.341C219.501 186.16 219.644 185.888 219.701 185.526L220.526 185.58C220.469 185.936 220.347 186.248 220.16 186.514C219.972 186.774 219.729 186.976 219.429 187.121C219.135 187.266 218.798 187.338 218.416 187.338ZM221.502 187.23V180.794H222.289V183.486L222.196 183.468C222.258 183.202 222.364 182.985 222.514 182.816C222.664 182.646 222.849 182.523 223.067 182.444C223.286 182.359 223.527 182.317 223.789 182.317C224.146 182.317 224.446 182.396 224.689 182.553C224.939 182.704 225.127 182.918 225.252 183.196C225.383 183.468 225.449 183.783 225.449 184.139V187.23H224.661V184.356C224.661 183.891 224.574 183.547 224.399 183.323C224.23 183.099 223.97 182.988 223.621 182.988C223.22 182.988 222.899 183.106 222.655 183.341C222.411 183.577 222.289 183.918 222.289 184.365V187.23H221.502Z" fill="#1C1C22"/>
<path d="M130.664 169.951H47.4609C39.3708 169.951 32.8125 176.292 32.8125 184.114C32.8125 191.935 39.3708 198.276 47.4609 198.276H130.664C138.754 198.276 145.312 191.935 145.312 184.114C145.312 176.292 138.754 169.951 130.664 169.951Z" fill="white"/>
<path d="M130.664 170.234H47.4609C39.5326 170.234 33.1055 176.448 33.1055 184.114C33.1055 191.779 39.5326 197.993 47.4609 197.993H130.664C138.592 197.993 145.02 191.779 145.02 184.114C145.02 176.448 138.592 170.234 130.664 170.234Z" stroke="black" stroke-opacity="0.1"/>
<path d="M72.5508 187.229L74.9508 180.793H76.0383L78.4383 187.229H77.557L76.8914 185.398H74.0977L73.432 187.229H72.5508ZM74.3695 184.637H76.6195L75.4945 181.473L74.3695 184.637ZM80.1674 187.229C79.8797 187.229 79.6453 187.156 79.4643 187.011C79.2832 186.866 79.1924 186.637 79.1924 186.323V180.793H79.9799V186.259C79.9799 186.356 80.0051 186.431 80.0549 186.486C80.1111 186.534 80.1891 186.558 80.2893 186.558H80.7205V187.229H80.1674ZM86.4357 187.374C85.923 187.374 85.476 187.28 85.0951 187.093C84.7137 186.905 84.4107 186.649 84.1857 186.323C83.9666 185.99 83.8389 185.606 83.8014 185.171L84.6451 185.117C84.6885 185.437 84.7857 185.709 84.9357 185.933C85.0857 186.157 85.2855 186.325 85.5357 186.44C85.7918 186.555 86.0982 186.613 86.4545 186.613C86.7668 186.613 87.0322 186.573 87.2514 186.495C87.4699 186.416 87.6357 186.302 87.7482 186.15C87.8666 185.999 87.9264 185.815 87.9264 185.597C87.9264 185.398 87.876 185.223 87.7764 185.072C87.6826 184.915 87.498 184.773 87.2232 184.646C86.9543 184.513 86.5541 184.383 86.0232 184.256C85.5105 184.129 85.101 183.99 84.7951 183.839C84.4951 183.688 84.276 183.504 84.1389 183.286C84.0076 183.069 83.942 182.799 83.942 182.479C83.942 182.117 84.0293 181.8 84.2045 181.528C84.3855 181.249 84.6416 181.035 84.9732 180.884C85.3043 180.727 85.698 180.648 86.1545 180.648C86.642 180.648 87.0604 180.739 87.4107 180.92C87.7605 181.095 88.0389 181.337 88.2451 181.645C88.4514 181.954 88.5791 182.304 88.6295 182.697L87.7857 182.751C87.7482 182.491 87.6604 182.262 87.5232 182.062C87.392 181.857 87.2104 181.697 86.9795 181.582C86.7481 181.467 86.4668 181.41 86.1357 181.41C85.7232 181.41 85.3951 181.507 85.1514 181.7C84.9076 181.887 84.7857 182.135 84.7857 182.443C84.7857 182.643 84.8326 182.809 84.9264 182.942C85.026 183.069 85.2012 183.184 85.4514 183.286C85.701 183.383 86.0607 183.488 86.5295 183.603C87.0855 183.736 87.5262 183.896 87.8514 184.084C88.1824 184.265 88.4168 184.476 88.5545 184.718C88.698 184.96 88.7701 185.235 88.7701 185.543C88.7701 185.917 88.6699 186.244 88.4701 186.522C88.2697 186.794 87.9949 187.005 87.6451 187.156C87.2947 187.301 86.8916 187.374 86.4357 187.374ZM91.4643 187.338C90.9521 187.338 90.5426 187.223 90.2361 186.993C89.9361 186.764 89.7861 186.443 89.7861 186.032C89.7861 185.622 89.9115 185.298 90.1611 185.063C90.4113 184.827 90.808 184.661 91.3518 184.564L93.1143 184.247C93.1143 183.842 93.0146 183.54 92.8143 183.34C92.6209 183.141 92.3268 183.041 91.933 183.041C91.5896 183.041 91.3178 183.117 91.1174 183.268C90.9176 183.413 90.7799 183.624 90.7049 183.902L89.8705 183.839C89.9643 183.386 90.1893 183.02 90.5455 182.742C90.9082 182.458 91.3705 182.316 91.933 182.316C92.5705 182.316 93.058 182.491 93.3955 182.842C93.733 183.186 93.9018 183.664 93.9018 184.274V186.259C93.9018 186.368 93.9205 186.447 93.958 186.495C94.002 186.537 94.0705 186.558 94.1643 186.558H94.3611V187.229C94.3365 187.235 94.2955 187.238 94.2393 187.238C94.183 187.244 94.1238 187.247 94.0611 187.247C93.8361 187.247 93.6522 187.214 93.508 187.147C93.3709 187.075 93.2707 186.966 93.208 186.821C93.1459 186.67 93.1143 186.474 93.1143 186.232L93.208 186.25C93.1646 186.456 93.058 186.643 92.8893 186.812C92.7205 186.975 92.5113 187.105 92.2611 187.202C92.0115 187.292 91.7455 187.338 91.4643 187.338ZM91.5393 186.667C91.8709 186.667 92.1522 186.606 92.383 186.486C92.6209 186.359 92.802 186.189 92.9268 185.978C93.0521 185.761 93.1143 185.519 93.1143 185.253V184.909L91.5018 185.199C91.1643 185.259 90.9299 185.353 90.7986 185.48C90.6738 185.6 90.6111 185.761 90.6111 185.96C90.6111 186.184 90.6926 186.359 90.8549 186.486C91.0236 186.606 91.2522 186.667 91.5393 186.667ZM96.6281 187.338C96.1154 187.338 95.7059 187.223 95.4 186.993C95.1 186.764 94.95 186.443 94.95 186.032C94.95 185.622 95.0748 185.298 95.325 185.063C95.5746 184.827 95.9719 184.661 96.5156 184.564L98.2781 184.247C98.2781 183.842 98.1779 183.54 97.9781 183.34C97.7842 183.141 97.4906 183.041 97.0969 183.041C96.7529 183.041 96.4811 183.117 96.2813 183.268C96.0809 183.413 95.9437 183.624 95.8687 183.902L95.0344 183.839C95.1281 183.386 95.3531 183.02 95.7094 182.742C96.0715 182.458 96.5344 182.316 97.0969 182.316C97.7344 182.316 98.2219 182.491 98.5594 182.842C98.8969 183.186 99.0656 183.664 99.0656 184.274V186.259C99.0656 186.368 99.0844 186.447 99.1219 186.495C99.1652 186.537 99.2344 186.558 99.3281 186.558H99.525V187.229C99.4998 187.235 99.4594 187.238 99.4031 187.238C99.3469 187.244 99.2871 187.247 99.225 187.247C99 187.247 98.8154 187.214 98.6719 187.147C98.5342 187.075 98.434 186.966 98.3719 186.821C98.3092 186.67 98.2781 186.474 98.2781 186.232L98.3719 186.25C98.3279 186.456 98.2219 186.643 98.0531 186.812C97.8844 186.975 97.6746 187.105 97.425 187.202C97.1748 187.292 96.9094 187.338 96.6281 187.338ZM96.7031 186.667C97.0342 186.667 97.3154 186.606 97.5469 186.486C97.7842 186.359 97.9652 186.189 98.0906 185.978C98.2154 185.761 98.2781 185.519 98.2781 185.253V184.909L96.6656 185.199C96.3281 185.259 96.0938 185.353 95.9625 185.48C95.8371 185.6 95.775 185.761 95.775 185.96C95.775 186.184 95.8559 186.359 96.0187 186.486C96.1875 186.606 96.4154 186.667 96.7031 186.667ZM102.851 187.374C102.339 187.374 101.892 187.28 101.51 187.093C101.129 186.905 100.826 186.649 100.601 186.323C100.382 185.99 100.254 185.606 100.216 185.171L101.06 185.117C101.104 185.437 101.201 185.709 101.351 185.933C101.501 186.157 101.701 186.325 101.951 186.44C102.207 186.555 102.513 186.613 102.87 186.613C103.182 186.613 103.448 186.573 103.666 186.495C103.886 186.416 104.051 186.302 104.163 186.15C104.282 185.999 104.341 185.815 104.341 185.597C104.341 185.398 104.292 185.223 104.191 185.072C104.098 184.915 103.914 184.773 103.638 184.646C103.37 184.513 102.97 184.383 102.438 184.256C101.926 184.129 101.517 183.99 101.21 183.839C100.91 183.688 100.692 183.504 100.554 183.286C100.423 183.069 100.357 182.799 100.357 182.479C100.357 182.117 100.445 181.8 100.62 181.528C100.801 181.249 101.057 181.035 101.388 180.884C101.72 180.727 102.114 180.648 102.57 180.648C103.057 180.648 103.476 180.739 103.826 180.92C104.176 181.095 104.454 181.337 104.66 181.645C104.866 181.954 104.995 182.304 105.045 182.697L104.201 182.751C104.163 182.491 104.076 182.262 103.938 182.062C103.807 181.857 103.626 181.697 103.395 181.582C103.164 181.467 102.882 181.41 102.551 181.41C102.138 181.41 101.81 181.507 101.566 181.7C101.323 181.887 101.201 182.135 101.201 182.443C101.201 182.643 101.248 182.809 101.341 182.942C101.442 183.069 101.617 183.184 101.866 183.286C102.117 183.383 102.476 183.488 102.945 183.603C103.501 183.736 103.942 183.896 104.266 184.084C104.598 184.265 104.832 184.476 104.97 184.718C105.114 184.96 105.185 185.235 105.185 185.543C105.185 185.917 105.086 186.244 104.885 186.522C104.685 186.794 104.411 187.005 104.06 187.156C103.71 187.301 103.307 187.374 102.851 187.374Z" fill="#1C1C22"/>
<path d="M181.641 109.902H119.531C113.383 109.902 108.398 114.721 108.398 120.666C108.398 126.61 113.383 131.429 119.531 131.429H181.641C187.789 131.429 192.773 126.61 192.773 120.666C192.773 114.721 187.789 109.902 181.641 109.902Z" fill="#1E1C22"/>
<path d="M120.598 123.78L122.998 117.345H124.085L126.485 123.78H125.604L124.938 121.95H122.145L121.479 123.78H120.598ZM122.416 121.188H124.666L123.541 118.025L122.416 121.188ZM127.239 123.78V118.977H128.027V123.78H127.239ZM127.221 118.224V117.336H128.046V118.224H127.221ZM133.137 123.78L131.328 118.977H132.19L133.634 123.001L135.078 118.977H135.94L134.131 123.78H133.137ZM138.592 123.889C138.135 123.889 137.735 123.787 137.392 123.581C137.048 123.375 136.782 123.085 136.595 122.711C136.407 122.33 136.314 121.886 136.314 121.378C136.314 120.865 136.407 120.421 136.595 120.046C136.782 119.672 137.048 119.382 137.392 119.176C137.735 118.97 138.135 118.868 138.592 118.868C139.048 118.868 139.445 118.97 139.782 119.176C140.126 119.382 140.392 119.672 140.579 120.046C140.767 120.421 140.861 120.865 140.861 121.378C140.861 121.886 140.767 122.33 140.579 122.711C140.392 123.085 140.126 123.375 139.782 123.581C139.445 123.787 139.048 123.889 138.592 123.889ZM138.592 123.164C139.048 123.164 139.401 123.007 139.651 122.693C139.907 122.373 140.036 121.934 140.036 121.378C140.036 120.823 139.907 120.388 139.651 120.073C139.401 119.753 139.048 119.593 138.592 119.593C138.135 119.593 137.779 119.753 137.523 120.073C137.266 120.388 137.138 120.823 137.138 121.378C137.138 121.934 137.266 122.373 137.523 122.693C137.779 123.007 138.135 123.164 138.592 123.164ZM141.933 123.78V118.977H142.721V123.78H141.933ZM141.915 118.224V117.336H142.74V118.224H141.915ZM146.071 123.889C145.609 123.889 145.206 123.787 144.862 123.581C144.524 123.375 144.262 123.085 144.074 122.711C143.887 122.33 143.793 121.886 143.793 121.378C143.793 120.871 143.887 120.43 144.074 120.055C144.262 119.681 144.524 119.391 144.862 119.185C145.206 118.974 145.609 118.868 146.071 118.868C146.453 118.868 146.79 118.934 147.084 119.067C147.384 119.194 147.628 119.382 147.815 119.629C148.003 119.877 148.124 120.179 148.181 120.536L147.356 120.59C147.299 120.27 147.156 120.025 146.924 119.856C146.693 119.681 146.409 119.593 146.071 119.593C145.615 119.593 145.259 119.753 145.003 120.073C144.746 120.388 144.618 120.823 144.618 121.378C144.618 121.934 144.746 122.373 145.003 122.693C145.259 123.007 145.615 123.164 146.071 123.164C146.409 123.164 146.693 123.073 146.924 122.892C147.156 122.711 147.299 122.439 147.356 122.076L148.181 122.131C148.124 122.487 148.003 122.799 147.815 123.064C147.628 123.324 147.384 123.527 147.084 123.672C146.79 123.817 146.453 123.889 146.071 123.889ZM151.097 123.889C150.629 123.889 150.223 123.787 149.879 123.581C149.541 123.375 149.279 123.085 149.091 122.711C148.91 122.33 148.819 121.886 148.819 121.378C148.819 120.871 148.91 120.43 149.091 120.055C149.279 119.681 149.538 119.391 149.869 119.185C150.207 118.974 150.604 118.868 151.06 118.868C151.491 118.868 151.873 118.967 152.204 119.167C152.535 119.36 152.791 119.644 152.972 120.019C153.16 120.393 153.254 120.85 153.254 121.388V121.614H149.644C149.676 122.128 149.817 122.514 150.066 122.774C150.323 123.034 150.666 123.164 151.097 123.164C151.423 123.164 151.688 123.092 151.894 122.947C152.107 122.795 152.254 122.599 152.335 122.357L153.179 122.421C153.047 122.85 152.798 123.203 152.429 123.481C152.067 123.753 151.622 123.889 151.097 123.889ZM149.644 120.943H152.391C152.354 120.478 152.213 120.137 151.969 119.919C151.732 119.702 151.429 119.593 151.06 119.593C150.679 119.593 150.363 119.708 150.113 119.937C149.869 120.161 149.713 120.496 149.644 120.943ZM158.096 123.889C157.584 123.889 157.175 123.774 156.868 123.545C156.568 123.315 156.418 122.995 156.418 122.584C156.418 122.173 156.543 121.85 156.793 121.614C157.044 121.378 157.44 121.213 157.984 121.116L159.746 120.798C159.746 120.393 159.646 120.091 159.446 119.892C159.253 119.693 158.959 119.593 158.565 119.593C158.221 119.593 157.949 119.668 157.75 119.819C157.55 119.965 157.412 120.176 157.337 120.454L156.503 120.391C156.596 119.937 156.821 119.572 157.178 119.294C157.54 119.01 158.003 118.868 158.565 118.868C159.203 118.868 159.69 119.043 160.028 119.393C160.365 119.738 160.534 120.215 160.534 120.826V122.811C160.534 122.919 160.553 122.998 160.59 123.046C160.634 123.089 160.703 123.11 160.796 123.11H160.993V123.78C160.968 123.787 160.928 123.79 160.871 123.79C160.815 123.796 160.756 123.799 160.693 123.799C160.468 123.799 160.284 123.765 160.14 123.699C160.003 123.626 159.903 123.518 159.84 123.373C159.778 123.221 159.746 123.025 159.746 122.783L159.84 122.802C159.796 123.007 159.69 123.194 159.521 123.364C159.353 123.527 159.144 123.656 158.893 123.753C158.643 123.844 158.378 123.889 158.096 123.889ZM158.171 123.219C158.503 123.219 158.784 123.158 159.015 123.037C159.253 122.91 159.434 122.741 159.559 122.53C159.684 122.312 159.746 122.07 159.746 121.805V121.46L158.134 121.75C157.796 121.811 157.562 121.904 157.431 122.031C157.306 122.152 157.243 122.312 157.243 122.512C157.243 122.735 157.325 122.91 157.487 123.037C157.656 123.158 157.884 123.219 158.171 123.219ZM163.749 125.249C163.393 125.249 163.07 125.192 162.783 125.077C162.496 124.962 162.255 124.798 162.062 124.587C161.868 124.376 161.736 124.131 161.668 123.853L162.493 123.799C162.568 124.022 162.699 124.197 162.887 124.324C163.08 124.457 163.368 124.524 163.749 124.524C164.199 124.524 164.542 124.436 164.78 124.261C165.024 124.086 165.146 123.823 165.146 123.472V122.693C165.027 122.947 164.837 123.149 164.574 123.3C164.312 123.451 164.017 123.527 163.693 123.527C163.274 123.527 162.899 123.427 162.568 123.228C162.243 123.028 161.987 122.753 161.799 122.403C161.617 122.052 161.527 121.65 161.527 121.197C161.527 120.738 161.617 120.336 161.799 119.992C161.98 119.641 162.23 119.366 162.549 119.167C162.874 118.967 163.243 118.868 163.655 118.868C164.005 118.868 164.317 118.947 164.593 119.103C164.874 119.26 165.071 119.472 165.183 119.738V118.977H165.933V123.454C165.933 123.829 165.846 124.149 165.671 124.415C165.496 124.687 165.246 124.893 164.921 125.031C164.596 125.176 164.205 125.249 163.749 125.249ZM163.73 122.802C164.155 122.802 164.496 122.659 164.752 122.376C165.008 122.086 165.139 121.693 165.146 121.197C165.152 120.865 165.096 120.581 164.977 120.345C164.865 120.103 164.699 119.919 164.48 119.792C164.268 119.659 164.017 119.593 163.73 119.593C163.293 119.593 162.952 119.738 162.708 120.028C162.471 120.312 162.352 120.702 162.352 121.197C162.352 121.693 162.474 122.086 162.718 122.376C162.967 122.659 163.305 122.802 163.73 122.802ZM169.28 123.889C168.812 123.889 168.405 123.787 168.062 123.581C167.724 123.375 167.462 123.085 167.274 122.711C167.092 122.33 167.002 121.886 167.002 121.378C167.002 120.871 167.092 120.43 167.274 120.055C167.462 119.681 167.72 119.391 168.052 119.185C168.39 118.974 168.786 118.868 169.243 118.868C169.674 118.868 170.055 118.967 170.387 119.167C170.718 119.36 170.974 119.644 171.155 120.019C171.343 120.393 171.437 120.85 171.437 121.388V121.614H167.827C167.858 122.128 167.999 122.514 168.249 122.774C168.505 123.034 168.849 123.164 169.28 123.164C169.605 123.164 169.871 123.092 170.077 122.947C170.289 122.795 170.436 122.599 170.518 122.357L171.362 122.421C171.23 122.85 170.98 123.203 170.612 123.481C170.249 123.753 169.805 123.889 169.28 123.889ZM167.827 120.943H170.574C170.537 120.478 170.396 120.137 170.152 119.919C169.914 119.702 169.611 119.593 169.243 119.593C168.861 119.593 168.546 119.708 168.296 119.937C168.052 120.161 167.896 120.496 167.827 120.943ZM172.503 123.78V118.977H173.225L173.253 120.2L173.159 120.119C173.222 119.835 173.331 119.602 173.487 119.421C173.644 119.233 173.831 119.094 174.05 119.004C174.275 118.913 174.516 118.868 174.772 118.868C175.153 118.868 175.465 118.949 175.709 119.112C175.959 119.276 176.143 119.496 176.262 119.774C176.387 120.046 176.45 120.351 176.45 120.69V123.78H175.662V120.907C175.662 120.611 175.625 120.363 175.55 120.164C175.481 119.958 175.369 119.804 175.212 119.702C175.056 119.593 174.853 119.538 174.603 119.538C174.221 119.538 173.906 119.656 173.656 119.892C173.412 120.121 173.29 120.46 173.29 120.907V123.78H172.503ZM179.394 123.78C178.944 123.78 178.61 123.681 178.39 123.481C178.178 123.282 178.072 122.971 178.072 122.548V117.853H178.859V122.53C178.859 122.747 178.91 122.898 179.009 122.983C179.109 123.067 179.262 123.11 179.469 123.11H180.181V123.78H179.394ZM177.34 119.647V118.977H180.181V119.647H177.34Z" fill="white"/>
<path d="M20.4177 19.0864C21.9859 19.0864 23.2572 17.8573 23.2572 16.3411C23.2572 14.8248 21.9859 13.5957 20.4177 13.5957C18.8494 13.5957 17.5781 14.8248 17.5781 16.3411C17.5781 17.8573 18.8494 19.0864 20.4177 19.0864Z" fill="#98989A"/>
<path d="M27.8547 19.0864C29.4229 19.0864 30.6942 17.8573 30.6942 16.3411C30.6942 14.8248 29.4229 13.5957 27.8547 13.5957C26.2864 13.5957 25.0151 14.8248 25.0151 16.3411C25.0151 17.8573 26.2864 19.0864 27.8547 19.0864Z" fill="#B8B8B8"/>
<path d="M35.2917 19.0864C36.8599 19.0864 38.1312 17.8573 38.1312 16.3411C38.1312 14.8248 36.8599 13.5957 35.2917 13.5957C33.7235 13.5957 32.4521 14.8248 32.4521 16.3411C32.4521 17.8573 33.7235 19.0864 35.2917 19.0864Z" fill="#D9D9D9"/>
<rect width="70" height="20" transform="translate(53 51)" fill="white"/>
<path d="M68.3864 60H67.6818C67.6402 59.7973 67.5672 59.6193 67.4631 59.4659C67.3608 59.3125 67.2358 59.1837 67.0881 59.0795C66.9422 58.9735 66.7803 58.8939 66.6023 58.8409C66.4242 58.7879 66.2386 58.7614 66.0455 58.7614C65.6932 58.7614 65.3741 58.8504 65.0881 59.0284C64.804 59.2064 64.5777 59.4688 64.4091 59.8153C64.2424 60.1619 64.1591 60.5871 64.1591 61.0909C64.1591 61.5947 64.2424 62.0199 64.4091 62.3665C64.5777 62.7131 64.804 62.9754 65.0881 63.1534C65.3741 63.3314 65.6932 63.4205 66.0455 63.4205C66.2386 63.4205 66.4242 63.3939 66.6023 63.3409C66.7803 63.2879 66.9422 63.2093 67.0881 63.1051C67.2358 62.9991 67.3608 62.8693 67.4631 62.7159C67.5672 62.5606 67.6402 62.3826 67.6818 62.1818H68.3864C68.3333 62.4792 68.2367 62.7453 68.0966 62.9801C67.9564 63.215 67.7822 63.4148 67.5739 63.5795C67.3655 63.7424 67.1316 63.8665 66.8722 63.9517C66.6146 64.0369 66.339 64.0795 66.0455 64.0795C65.5492 64.0795 65.108 63.9583 64.7216 63.7159C64.3352 63.4735 64.0313 63.1288 63.8097 62.6818C63.5881 62.2348 63.4773 61.7045 63.4773 61.0909C63.4773 60.4773 63.5881 59.947 63.8097 59.5C64.0313 59.053 64.3352 58.7083 64.7216 58.4659C65.108 58.2235 65.5492 58.1023 66.0455 58.1023C66.339 58.1023 66.6146 58.1449 66.8722 58.2301C67.1316 58.3153 67.3655 58.4403 67.5739 58.6051C67.7822 58.768 67.9564 58.9669 68.0966 59.2017C68.2367 59.4347 68.3333 59.7008 68.3864 60ZM71.2067 64.0909C70.8127 64.0909 70.4671 63.9972 70.1697 63.8097C69.8743 63.6222 69.6432 63.3598 69.4766 63.0227C69.3118 62.6856 69.2294 62.2917 69.2294 61.8409C69.2294 61.3864 69.3118 60.9896 69.4766 60.6506C69.6432 60.3116 69.8743 60.0483 70.1697 59.8608C70.4671 59.6733 70.8127 59.5795 71.2067 59.5795C71.6006 59.5795 71.9453 59.6733 72.2408 59.8608C72.5381 60.0483 72.7692 60.3116 72.9339 60.6506C73.1006 60.9896 73.1839 61.3864 73.1839 61.8409C73.1839 62.2917 73.1006 62.6856 72.9339 63.0227C72.7692 63.3598 72.5381 63.6222 72.2408 63.8097C71.9453 63.9972 71.6006 64.0909 71.2067 64.0909ZM71.2067 63.4886C71.5059 63.4886 71.7521 63.4119 71.9453 63.2585C72.1385 63.1051 72.2815 62.9034 72.3743 62.6534C72.4671 62.4034 72.5135 62.1326 72.5135 61.8409C72.5135 61.5492 72.4671 61.2775 72.3743 61.0256C72.2815 60.7737 72.1385 60.5701 71.9453 60.4148C71.7521 60.2595 71.5059 60.1818 71.2067 60.1818C70.9074 60.1818 70.6612 60.2595 70.468 60.4148C70.2749 60.5701 70.1319 60.7737 70.0391 61.0256C69.9463 61.2775 69.8999 61.5492 69.8999 61.8409C69.8999 62.1326 69.9463 62.4034 70.0391 62.6534C70.1319 62.9034 70.2749 63.1051 70.468 63.2585C70.6612 63.4119 70.9074 63.4886 71.2067 63.4886ZM74.8778 61.375V64H74.2074V59.6364H74.8551V60.3182H74.9119C75.0142 60.0966 75.1695 59.9186 75.3778 59.7841C75.5862 59.6477 75.8551 59.5795 76.1847 59.5795C76.4801 59.5795 76.7386 59.6402 76.9602 59.7614C77.1818 59.8807 77.3542 60.0625 77.4773 60.3068C77.6004 60.5492 77.6619 60.8561 77.6619 61.2273V64H76.9915V61.2727C76.9915 60.9299 76.9025 60.6629 76.7244 60.4716C76.5464 60.2784 76.3021 60.1818 75.9915 60.1818C75.7775 60.1818 75.5862 60.2282 75.4176 60.321C75.2509 60.4138 75.1193 60.5492 75.0227 60.7273C74.9261 60.9053 74.8778 61.1212 74.8778 61.375ZM82.299 59.6364L80.6854 64H80.0036L78.3899 59.6364H79.1172L80.3217 63.1136H80.3672L81.5717 59.6364H82.299ZM84.8572 64.0909C84.4368 64.0909 84.0741 63.9981 83.7692 63.8125C83.4661 63.625 83.2322 63.3636 83.0675 63.0284C82.9046 62.6913 82.8232 62.2992 82.8232 61.8523C82.8232 61.4053 82.9046 61.0114 83.0675 60.6705C83.2322 60.3277 83.4614 60.0606 83.755 59.8693C84.0504 59.6761 84.3951 59.5795 84.7891 59.5795C85.0163 59.5795 85.2408 59.6174 85.4624 59.6932C85.6839 59.7689 85.8857 59.892 86.0675 60.0625C86.2493 60.2311 86.3942 60.4545 86.5021 60.733C86.6101 61.0114 86.6641 61.3542 86.6641 61.7614V62.0455H83.3004V61.4659H85.9822C85.9822 61.2197 85.933 61 85.8345 60.8068C85.7379 60.6136 85.5997 60.4612 85.4197 60.3494C85.2417 60.2377 85.0315 60.1818 84.7891 60.1818C84.522 60.1818 84.291 60.2481 84.0959 60.3807C83.9027 60.5114 83.754 60.6818 83.6499 60.892C83.5457 61.1023 83.4936 61.3277 83.4936 61.5682V61.9545C83.4936 62.2841 83.5504 62.5634 83.6641 62.7926C83.7796 63.0199 83.9396 63.1932 84.1442 63.3125C84.3487 63.4299 84.5864 63.4886 84.8572 63.4886C85.0334 63.4886 85.1925 63.464 85.3345 63.4148C85.4785 63.3636 85.6025 63.2879 85.7067 63.1875C85.8108 63.0852 85.8913 62.9583 85.9482 62.8068L86.5959 62.9886C86.5277 63.2083 86.4131 63.4015 86.2521 63.5682C86.0911 63.733 85.8923 63.8617 85.6555 63.9545C85.4188 64.0455 85.1527 64.0909 84.8572 64.0909ZM87.6839 64V59.6364H88.3317V60.2955H88.3771C88.4567 60.0795 88.6006 59.9044 88.8089 59.7699C89.0173 59.6354 89.2521 59.5682 89.5135 59.5682C89.5627 59.5682 89.6243 59.5691 89.6982 59.571C89.772 59.5729 89.8279 59.5758 89.8658 59.5795V60.2614C89.843 60.2557 89.791 60.2472 89.7095 60.2358C89.63 60.2225 89.5457 60.2159 89.4567 60.2159C89.2446 60.2159 89.0552 60.2604 88.8885 60.3494C88.7237 60.4366 88.593 60.5578 88.4964 60.7131C88.4018 60.8665 88.3544 61.0417 88.3544 61.2386V64H87.6839ZM93.7514 60.6136L93.1491 60.7841C93.1113 60.6837 93.0554 60.5862 92.9815 60.4915C92.9096 60.3949 92.8111 60.3153 92.6861 60.2528C92.5611 60.1903 92.401 60.1591 92.206 60.1591C91.9389 60.1591 91.7164 60.2206 91.5384 60.3438C91.3622 60.465 91.2741 60.6193 91.2741 60.8068C91.2741 60.9735 91.3348 61.1051 91.456 61.2017C91.5772 61.2983 91.7666 61.3788 92.0241 61.4432L92.6719 61.6023C93.062 61.697 93.3527 61.8419 93.544 62.0369C93.7353 62.2301 93.831 62.4792 93.831 62.7841C93.831 63.0341 93.759 63.2576 93.6151 63.4545C93.473 63.6515 93.2741 63.8068 93.0185 63.9205C92.7628 64.0341 92.4654 64.0909 92.1264 64.0909C91.6813 64.0909 91.313 63.9943 91.0213 63.8011C90.7296 63.608 90.545 63.3258 90.4673 62.9545L91.1037 62.7955C91.1643 63.0303 91.2789 63.2064 91.4474 63.3239C91.6179 63.4413 91.8404 63.5 92.1151 63.5C92.4276 63.5 92.6757 63.4337 92.8594 63.3011C93.045 63.1667 93.1378 63.0057 93.1378 62.8182C93.1378 62.6667 93.0848 62.5398 92.9787 62.4375C92.8726 62.3333 92.7098 62.2557 92.4901 62.2045L91.7628 62.0341C91.3632 61.9394 91.0696 61.7926 90.8821 61.5938C90.6965 61.393 90.6037 61.142 90.6037 60.8409C90.6037 60.5947 90.6728 60.3769 90.8111 60.1875C90.9512 59.9981 91.1416 59.8494 91.3821 59.7415C91.6245 59.6335 91.8991 59.5795 92.206 59.5795C92.6378 59.5795 92.9768 59.6742 93.223 59.8636C93.4711 60.053 93.6473 60.303 93.7514 60.6136ZM96.1243 64.1023C95.8478 64.1023 95.5968 64.0502 95.3714 63.946C95.1461 63.84 94.9671 63.6875 94.8345 63.4886C94.7019 63.2879 94.6357 63.0455 94.6357 62.7614C94.6357 62.5114 94.6849 62.3087 94.7834 62.1534C94.8819 61.9962 95.0135 61.8731 95.1783 61.7841C95.343 61.6951 95.5249 61.6288 95.7237 61.5852C95.9245 61.5398 96.1262 61.5038 96.3288 61.4773C96.594 61.4432 96.8089 61.4176 96.9737 61.4006C97.1404 61.3816 97.2616 61.3504 97.3374 61.3068C97.415 61.2633 97.4538 61.1875 97.4538 61.0795V61.0568C97.4538 60.7765 97.3771 60.5587 97.2237 60.4034C97.0722 60.2481 96.8421 60.1705 96.5334 60.1705C96.2133 60.1705 95.9624 60.2405 95.7805 60.3807C95.5987 60.5208 95.4709 60.6705 95.397 60.8295L94.7607 60.6023C94.8743 60.3371 95.0258 60.1307 95.2152 59.983C95.4065 59.8333 95.6148 59.7292 95.8402 59.6705C96.0675 59.6098 96.291 59.5795 96.5107 59.5795C96.6508 59.5795 96.8118 59.5966 96.9936 59.6307C97.1773 59.6629 97.3544 59.7301 97.5249 59.8324C97.6972 59.9347 97.8402 60.089 97.9538 60.2955C98.0675 60.5019 98.1243 60.7784 98.1243 61.125V64H97.4538V63.4091H97.4197C97.3743 63.5038 97.2985 63.6051 97.1925 63.7131C97.0864 63.821 96.9453 63.9129 96.7692 63.9886C96.593 64.0644 96.3781 64.1023 96.1243 64.1023ZM96.2266 63.5C96.4917 63.5 96.7152 63.4479 96.897 63.3438C97.0807 63.2396 97.219 63.1051 97.3118 62.9403C97.4065 62.7756 97.4538 62.6023 97.4538 62.4205V61.8068C97.4254 61.8409 97.3629 61.8722 97.2663 61.9006C97.1716 61.9271 97.0618 61.9508 96.9368 61.9716C96.8137 61.9905 96.6934 62.0076 96.576 62.0227C96.4605 62.036 96.3667 62.0473 96.2947 62.0568C96.1205 62.0795 95.9576 62.1165 95.8061 62.1676C95.6565 62.2169 95.5353 62.2917 95.4425 62.392C95.3516 62.4905 95.3061 62.625 95.3061 62.7955C95.3061 63.0284 95.3923 63.2045 95.5646 63.3239C95.7389 63.4413 95.9595 63.5 96.2266 63.5ZM101.246 59.6364V60.2045H98.9844V59.6364H101.246ZM99.6435 58.5909H100.314V62.75C100.314 62.9394 100.341 63.0814 100.396 63.1761C100.453 63.2689 100.525 63.3314 100.612 63.3636C100.701 63.3939 100.795 63.4091 100.893 63.4091C100.967 63.4091 101.028 63.4053 101.075 63.3977C101.123 63.3883 101.161 63.3807 101.189 63.375L101.325 63.9773C101.28 63.9943 101.216 64.0114 101.135 64.0284C101.054 64.0473 100.95 64.0568 100.825 64.0568C100.636 64.0568 100.45 64.0161 100.268 63.9347C100.089 63.8532 99.9389 63.7292 99.8196 63.5625C99.7022 63.3958 99.6435 63.1856 99.6435 62.9318V58.5909ZM102.254 64V59.6364H102.925V64H102.254ZM102.595 58.9091C102.464 58.9091 102.352 58.8646 102.257 58.7756C102.164 58.6866 102.118 58.5795 102.118 58.4545C102.118 58.3295 102.164 58.2225 102.257 58.1335C102.352 58.0445 102.464 58 102.595 58C102.726 58 102.838 58.0445 102.93 58.1335C103.025 58.2225 103.072 58.3295 103.072 58.4545C103.072 58.5795 103.025 58.6866 102.93 58.7756C102.838 58.8646 102.726 58.9091 102.595 58.9091ZM105.925 64.0909C105.531 64.0909 105.186 63.9972 104.888 63.8097C104.593 63.6222 104.362 63.3598 104.195 63.0227C104.031 62.6856 103.948 62.2917 103.948 61.8409C103.948 61.3864 104.031 60.9896 104.195 60.6506C104.362 60.3116 104.593 60.0483 104.888 59.8608C105.186 59.6733 105.531 59.5795 105.925 59.5795C106.319 59.5795 106.664 59.6733 106.96 59.8608C107.257 60.0483 107.488 60.3116 107.653 60.6506C107.819 60.9896 107.903 61.3864 107.903 61.8409C107.903 62.2917 107.819 62.6856 107.653 63.0227C107.488 63.3598 107.257 63.6222 106.96 63.8097C106.664 63.9972 106.319 64.0909 105.925 64.0909ZM105.925 63.4886C106.225 63.4886 106.471 63.4119 106.664 63.2585C106.857 63.1051 107 62.9034 107.093 62.6534C107.186 62.4034 107.232 62.1326 107.232 61.8409C107.232 61.5492 107.186 61.2775 107.093 61.0256C107 60.7737 106.857 60.5701 106.664 60.4148C106.471 60.2595 106.225 60.1818 105.925 60.1818C105.626 60.1818 105.38 60.2595 105.187 60.4148C104.994 60.5701 104.851 60.7737 104.758 61.0256C104.665 61.2775 104.619 61.5492 104.619 61.8409C104.619 62.1326 104.665 62.4034 104.758 62.6534C104.851 62.9034 104.994 63.1051 105.187 63.2585C105.38 63.4119 105.626 63.4886 105.925 63.4886ZM109.597 61.375V64H108.926V59.6364H109.574V60.3182H109.631C109.733 60.0966 109.888 59.9186 110.097 59.7841C110.305 59.6477 110.574 59.5795 110.903 59.5795C111.199 59.5795 111.457 59.6402 111.679 59.7614C111.901 59.8807 112.073 60.0625 112.196 60.3068C112.319 60.5492 112.381 60.8561 112.381 61.2273V64H111.71V61.2727C111.71 60.9299 111.621 60.6629 111.443 60.4716C111.265 60.2784 111.021 60.1818 110.71 60.1818C110.496 60.1818 110.305 60.2282 110.136 60.321C109.97 60.4138 109.838 60.5492 109.741 60.7273C109.645 60.9053 109.597 61.1212 109.597 61.375Z" fill="black"/>
<rect width="70" height="20" transform="translate(175 50)" fill="white"/>
<path d="M196.705 63V57.1818H197.409V59.7727H200.511V57.1818H201.216V63H200.511V60.3977H197.409V63H196.705ZM202.536 63V58.6364H203.206V63H202.536ZM202.876 57.9091C202.746 57.9091 202.633 57.8646 202.538 57.7756C202.446 57.6866 202.399 57.5795 202.399 57.4545C202.399 57.3295 202.446 57.2225 202.538 57.1335C202.633 57.0445 202.746 57 202.876 57C203.007 57 203.119 57.0445 203.212 57.1335C203.306 57.2225 203.354 57.3295 203.354 57.4545C203.354 57.5795 203.306 57.6866 203.212 57.7756C203.119 57.8646 203.007 57.9091 202.876 57.9091ZM207.525 59.6136L206.923 59.7841C206.885 59.6837 206.829 59.5862 206.755 59.4915C206.683 59.3949 206.585 59.3153 206.46 59.2528C206.335 59.1903 206.174 59.1591 205.979 59.1591C205.712 59.1591 205.49 59.2206 205.312 59.3438C205.136 59.465 205.048 59.6193 205.048 59.8068C205.048 59.9735 205.108 60.1051 205.229 60.2017C205.351 60.2983 205.54 60.3788 205.798 60.4432L206.445 60.6023C206.835 60.697 207.126 60.8419 207.317 61.0369C207.509 61.2301 207.604 61.4792 207.604 61.7841C207.604 62.0341 207.532 62.2576 207.388 62.4545C207.246 62.6515 207.048 62.8068 206.792 62.9205C206.536 63.0341 206.239 63.0909 205.9 63.0909C205.455 63.0909 205.086 62.9943 204.795 62.8011C204.503 62.608 204.318 62.3258 204.241 61.9545L204.877 61.7955C204.938 62.0303 205.052 62.2064 205.221 62.3239C205.391 62.4413 205.614 62.5 205.888 62.5C206.201 62.5 206.449 62.4337 206.633 62.3011C206.818 62.1667 206.911 62.0057 206.911 61.8182C206.911 61.6667 206.858 61.5398 206.752 61.4375C206.646 61.3333 206.483 61.2557 206.263 61.2045L205.536 61.0341C205.137 60.9394 204.843 60.7926 204.656 60.5938C204.47 60.393 204.377 60.142 204.377 59.8409C204.377 59.5947 204.446 59.3769 204.585 59.1875C204.725 58.9981 204.915 58.8494 205.156 58.7415C205.398 58.6335 205.673 58.5795 205.979 58.5795C206.411 58.5795 206.75 58.6742 206.996 58.8636C207.245 59.053 207.421 59.303 207.525 59.6136ZM210.511 58.6364V59.2045H208.25V58.6364H210.511ZM208.909 57.5909H209.58V61.75C209.58 61.9394 209.607 62.0814 209.662 62.1761C209.719 62.2689 209.791 62.3314 209.878 62.3636C209.967 62.3939 210.061 62.4091 210.159 62.4091C210.233 62.4091 210.294 62.4053 210.341 62.3977C210.388 62.3883 210.426 62.3807 210.455 62.375L210.591 62.9773C210.545 62.9943 210.482 63.0114 210.401 63.0284C210.319 63.0473 210.216 63.0568 210.091 63.0568C209.902 63.0568 209.716 63.0161 209.534 62.9347C209.354 62.8532 209.205 62.7292 209.085 62.5625C208.968 62.3958 208.909 62.1856 208.909 61.9318V57.5909ZM213.246 63.0909C212.852 63.0909 212.506 62.9972 212.209 62.8097C211.913 62.6222 211.682 62.3598 211.516 62.0227C211.351 61.6856 211.268 61.2917 211.268 60.8409C211.268 60.3864 211.351 59.9896 211.516 59.6506C211.682 59.3116 211.913 59.0483 212.209 58.8608C212.506 58.6733 212.852 58.5795 213.246 58.5795C213.64 58.5795 213.984 58.6733 214.28 58.8608C214.577 59.0483 214.808 59.3116 214.973 59.6506C215.14 59.9896 215.223 60.3864 215.223 60.8409C215.223 61.2917 215.14 61.6856 214.973 62.0227C214.808 62.3598 214.577 62.6222 214.28 62.8097C213.984 62.9972 213.64 63.0909 213.246 63.0909ZM213.246 62.4886C213.545 62.4886 213.791 62.4119 213.984 62.2585C214.178 62.1051 214.321 61.9034 214.413 61.6534C214.506 61.4034 214.553 61.1326 214.553 60.8409C214.553 60.5492 214.506 60.2775 214.413 60.0256C214.321 59.7737 214.178 59.5701 213.984 59.4148C213.791 59.2595 213.545 59.1818 213.246 59.1818C212.946 59.1818 212.7 59.2595 212.507 59.4148C212.314 59.5701 212.171 59.7737 212.078 60.0256C211.985 60.2775 211.939 60.5492 211.939 60.8409C211.939 61.1326 211.985 61.4034 212.078 61.6534C212.171 61.9034 212.314 62.1051 212.507 62.2585C212.7 62.4119 212.946 62.4886 213.246 62.4886ZM216.246 63V58.6364H216.894V59.2955H216.94C217.019 59.0795 217.163 58.9044 217.371 58.7699C217.58 58.6354 217.815 58.5682 218.076 58.5682C218.125 58.5682 218.187 58.5691 218.261 58.571C218.335 58.5729 218.39 58.5758 218.428 58.5795V59.2614C218.406 59.2557 218.353 59.2472 218.272 59.2358C218.192 59.2225 218.108 59.2159 218.019 59.2159C217.807 59.2159 217.618 59.2604 217.451 59.3494C217.286 59.4366 217.156 59.5578 217.059 59.7131C216.964 59.8665 216.917 60.0417 216.917 60.2386V63H216.246ZM219.788 64.6364C219.674 64.6364 219.573 64.6269 219.484 64.608C219.395 64.5909 219.333 64.5739 219.299 64.5568L219.469 63.9659C219.632 64.0076 219.776 64.0227 219.901 64.0114C220.026 64 220.137 63.9441 220.234 63.8438C220.332 63.7453 220.422 63.5852 220.504 63.3636L220.629 63.0227L219.015 58.6364H219.742L220.947 62.1136H220.992L222.197 58.6364H222.924L221.072 63.6364C220.988 63.8617 220.885 64.0483 220.762 64.196C220.639 64.3456 220.496 64.4564 220.333 64.5284C220.172 64.6004 219.99 64.6364 219.788 64.6364Z" fill="black"/>
<rect width="70" height="20" transform="translate(178 175)" fill="white"/>
<path d="M193 188H191.205V182.182H193.08C193.644 182.182 194.127 182.298 194.528 182.531C194.93 182.762 195.238 183.095 195.452 183.528C195.666 183.96 195.773 184.477 195.773 185.08C195.773 185.686 195.665 186.207 195.449 186.645C195.233 187.08 194.919 187.416 194.506 187.651C194.093 187.884 193.591 188 193 188ZM191.909 187.375H192.955C193.436 187.375 193.834 187.282 194.151 187.097C194.467 186.911 194.703 186.647 194.858 186.304C195.013 185.961 195.091 185.553 195.091 185.08C195.091 184.61 195.014 184.205 194.861 183.866C194.707 183.526 194.478 183.264 194.173 183.082C193.868 182.899 193.489 182.807 193.034 182.807H191.909V187.375ZM196.864 188V183.636H197.534V188H196.864ZM197.205 182.909C197.074 182.909 196.961 182.865 196.866 182.776C196.774 182.687 196.727 182.58 196.727 182.455C196.727 182.33 196.774 182.223 196.866 182.134C196.961 182.045 197.074 182 197.205 182C197.335 182 197.447 182.045 197.54 182.134C197.634 182.223 197.682 182.33 197.682 182.455C197.682 182.58 197.634 182.687 197.54 182.776C197.447 182.865 197.335 182.909 197.205 182.909ZM201.853 184.614L201.251 184.784C201.213 184.684 201.157 184.586 201.083 184.491C201.011 184.395 200.913 184.315 200.788 184.253C200.663 184.19 200.503 184.159 200.308 184.159C200.04 184.159 199.818 184.221 199.64 184.344C199.464 184.465 199.376 184.619 199.376 184.807C199.376 184.973 199.436 185.105 199.558 185.202C199.679 185.298 199.868 185.379 200.126 185.443L200.773 185.602C201.164 185.697 201.454 185.842 201.646 186.037C201.837 186.23 201.933 186.479 201.933 186.784C201.933 187.034 201.861 187.258 201.717 187.455C201.575 187.652 201.376 187.807 201.12 187.92C200.864 188.034 200.567 188.091 200.228 188.091C199.783 188.091 199.415 187.994 199.123 187.801C198.831 187.608 198.647 187.326 198.569 186.955L199.205 186.795C199.266 187.03 199.38 187.206 199.549 187.324C199.719 187.441 199.942 187.5 200.217 187.5C200.529 187.5 200.777 187.434 200.961 187.301C201.147 187.167 201.239 187.006 201.239 186.818C201.239 186.667 201.186 186.54 201.08 186.438C200.974 186.333 200.811 186.256 200.592 186.205L199.864 186.034C199.465 185.939 199.171 185.793 198.984 185.594C198.798 185.393 198.705 185.142 198.705 184.841C198.705 184.595 198.774 184.377 198.913 184.188C199.053 183.998 199.243 183.849 199.484 183.741C199.726 183.634 200.001 183.58 200.308 183.58C200.739 183.58 201.078 183.674 201.325 183.864C201.573 184.053 201.749 184.303 201.853 184.614ZM204.714 188.091C204.305 188.091 203.953 187.994 203.658 187.801C203.362 187.608 203.135 187.342 202.976 187.003C202.817 186.664 202.737 186.277 202.737 185.841C202.737 185.398 202.819 185.007 202.982 184.668C203.146 184.327 203.375 184.061 203.669 183.869C203.964 183.676 204.309 183.58 204.703 183.58C205.01 183.58 205.286 183.636 205.533 183.75C205.779 183.864 205.981 184.023 206.138 184.227C206.295 184.432 206.393 184.67 206.43 184.943H205.76C205.709 184.744 205.595 184.568 205.419 184.415C205.245 184.259 205.01 184.182 204.714 184.182C204.453 184.182 204.224 184.25 204.027 184.386C203.832 184.521 203.679 184.711 203.57 184.957C203.462 185.202 203.408 185.489 203.408 185.818C203.408 186.155 203.461 186.449 203.567 186.699C203.675 186.949 203.826 187.143 204.021 187.281C204.218 187.42 204.449 187.489 204.714 187.489C204.889 187.489 205.047 187.458 205.189 187.398C205.331 187.337 205.451 187.25 205.55 187.136C205.648 187.023 205.718 186.886 205.76 186.727H206.43C206.393 186.985 206.299 187.217 206.149 187.423C206.001 187.628 205.805 187.791 205.561 187.912C205.319 188.031 205.036 188.091 204.714 188.091ZM210.161 186.216V183.636H210.831V188H210.161V187.261H210.115C210.013 187.483 209.854 187.671 209.638 187.827C209.422 187.98 209.149 188.057 208.82 188.057C208.547 188.057 208.304 187.997 208.092 187.878C207.88 187.757 207.714 187.575 207.592 187.332C207.471 187.088 207.411 186.78 207.411 186.409V183.636H208.081V186.364C208.081 186.682 208.17 186.936 208.348 187.125C208.528 187.314 208.757 187.409 209.036 187.409C209.202 187.409 209.372 187.366 209.544 187.281C209.718 187.196 209.864 187.065 209.982 186.889C210.101 186.713 210.161 186.489 210.161 186.216ZM215.15 184.614L214.548 184.784C214.51 184.684 214.454 184.586 214.38 184.491C214.308 184.395 214.21 184.315 214.085 184.253C213.96 184.19 213.799 184.159 213.604 184.159C213.337 184.159 213.115 184.221 212.937 184.344C212.761 184.465 212.673 184.619 212.673 184.807C212.673 184.973 212.733 185.105 212.854 185.202C212.976 185.298 213.165 185.379 213.423 185.443L214.07 185.602C214.46 185.697 214.751 185.842 214.942 186.037C215.134 186.23 215.229 186.479 215.229 186.784C215.229 187.034 215.157 187.258 215.013 187.455C214.871 187.652 214.673 187.807 214.417 187.92C214.161 188.034 213.864 188.091 213.525 188.091C213.08 188.091 212.711 187.994 212.42 187.801C212.128 187.608 211.943 187.326 211.866 186.955L212.502 186.795C212.563 187.03 212.677 187.206 212.846 187.324C213.016 187.441 213.239 187.5 213.513 187.5C213.826 187.5 214.074 187.434 214.258 187.301C214.443 187.167 214.536 187.006 214.536 186.818C214.536 186.667 214.483 186.54 214.377 186.438C214.271 186.333 214.108 186.256 213.888 186.205L213.161 186.034C212.762 185.939 212.468 185.793 212.281 185.594C212.095 185.393 212.002 185.142 212.002 184.841C212.002 184.595 212.071 184.377 212.21 184.188C212.35 183.998 212.54 183.849 212.781 183.741C213.023 183.634 213.298 183.58 213.604 183.58C214.036 183.58 214.375 183.674 214.621 183.864C214.87 184.053 215.046 184.303 215.15 184.614ZM219.33 184.614L218.727 184.784C218.689 184.684 218.634 184.586 218.56 184.491C218.488 184.395 218.389 184.315 218.264 184.253C218.139 184.19 217.979 184.159 217.784 184.159C217.517 184.159 217.295 184.221 217.116 184.344C216.94 184.465 216.852 184.619 216.852 184.807C216.852 184.973 216.913 185.105 217.034 185.202C217.155 185.298 217.345 185.379 217.602 185.443L218.25 185.602C218.64 185.697 218.931 185.842 219.122 186.037C219.313 186.23 219.409 186.479 219.409 186.784C219.409 187.034 219.337 187.258 219.193 187.455C219.051 187.652 218.852 187.807 218.597 187.92C218.341 188.034 218.044 188.091 217.705 188.091C217.259 188.091 216.891 187.994 216.599 187.801C216.308 187.608 216.123 187.326 216.045 186.955L216.682 186.795C216.742 187.03 216.857 187.206 217.026 187.324C217.196 187.441 217.419 187.5 217.693 187.5C218.006 187.5 218.254 187.434 218.438 187.301C218.623 187.167 218.716 187.006 218.716 186.818C218.716 186.667 218.663 186.54 218.557 186.438C218.451 186.333 218.288 186.256 218.068 186.205L217.341 186.034C216.941 185.939 216.648 185.793 216.46 185.594C216.275 185.393 216.182 185.142 216.182 184.841C216.182 184.595 216.251 184.377 216.389 184.188C216.529 183.998 216.72 183.849 216.96 183.741C217.203 183.634 217.477 183.58 217.784 183.58C218.216 183.58 218.555 183.674 218.801 183.864C219.049 184.053 219.225 184.303 219.33 184.614ZM220.418 188V183.636H221.089V188H220.418ZM220.759 182.909C220.629 182.909 220.516 182.865 220.421 182.776C220.328 182.687 220.282 182.58 220.282 182.455C220.282 182.33 220.328 182.223 220.421 182.134C220.516 182.045 220.629 182 220.759 182C220.89 182 221.002 182.045 221.094 182.134C221.189 182.223 221.237 182.33 221.237 182.455C221.237 182.58 221.189 182.687 221.094 182.776C221.002 182.865 220.89 182.909 220.759 182.909ZM224.089 188.091C223.696 188.091 223.35 187.997 223.053 187.81C222.757 187.622 222.526 187.36 222.359 187.023C222.195 186.686 222.112 186.292 222.112 185.841C222.112 185.386 222.195 184.99 222.359 184.651C222.526 184.312 222.757 184.048 223.053 183.861C223.35 183.673 223.696 183.58 224.089 183.58C224.483 183.58 224.828 183.673 225.124 183.861C225.421 184.048 225.652 184.312 225.817 184.651C225.983 184.99 226.067 185.386 226.067 185.841C226.067 186.292 225.983 186.686 225.817 187.023C225.652 187.36 225.421 187.622 225.124 187.81C224.828 187.997 224.483 188.091 224.089 188.091ZM224.089 187.489C224.389 187.489 224.635 187.412 224.828 187.259C225.021 187.105 225.164 186.903 225.257 186.653C225.35 186.403 225.396 186.133 225.396 185.841C225.396 185.549 225.35 185.277 225.257 185.026C225.164 184.774 225.021 184.57 224.828 184.415C224.635 184.259 224.389 184.182 224.089 184.182C223.79 184.182 223.544 184.259 223.351 184.415C223.158 184.57 223.015 184.774 222.922 185.026C222.829 185.277 222.783 185.549 222.783 185.841C222.783 186.133 222.829 186.403 222.922 186.653C223.015 186.903 223.158 187.105 223.351 187.259C223.544 187.412 223.79 187.489 224.089 187.489ZM227.761 185.375V188H227.09V183.636H227.738V184.318H227.795C227.897 184.097 228.052 183.919 228.261 183.784C228.469 183.648 228.738 183.58 229.067 183.58C229.363 183.58 229.621 183.64 229.843 183.761C230.065 183.881 230.237 184.062 230.36 184.307C230.483 184.549 230.545 184.856 230.545 185.227V188H229.874V185.273C229.874 184.93 229.785 184.663 229.607 184.472C229.429 184.278 229.185 184.182 228.874 184.182C228.66 184.182 228.469 184.228 228.3 184.321C228.134 184.414 228.002 184.549 227.906 184.727C227.809 184.905 227.761 185.121 227.761 185.375ZM234.861 184.614L234.259 184.784C234.221 184.684 234.165 184.586 234.091 184.491C234.019 184.395 233.92 184.315 233.795 184.253C233.67 184.19 233.51 184.159 233.315 184.159C233.048 184.159 232.826 184.221 232.648 184.344C232.472 184.465 232.384 184.619 232.384 184.807C232.384 184.973 232.444 185.105 232.565 185.202C232.687 185.298 232.876 185.379 233.134 185.443L233.781 185.602C234.171 185.697 234.462 185.842 234.653 186.037C234.845 186.23 234.94 186.479 234.94 186.784C234.94 187.034 234.868 187.258 234.724 187.455C234.582 187.652 234.384 187.807 234.128 187.92C233.872 188.034 233.575 188.091 233.236 188.091C232.791 188.091 232.422 187.994 232.131 187.801C231.839 187.608 231.654 187.326 231.577 186.955L232.213 186.795C232.274 187.03 232.388 187.206 232.557 187.324C232.727 187.441 232.95 187.5 233.224 187.5C233.537 187.5 233.785 187.434 233.969 187.301C234.154 187.167 234.247 187.006 234.247 186.818C234.247 186.667 234.194 186.54 234.088 186.438C233.982 186.333 233.819 186.256 233.599 186.205L232.872 186.034C232.473 185.939 232.179 185.793 231.991 185.594C231.806 185.393 231.713 185.142 231.713 184.841C231.713 184.595 231.782 184.377 231.92 184.188C232.061 183.998 232.251 183.849 232.491 183.741C232.734 183.634 233.009 183.58 233.315 183.58C233.747 183.58 234.086 183.674 234.332 183.864C234.58 184.053 234.757 184.303 234.861 184.614Z" fill="black"/>
<rect width="70" height="20" transform="translate(54 175)" fill="white"/>
<path d="M82.3864 183.636C82.3523 183.348 82.214 183.125 81.9716 182.966C81.7292 182.807 81.4318 182.727 81.0795 182.727C80.822 182.727 80.5966 182.769 80.4034 182.852C80.2121 182.936 80.0625 183.05 79.9545 183.196C79.8485 183.342 79.7955 183.508 79.7955 183.693C79.7955 183.848 79.8324 183.982 79.9062 184.094C79.982 184.204 80.0786 184.295 80.196 184.369C80.3134 184.441 80.4366 184.501 80.5653 184.548C80.6941 184.594 80.8125 184.631 80.9205 184.659L81.5114 184.818C81.6629 184.858 81.8314 184.913 82.017 184.983C82.2045 185.053 82.3835 185.149 82.554 185.27C82.7263 185.389 82.8684 185.543 82.9801 185.73C83.0919 185.918 83.1477 186.148 83.1477 186.42C83.1477 186.735 83.0653 187.019 82.9006 187.273C82.7377 187.527 82.4991 187.728 82.1847 187.878C81.8722 188.027 81.4924 188.102 81.0455 188.102C80.6288 188.102 80.268 188.035 79.9631 187.901C79.66 187.766 79.4214 187.579 79.2472 187.338C79.0748 187.098 78.9773 186.818 78.9545 186.5H79.6818C79.7008 186.72 79.7746 186.902 79.9034 187.045C80.0341 187.187 80.1989 187.294 80.3977 187.364C80.5985 187.432 80.8144 187.466 81.0455 187.466C81.3144 187.466 81.5559 187.422 81.7699 187.335C81.9839 187.246 82.1534 187.123 82.2784 186.966C82.4034 186.807 82.4659 186.621 82.4659 186.409C82.4659 186.216 82.4119 186.059 82.304 185.938C82.196 185.816 82.054 185.718 81.8778 185.642C81.7017 185.566 81.5114 185.5 81.3068 185.443L80.5909 185.239C80.1364 185.108 79.7765 184.921 79.5114 184.679C79.2462 184.437 79.1136 184.119 79.1136 183.727C79.1136 183.402 79.2017 183.117 79.3778 182.875C79.5559 182.631 79.7945 182.441 80.0938 182.307C80.3949 182.17 80.7311 182.102 81.1023 182.102C81.4773 182.102 81.8106 182.17 82.1023 182.304C82.3939 182.437 82.625 182.618 82.7955 182.849C82.9678 183.08 83.0587 183.343 83.0682 183.636H82.3864ZM85.4993 188.102C85.2228 188.102 84.9718 188.05 84.7464 187.946C84.5211 187.84 84.3421 187.688 84.2095 187.489C84.0769 187.288 84.0107 187.045 84.0107 186.761C84.0107 186.511 84.0599 186.309 84.1584 186.153C84.2569 185.996 84.3885 185.873 84.5533 185.784C84.718 185.695 84.8999 185.629 85.0987 185.585C85.2995 185.54 85.5012 185.504 85.7038 185.477C85.969 185.443 86.1839 185.418 86.3487 185.401C86.5154 185.382 86.6366 185.35 86.7124 185.307C86.79 185.263 86.8288 185.187 86.8288 185.08V185.057C86.8288 184.777 86.7521 184.559 86.5987 184.403C86.4472 184.248 86.2171 184.17 85.9084 184.17C85.5883 184.17 85.3374 184.241 85.1555 184.381C84.9737 184.521 84.8459 184.67 84.772 184.83L84.1357 184.602C84.2493 184.337 84.4008 184.131 84.5902 183.983C84.7815 183.833 84.9898 183.729 85.2152 183.67C85.4425 183.61 85.666 183.58 85.8857 183.58C86.0258 183.58 86.1868 183.597 86.3686 183.631C86.5523 183.663 86.7294 183.73 86.8999 183.832C87.0722 183.935 87.2152 184.089 87.3288 184.295C87.4425 184.502 87.4993 184.778 87.4993 185.125V188H86.8288V187.409H86.7947C86.7493 187.504 86.6735 187.605 86.5675 187.713C86.4614 187.821 86.3203 187.913 86.1442 187.989C85.968 188.064 85.7531 188.102 85.4993 188.102ZM85.6016 187.5C85.8667 187.5 86.0902 187.448 86.272 187.344C86.4557 187.24 86.594 187.105 86.6868 186.94C86.7815 186.776 86.8288 186.602 86.8288 186.42V185.807C86.8004 185.841 86.7379 185.872 86.6413 185.901C86.5466 185.927 86.4368 185.951 86.3118 185.972C86.1887 185.991 86.0684 186.008 85.951 186.023C85.8355 186.036 85.7417 186.047 85.6697 186.057C85.4955 186.08 85.3326 186.116 85.1811 186.168C85.0315 186.217 84.9103 186.292 84.8175 186.392C84.7266 186.491 84.6811 186.625 84.6811 186.795C84.6811 187.028 84.7673 187.205 84.9396 187.324C85.1139 187.441 85.3345 187.5 85.6016 187.5ZM89.3935 182.182V188H88.723V182.182H89.3935ZM92.451 188.091C92.0305 188.091 91.6679 187.998 91.3629 187.812C91.0599 187.625 90.826 187.364 90.6612 187.028C90.4983 186.691 90.4169 186.299 90.4169 185.852C90.4169 185.405 90.4983 185.011 90.6612 184.67C90.826 184.328 91.0552 184.061 91.3487 183.869C91.6442 183.676 91.9889 183.58 92.3828 183.58C92.6101 183.58 92.8345 183.617 93.0561 183.693C93.2777 183.769 93.4794 183.892 93.6612 184.062C93.843 184.231 93.9879 184.455 94.0959 184.733C94.2038 185.011 94.2578 185.354 94.2578 185.761V186.045H90.8942V185.466H93.576C93.576 185.22 93.5268 185 93.4283 184.807C93.3317 184.614 93.1934 184.461 93.0135 184.349C92.8355 184.238 92.6252 184.182 92.3828 184.182C92.1158 184.182 91.8847 184.248 91.6896 184.381C91.4964 184.511 91.3478 184.682 91.2436 184.892C91.1394 185.102 91.0874 185.328 91.0874 185.568V185.955C91.0874 186.284 91.1442 186.563 91.2578 186.793C91.3733 187.02 91.5334 187.193 91.7379 187.312C91.9425 187.43 92.1802 187.489 92.451 187.489C92.6271 187.489 92.7862 187.464 92.9283 187.415C93.0722 187.364 93.1963 187.288 93.3004 187.188C93.4046 187.085 93.4851 186.958 93.5419 186.807L94.1896 186.989C94.1214 187.208 94.0069 187.402 93.8459 187.568C93.6849 187.733 93.486 187.862 93.2493 187.955C93.0125 188.045 92.7464 188.091 92.451 188.091ZM98.3686 184.614L97.7663 184.784C97.7285 184.684 97.6726 184.586 97.5987 184.491C97.5268 184.395 97.4283 184.315 97.3033 184.253C97.1783 184.19 97.0182 184.159 96.8232 184.159C96.5561 184.159 96.3336 184.221 96.1555 184.344C95.9794 184.465 95.8913 184.619 95.8913 184.807C95.8913 184.973 95.9519 185.105 96.0732 185.202C96.1944 185.298 96.3838 185.379 96.6413 185.443L97.2891 185.602C97.6792 185.697 97.9699 185.842 98.1612 186.037C98.3525 186.23 98.4482 186.479 98.4482 186.784C98.4482 187.034 98.3762 187.258 98.2322 187.455C98.0902 187.652 97.8913 187.807 97.6357 187.92C97.38 188.034 97.0826 188.091 96.7436 188.091C96.2985 188.091 95.9302 187.994 95.6385 187.801C95.3468 187.608 95.1622 187.326 95.0845 186.955L95.7209 186.795C95.7815 187.03 95.8961 187.206 96.0646 187.324C96.2351 187.441 96.4576 187.5 96.7322 187.5C97.0447 187.5 97.2929 187.434 97.4766 187.301C97.6622 187.167 97.755 187.006 97.755 186.818C97.755 186.667 97.7019 186.54 97.5959 186.438C97.4898 186.333 97.3269 186.256 97.1072 186.205L96.38 186.034C95.9804 185.939 95.6868 185.793 95.4993 185.594C95.3137 185.393 95.2209 185.142 95.2209 184.841C95.2209 184.595 95.29 184.377 95.4283 184.188C95.5684 183.998 95.7588 183.849 95.9993 183.741C96.2417 183.634 96.5163 183.58 96.8232 183.58C97.255 183.58 97.594 183.674 97.8402 183.864C98.0883 184.053 98.2644 184.303 98.3686 184.614Z" fill="black"/>
</g>
<defs>
<linearGradient id="paint0_linear_539_58" x1="150" y1="30" x2="150" y2="213" gradientUnits="userSpaceOnUse">
<stop stop-color="#F7FD8E"/>
<stop offset="1" stop-color="white"/>
</linearGradient>
<linearGradient id="paint1_linear_539_58" x1="150" y1="30.0253" x2="150" y2="230.001" gradientUnits="userSpaceOnUse">
<stop/>
<stop offset="1" stop-color="white"/>
</linearGradient>
<clipPath id="clip0_539_58">
<rect width="300" height="230" rx="20" fill="white"/>
</clipPath>
</defs>
</svg>
