<svg width="21" height="23" viewBox="0 0 21 23" fill="none" xmlns="http://www.w3.org/2000/svg">
<mask id="mask0_825_9" style="mask-type:luminance" maskUnits="userSpaceOnUse" x="0" y="0" width="21" height="23">
<path d="M20.0503 0.00439453H0.248413V22.1088H20.0503V0.00439453Z" fill="white"/>
</mask>
<g mask="url(#mask0_825_9)">
<path fill-rule="evenodd" clip-rule="evenodd" d="M10.7136 3.86818C10.7136 3.38173 10.5999 2.90196 10.3813 2.46686C10.1923 2.09076 10.0814 1.68067 10.0551 1.261L9.99191 0.254883L9.92875 1.26096C9.90236 1.68064 9.79144 2.09075 9.60253 2.46685C9.38397 2.90195 9.27017 3.38174 9.27017 3.86819V18.1935C9.27017 18.6799 9.38397 19.1597 9.60253 19.5949C9.79144 19.9709 9.90236 20.3811 9.92875 20.8007L9.99191 21.8068L10.0551 20.8007C10.0814 20.381 10.1923 19.9709 10.3813 19.5948C10.5999 19.1597 10.7136 18.68 10.7136 18.1935V3.86818ZM6.77258 3.90366C6.99118 4.33875 7.10495 4.81855 7.10495 5.305V16.7567C7.10495 17.2432 6.99118 17.7229 6.77258 18.1581C6.58367 18.5341 6.47275 18.9443 6.44636 19.3639L6.38321 20.37L6.32005 19.3639C6.29366 18.9443 6.18274 18.5341 5.99383 18.1581C5.77523 17.7229 5.66147 17.2432 5.66147 16.7567V5.305C5.66147 4.81855 5.77523 4.33875 5.99383 3.90366C6.18274 3.52756 6.29366 3.11746 6.32005 2.69778L6.38321 1.69168L6.44636 2.69778C6.47275 3.11746 6.58367 3.52756 6.77258 3.90366ZM5.3006 6.74179C5.3006 6.2553 5.18683 5.77555 4.96823 5.34047C4.77932 4.96434 4.66838 4.55425 4.64203 4.13457L4.57886 3.12847L4.51568 4.13457C4.48933 4.55425 4.37838 4.96434 4.18945 5.34047C3.97089 5.77555 3.85712 6.2553 3.85712 6.74179V15.3199C3.85712 15.8063 3.97089 16.2861 4.18945 16.7212C4.37838 17.0973 4.48933 17.5074 4.51568 17.9271L4.57886 18.9332L4.64203 17.9271C4.66838 17.5074 4.77932 17.0973 4.96823 16.7212C5.18683 16.2861 5.3006 15.8063 5.3006 15.3199V6.74179ZM3.1639 8.21402C3.38246 8.64914 3.49624 9.1289 3.49624 9.61539V12.4463C3.49624 12.9327 3.38246 13.4125 3.1639 13.8476C2.97497 14.2237 2.86403 14.6338 2.83768 15.0535L2.77451 16.0596L2.71132 15.0535C2.68497 14.6338 2.57404 14.2237 2.38511 13.8476C2.16655 13.4125 2.05277 12.9327 2.05277 12.4463V9.61539C2.05277 9.1289 2.16655 8.64914 2.38511 8.21402C2.57404 7.83793 2.68497 7.42782 2.71132 7.00818L2.77451 6.00207L2.83768 7.00818C2.86403 7.42782 2.97497 7.83793 3.1639 8.21402ZM1.69183 11.0308L1.6919 11.0522V11.0095L1.69183 11.0308ZM0.248413 11.0522L0.248486 11.0308C0.25176 11.51 0.365392 11.9821 0.580761 12.4108C0.769685 12.787 0.880625 13.197 0.906978 13.6167L0.970153 14.6228L1.03333 13.6167C1.05968 13.197 1.17062 12.787 1.35954 12.4108C1.57491 11.9821 1.68855 11.51 1.69183 11.0308C1.68855 10.5517 1.57491 10.0795 1.35954 9.65086C1.17062 9.27473 1.05968 8.86466 1.03333 8.44498L0.970153 7.43886L0.906978 8.44498C0.880625 8.86466 0.769685 9.27473 0.580761 9.65086C0.365392 10.0795 0.25176 10.5517 0.248486 11.0308L0.248413 11.0095V11.0522ZM8.57693 2.46685C8.79553 2.90195 8.9093 3.38173 8.9093 3.86819V18.1935C8.9093 18.68 8.79553 19.1597 8.57693 19.5948C8.38802 19.9709 8.2771 20.381 8.25071 20.8007L8.18756 21.8068L8.1244 20.8007C8.09801 20.381 7.98709 19.9709 7.79818 19.5948C7.57958 19.1597 7.46582 18.68 7.46582 18.1935V3.86819C7.46582 3.38173 7.57958 2.90195 7.79818 2.46685C7.98709 2.09076 8.09801 1.68065 8.1244 1.26098L8.18756 0.254883L8.25071 1.26098C8.2771 1.68065 8.38802 2.09076 8.57693 2.46685ZM12.1856 2.46685C12.4042 2.90195 12.518 3.38173 12.518 3.86819V18.1935C12.518 18.68 12.4042 19.1597 12.1856 19.5948C11.9967 19.9709 11.8858 20.381 11.8594 20.8007L11.7962 21.8068L11.7331 20.8007C11.7067 20.381 11.5958 19.9709 11.4069 19.5948C11.1883 19.1597 11.0745 18.68 11.0745 18.1935V3.86819C11.0745 3.38173 11.1883 2.90195 11.4069 2.46685C11.5958 2.09076 11.7067 1.68065 11.7331 1.26098L11.7962 0.254883L11.8594 1.26098C11.8858 1.68065 11.9967 2.09076 12.1856 2.46685ZM14.3223 5.305C14.3223 4.81855 14.2086 4.33875 13.99 3.90366C13.801 3.52756 13.6901 3.11746 13.6637 2.69778L13.6006 1.69168L13.5374 2.69778C13.511 3.11746 13.4001 3.52756 13.2112 3.90366C12.9926 4.33875 12.8788 4.81855 12.8788 5.305V16.7567C12.8788 17.2432 12.9926 17.7229 13.2112 18.1581C13.4001 18.5341 13.511 18.9443 13.5374 19.3639L13.6006 20.37L13.6637 19.3639C13.6901 18.9443 13.801 18.5341 13.99 18.1581C14.2086 17.7229 14.3223 17.2432 14.3223 16.7567V5.305ZM15.7943 5.34047C16.0129 5.77555 16.1267 6.2553 16.1267 6.74179V15.3199C16.1267 15.8063 16.0129 16.2861 15.7943 16.7212C15.6054 17.0973 15.4945 17.5074 15.4681 17.9271L15.4049 18.9332L15.3418 17.9271C15.3154 17.5074 15.2045 17.0973 15.0156 16.7212C14.797 16.2861 14.6832 15.8063 14.6832 15.3199V6.74179C14.6832 6.2553 14.797 5.77555 15.0156 5.34047C15.2045 4.96434 15.3154 4.55425 15.3418 4.13457L15.4049 3.12847L15.4681 4.13457C15.4945 4.55425 15.6054 4.96434 15.7943 5.34047ZM17.931 9.61539C17.931 9.1289 17.8173 8.64914 17.5987 8.21402C17.4097 7.83793 17.2988 7.42782 17.2724 7.00818L17.2093 6.00207L17.1461 7.00818C17.1197 7.42782 17.0088 7.83793 16.8199 8.21402C16.6014 8.64914 16.4875 9.1289 16.4875 9.61539V12.4463C16.4875 12.9327 16.6014 13.4125 16.8199 13.8476C17.0088 14.2237 17.1197 14.6338 17.1461 15.0535L17.2093 16.0596L17.2724 15.0535C17.2988 14.6338 17.4097 14.2237 17.5987 13.8476C17.8173 13.4125 17.931 12.9327 17.931 12.4463V9.61539ZM19.7353 11.0308C19.7353 11.0379 19.7354 11.045 19.7354 11.0522V11.0095C19.7354 11.0166 19.7353 11.0237 19.7353 11.0308ZM18.292 11.0308C18.2952 11.51 18.4089 11.9821 18.6243 12.4108C18.8132 12.787 18.9241 13.197 18.9505 13.6167L19.0136 14.6228L19.0768 13.6167C19.1032 13.197 19.2141 12.787 19.403 12.4108C19.6184 11.9821 19.732 11.51 19.7353 11.0308C19.732 10.5517 19.6184 10.0795 19.403 9.65086C19.2141 9.27473 19.1032 8.86466 19.0768 8.44498L19.0136 7.43886L18.9505 8.44498C18.9241 8.86466 18.8132 9.27473 18.6243 9.65086C18.4089 10.0795 18.2952 10.5517 18.292 11.0308ZM18.292 11.0308C18.2919 11.0237 18.2919 11.0166 18.2919 11.0095V11.0522C18.2919 11.045 18.2919 11.0379 18.292 11.0308Z" fill="#171717"/>
<path fill-rule="evenodd" clip-rule="evenodd" d="M10.7136 3.86818C10.7136 3.38173 10.5999 2.90196 10.3813 2.46686C10.1923 2.09076 10.0814 1.68067 10.0551 1.261L9.99191 0.254883L9.92875 1.26096C9.90236 1.68064 9.79144 2.09075 9.60253 2.46685C9.38397 2.90195 9.27017 3.38174 9.27017 3.86819V18.1935C9.27017 18.6799 9.38397 19.1597 9.60253 19.5949C9.79144 19.9709 9.90236 20.3811 9.92875 20.8007L9.99191 21.8068L10.0551 20.8007C10.0814 20.381 10.1923 19.9709 10.3813 19.5948C10.5999 19.1597 10.7136 18.68 10.7136 18.1935V3.86818ZM6.77258 3.90366C6.99118 4.33875 7.10495 4.81855 7.10495 5.305V16.7567C7.10495 17.2432 6.99118 17.7229 6.77258 18.1581C6.58367 18.5341 6.47275 18.9443 6.44636 19.3639L6.38321 20.37L6.32005 19.3639C6.29366 18.9443 6.18274 18.5341 5.99383 18.1581C5.77523 17.7229 5.66147 17.2432 5.66147 16.7567V5.305C5.66147 4.81855 5.77523 4.33875 5.99383 3.90366C6.18274 3.52756 6.29366 3.11746 6.32005 2.69778L6.38321 1.69168L6.44636 2.69778C6.47275 3.11746 6.58367 3.52756 6.77258 3.90366ZM5.3006 6.74179C5.3006 6.2553 5.18683 5.77555 4.96823 5.34047C4.77932 4.96434 4.66838 4.55425 4.64203 4.13457L4.57886 3.12847L4.51568 4.13457C4.48933 4.55425 4.37838 4.96434 4.18945 5.34047C3.97089 5.77555 3.85712 6.2553 3.85712 6.74179V15.3199C3.85712 15.8063 3.97089 16.2861 4.18945 16.7212C4.37838 17.0973 4.48933 17.5074 4.51568 17.9271L4.57886 18.9332L4.64203 17.9271C4.66838 17.5074 4.77932 17.0973 4.96823 16.7212C5.18683 16.2861 5.3006 15.8063 5.3006 15.3199V6.74179ZM3.1639 8.21402C3.38246 8.64914 3.49624 9.1289 3.49624 9.61539V12.4463C3.49624 12.9327 3.38246 13.4125 3.1639 13.8476C2.97497 14.2237 2.86403 14.6338 2.83768 15.0535L2.77451 16.0596L2.71132 15.0535C2.68497 14.6338 2.57404 14.2237 2.38511 13.8476C2.16655 13.4125 2.05277 12.9327 2.05277 12.4463V9.61539C2.05277 9.1289 2.16655 8.64914 2.38511 8.21402C2.57404 7.83793 2.68497 7.42782 2.71132 7.00818L2.77451 6.00207L2.83768 7.00818C2.86403 7.42782 2.97497 7.83793 3.1639 8.21402ZM1.69183 11.0308L1.6919 11.0522V11.0095L1.69183 11.0308ZM0.248413 11.0522L0.248486 11.0308C0.25176 11.51 0.365392 11.9821 0.580761 12.4108C0.769685 12.787 0.880625 13.197 0.906978 13.6167L0.970153 14.6228L1.03333 13.6167C1.05968 13.197 1.17062 12.787 1.35954 12.4108C1.57491 11.9821 1.68855 11.51 1.69183 11.0308C1.68855 10.5517 1.57491 10.0795 1.35954 9.65086C1.17062 9.27473 1.05968 8.86466 1.03333 8.44498L0.970153 7.43886L0.906978 8.44498C0.880625 8.86466 0.769685 9.27473 0.580761 9.65086C0.365392 10.0795 0.25176 10.5517 0.248486 11.0308L0.248413 11.0095V11.0522ZM8.57693 2.46685C8.79553 2.90195 8.9093 3.38173 8.9093 3.86819V18.1935C8.9093 18.68 8.79553 19.1597 8.57693 19.5948C8.38802 19.9709 8.2771 20.381 8.25071 20.8007L8.18756 21.8068L8.1244 20.8007C8.09801 20.381 7.98709 19.9709 7.79818 19.5948C7.57958 19.1597 7.46582 18.68 7.46582 18.1935V3.86819C7.46582 3.38173 7.57958 2.90195 7.79818 2.46685C7.98709 2.09076 8.09801 1.68065 8.1244 1.26098L8.18756 0.254883L8.25071 1.26098C8.2771 1.68065 8.38802 2.09076 8.57693 2.46685ZM12.1856 2.46685C12.4042 2.90195 12.518 3.38173 12.518 3.86819V18.1935C12.518 18.68 12.4042 19.1597 12.1856 19.5948C11.9967 19.9709 11.8858 20.381 11.8594 20.8007L11.7962 21.8068L11.7331 20.8007C11.7067 20.381 11.5958 19.9709 11.4069 19.5948C11.1883 19.1597 11.0745 18.68 11.0745 18.1935V3.86819C11.0745 3.38173 11.1883 2.90195 11.4069 2.46685C11.5958 2.09076 11.7067 1.68065 11.7331 1.26098L11.7962 0.254883L11.8594 1.26098C11.8858 1.68065 11.9967 2.09076 12.1856 2.46685ZM14.3223 5.305C14.3223 4.81855 14.2086 4.33875 13.99 3.90366C13.801 3.52756 13.6901 3.11746 13.6637 2.69778L13.6006 1.69168L13.5374 2.69778C13.511 3.11746 13.4001 3.52756 13.2112 3.90366C12.9926 4.33875 12.8788 4.81855 12.8788 5.305V16.7567C12.8788 17.2432 12.9926 17.7229 13.2112 18.1581C13.4001 18.5341 13.511 18.9443 13.5374 19.3639L13.6006 20.37L13.6637 19.3639C13.6901 18.9443 13.801 18.5341 13.99 18.1581C14.2086 17.7229 14.3223 17.2432 14.3223 16.7567V5.305ZM15.7943 5.34047C16.0129 5.77555 16.1267 6.2553 16.1267 6.74179V15.3199C16.1267 15.8063 16.0129 16.2861 15.7943 16.7212C15.6054 17.0973 15.4945 17.5074 15.4681 17.9271L15.4049 18.9332L15.3418 17.9271C15.3154 17.5074 15.2045 17.0973 15.0156 16.7212C14.797 16.2861 14.6832 15.8063 14.6832 15.3199V6.74179C14.6832 6.2553 14.797 5.77555 15.0156 5.34047C15.2045 4.96434 15.3154 4.55425 15.3418 4.13457L15.4049 3.12847L15.4681 4.13457C15.4945 4.55425 15.6054 4.96434 15.7943 5.34047ZM17.931 9.61539C17.931 9.1289 17.8173 8.64914 17.5987 8.21402C17.4097 7.83793 17.2988 7.42782 17.2724 7.00818L17.2093 6.00207L17.1461 7.00818C17.1197 7.42782 17.0088 7.83793 16.8199 8.21402C16.6014 8.64914 16.4875 9.1289 16.4875 9.61539V12.4463C16.4875 12.9327 16.6014 13.4125 16.8199 13.8476C17.0088 14.2237 17.1197 14.6338 17.1461 15.0535L17.2093 16.0596L17.2724 15.0535C17.2988 14.6338 17.4097 14.2237 17.5987 13.8476C17.8173 13.4125 17.931 12.9327 17.931 12.4463V9.61539ZM19.7353 11.0308C19.7353 11.0379 19.7354 11.045 19.7354 11.0522V11.0095C19.7354 11.0166 19.7353 11.0237 19.7353 11.0308ZM18.292 11.0308C18.2952 11.51 18.4089 11.9821 18.6243 12.4108C18.8132 12.787 18.9241 13.197 18.9505 13.6167L19.0136 14.6228L19.0768 13.6167C19.1032 13.197 19.2141 12.787 19.403 12.4108C19.6184 11.9821 19.732 11.51 19.7353 11.0308C19.732 10.5517 19.6184 10.0795 19.403 9.65086C19.2141 9.27473 19.1032 8.86466 19.0768 8.44498L19.0136 7.43886L18.9505 8.44498C18.9241 8.86466 18.8132 9.27473 18.6243 9.65086C18.4089 10.0795 18.2952 10.5517 18.292 11.0308ZM18.292 11.0308C18.2919 11.0237 18.2919 11.0166 18.2919 11.0095V11.0522C18.2919 11.045 18.2919 11.0379 18.292 11.0308Z" fill="url(#paint0_linear_825_9)"/>
</g>
<defs>
<linearGradient id="paint0_linear_825_9" x1="0.248413" y1="11.0308" x2="33.191" y2="10.9896" gradientUnits="userSpaceOnUse">
<stop stop-color="#F67300"/>
<stop offset="0.730769" stop-color="#F67300" stop-opacity="0.9"/>
<stop offset="1" stop-color="#F67300"/>
</linearGradient>
</defs>
</svg>
