<svg width="173" height="369" viewBox="0 0 173 369" fill="none" xmlns="http://www.w3.org/2000/svg">
<g clip-path="url(#clip0_5959_582)">
<rect width="173" height="369" rx="52" fill="#367CA4"/>
<rect x="13" y="291" width="146" height="64" rx="32" fill="white"/>
<path opacity="0.7" d="M47.096 336.36C45.008 336.36 43.172 335.796 41.588 334.668C40.004 333.516 38.768 331.932 37.88 329.916C36.992 327.876 36.548 325.548 36.548 322.932C36.548 320.316 36.992 318.024 37.88 316.056C38.768 314.064 40.004 312.516 41.588 311.412C43.172 310.284 45.008 309.72 47.096 309.72C49.184 309.72 51.008 310.284 52.568 311.412C54.152 312.516 55.388 314.064 56.276 316.056C57.164 318.024 57.608 320.316 57.608 322.932C57.608 325.572 57.164 327.9 56.276 329.916C55.388 331.932 54.152 333.516 52.568 334.668C50.984 335.796 49.16 336.36 47.096 336.36ZM47.096 333.084C48.464 333.084 49.628 332.664 50.588 331.824C51.548 330.96 52.268 329.772 52.748 328.26C53.252 326.724 53.504 324.936 53.504 322.896C53.504 320.88 53.252 319.128 52.748 317.64C52.268 316.152 51.548 315.012 50.588 314.22C49.652 313.404 48.488 312.996 47.096 312.996C45.68 312.996 44.492 313.404 43.532 314.22C42.596 315.036 41.876 316.188 41.372 317.676C40.892 319.14 40.652 320.88 40.652 322.896C40.652 324.936 40.904 326.724 41.408 328.26C41.912 329.796 42.632 330.984 43.568 331.824C44.528 332.664 45.704 333.084 47.096 333.084ZM69.5631 336.36C67.7871 336.36 66.2151 336.036 64.8471 335.388C63.5031 334.74 62.4111 333.804 61.5711 332.58C60.7551 331.332 60.2511 329.82 60.0591 328.044H63.9831C64.2231 329.748 64.8111 331.044 65.7471 331.932C66.6831 332.796 67.9311 333.228 69.4911 333.228C70.9311 333.228 72.0831 332.832 72.9471 332.04C73.8111 331.248 74.2431 330.156 74.2431 328.764C74.2431 327.348 73.8231 326.196 72.9831 325.308C72.1431 324.42 70.9431 323.976 69.3831 323.976H66.4671V320.916H69.2751C70.6671 320.916 71.7471 320.544 72.5151 319.8C73.2831 319.056 73.6671 318.072 73.6671 316.848C73.6671 315.6 73.2951 314.628 72.5511 313.932C71.8071 313.212 70.7391 312.852 69.3471 312.852C68.0511 312.852 66.9351 313.236 65.9991 314.004C65.0871 314.772 64.5351 315.888 64.3431 317.352H60.4191C60.5871 315.792 61.0551 314.448 61.8231 313.32C62.6151 312.168 63.6591 311.28 64.9551 310.656C66.2751 310.032 67.7751 309.72 69.4551 309.72C71.1111 309.72 72.5511 309.996 73.7751 310.548C75.0231 311.1 75.9831 311.892 76.6551 312.924C77.3511 313.956 77.6991 315.168 77.6991 316.56C77.6991 317.76 77.4231 318.828 76.8711 319.764C76.3191 320.7 75.5871 321.432 74.6751 321.96C73.7871 322.464 72.7911 322.716 71.6871 322.716L71.5431 321.96C72.9351 321.96 74.1351 322.272 75.1431 322.896C76.1751 323.496 76.9671 324.324 77.5191 325.38C78.0711 326.412 78.3471 327.6 78.3471 328.944C78.3471 330.432 77.9631 331.74 77.1951 332.868C76.4511 333.972 75.4191 334.836 74.0991 335.46C72.7791 336.06 71.2671 336.36 69.5631 336.36ZM81.3958 336V331.536H85.8238V336H81.3958ZM81.3958 322.968V318.504H85.8238V322.968H81.3958ZM99.7952 336.36C97.7072 336.36 95.8712 335.796 94.2872 334.668C92.7032 333.516 91.4672 331.932 90.5792 329.916C89.6912 327.876 89.2472 325.548 89.2472 322.932C89.2472 320.316 89.6912 318.024 90.5792 316.056C91.4672 314.064 92.7032 312.516 94.2872 311.412C95.8712 310.284 97.7072 309.72 99.7952 309.72C101.883 309.72 103.707 310.284 105.267 311.412C106.851 312.516 108.087 314.064 108.975 316.056C109.863 318.024 110.307 320.316 110.307 322.932C110.307 325.572 109.863 327.9 108.975 329.916C108.087 331.932 106.851 333.516 105.267 334.668C103.683 335.796 101.859 336.36 99.7952 336.36ZM99.7952 333.084C101.163 333.084 102.327 332.664 103.287 331.824C104.247 330.96 104.967 329.772 105.447 328.26C105.951 326.724 106.203 324.936 106.203 322.896C106.203 320.88 105.951 319.128 105.447 317.64C104.967 316.152 104.247 315.012 103.287 314.22C102.351 313.404 101.187 312.996 99.7952 312.996C98.3792 312.996 97.1912 313.404 96.2312 314.22C95.2952 315.036 94.5752 316.188 94.0712 317.676C93.5912 319.14 93.3512 320.88 93.3512 322.896C93.3512 324.936 93.6032 326.724 94.1072 328.26C94.6112 329.796 95.3312 330.984 96.2672 331.824C97.2272 332.664 98.4032 333.084 99.7952 333.084ZM124.44 336.36C122.352 336.36 120.516 335.796 118.932 334.668C117.348 333.516 116.112 331.932 115.224 329.916C114.336 327.876 113.892 325.548 113.892 322.932C113.892 320.316 114.336 318.024 115.224 316.056C116.112 314.064 117.348 312.516 118.932 311.412C120.516 310.284 122.352 309.72 124.44 309.72C126.528 309.72 128.352 310.284 129.912 311.412C131.496 312.516 132.732 314.064 133.62 316.056C134.508 318.024 134.952 320.316 134.952 322.932C134.952 325.572 134.508 327.9 133.62 329.916C132.732 331.932 131.496 333.516 129.912 334.668C128.328 335.796 126.504 336.36 124.44 336.36ZM124.44 333.084C125.808 333.084 126.972 332.664 127.932 331.824C128.892 330.96 129.612 329.772 130.092 328.26C130.596 326.724 130.848 324.936 130.848 322.896C130.848 320.88 130.596 319.128 130.092 317.64C129.612 316.152 128.892 315.012 127.932 314.22C126.996 313.404 125.832 312.996 124.44 312.996C123.024 312.996 121.836 313.404 120.876 314.22C119.94 315.036 119.22 316.188 118.716 317.676C118.236 319.14 117.996 320.88 117.996 322.896C117.996 324.936 118.248 326.724 118.752 328.26C119.256 329.796 119.976 330.984 120.912 331.824C121.872 332.664 123.048 333.084 124.44 333.084Z" fill="#367CA4"/>
<path d="M-2.5 81.5C-2.5 81.5 0.998954 96.7983 14.5 99.298C28.001 101.798 20.6555 47.0565 46 37.298C62.1139 31.0937 59.5 123.5 59.5 123.5C59.5 123.5 63.3177 134.827 69.8359 134.5C73.5917 134.311 75.5677 133.789 78.5 130.298C88.998 117.799 86.174 82.0023 107.5 83.798C119.265 84.7887 121.375 96.8455 132.5 100.798C147.22 106.028 174 100.798 174 100.798" stroke="white" stroke-width="5"/>
<path d="M-1 163.5C6.47383 165.899 13.1991 166.862 21 165.99C31.5238 164.814 35.8687 152.409 46 155.49C53.9304 157.901 52.7832 167.964 60.5 170.99C67.0443 173.556 78.5 170.99 78.5 170.99C78.5 170.99 93.0065 167.017 102.5 165.49C129.501 161.147 174 168 174 168" stroke="white" stroke-width="5"/>
</g>
<defs>
<clipPath id="clip0_5959_582">
<rect width="173" height="369" fill="white"/>
</clipPath>
</defs>
</svg>
