<svg width="352" height="280" viewBox="0 0 352 280" fill="none" xmlns="http://www.w3.org/2000/svg">
<g clip-path="url(#clip0_70_449)">
<rect width="352" height="280" rx="20" fill="url(#paint0_linear_70_449)" fill-opacity="0.5"/>
<g clip-path="url(#clip1_70_449)">
<path fill-rule="evenodd" clip-rule="evenodd" d="M35 56.1621H201C206.5 56.1621 211 60.6621 211 66.1621V111.162C211 116.762 206.5 121.162 201 121.162H35C29.5 121.162 25 116.762 25 111.162V66.1621C25 60.6621 29.5 56.1621 35 56.1621Z" fill="white"/>
<path fill-rule="evenodd" clip-rule="evenodd" d="M55 106.162C45.6 106.162 38 98.5621 38 89.1621C38 79.7621 45.6 72.1621 55 72.1621C64.4 72.1621 72 79.7621 72 89.1621C72 98.5621 64.4 106.162 55 106.162Z" fill="#F3F3F3"/>
<path d="M92.7 86.6621C91.5667 86.4621 90.6001 85.9954 89.8001 85.2621C89.0001 84.5287 88.5 83.6621 88.3 82.6621L90.4001 82.0621C90.5334 82.5954 90.8 83.0954 91.2 83.5621C91.6 83.9621 92.1 84.2621 92.7 84.4621V79.4621C91.5667 78.9954 90.6667 78.4954 90 77.9621C89.4 77.4287 89.1 76.6621 89.1 75.6621C89.1 74.5954 89.4334 73.7287 90.1 73.0621C90.7667 72.3954 91.6334 71.9621 92.7 71.7621V69.8621H94.8001V71.8621C95.5334 71.9954 96.1667 72.2954 96.7 72.7621C97.1667 73.2287 97.4667 73.7954 97.6 74.4621L95.5 75.0621C95.3667 74.5954 95.1334 74.2621 94.8001 74.0621V78.0621C96.0667 78.5954 97.0334 79.1621 97.7 79.7621C98.3667 80.3621 98.7 81.1621 98.7 82.1621C98.7 83.2954 98.3 84.2621 97.5 85.0621C96.7667 85.8621 95.8667 86.3621 94.8001 86.5621V88.3621H92.7V86.6621ZM91.5 75.5621C91.5 76.1621 91.9 76.6954 92.7 77.1621V73.9621C92.3 74.0954 92.0001 74.3287 91.8001 74.6621C91.6001 74.9287 91.5 75.2287 91.5 75.5621ZM94.8001 84.4621C95.2667 84.2621 95.6334 83.9954 95.9001 83.6621C96.1667 83.2621 96.3001 82.8287 96.3001 82.3621C96.3001 81.8954 96.1667 81.5287 95.9001 81.2621C95.7001 80.9954 95.3334 80.6954 94.8001 80.3621V84.4621ZM99.4001 85.9621C99.4001 85.2287 99.5 84.5287 99.7 83.8621C99.9667 83.1954 100.367 82.5287 100.9 81.8621C101.433 81.1954 102.233 80.4954 103.3 79.7621L103.7 79.3621C104.633 78.6954 105.333 78.1287 105.8 77.6621C106.267 77.1954 106.5 76.5954 106.5 75.8621C106.5 75.2621 106.267 74.7954 105.8 74.4621C105.4 74.0621 104.867 73.8621 104.2 73.8621C103.467 73.8621 102.833 74.0954 102.3 74.5621C101.767 74.9621 101.4 75.5287 101.2 76.2621L99.3001 75.4621C99.6334 74.2621 100.233 73.3621 101.1 72.7621C101.967 72.0954 103.033 71.7621 104.3 71.7621C105.633 71.7621 106.733 72.1621 107.6 72.9621C108.4 73.6954 108.8 74.6621 108.8 75.8621C108.8 76.5954 108.633 77.2621 108.3 77.8621C108.033 78.4621 107.667 78.9621 107.2 79.3621C106.733 79.8287 106.1 80.3621 105.3 80.9621L104.2 81.8621C103.667 82.3287 103.233 82.7287 102.9 83.0621C102.567 83.3954 102.333 83.7621 102.2 84.1621H109.4V86.2621H99.4001V85.9621ZM115.9 86.7621C114.9 86.7621 114 86.5621 113.2 86.1621C112.467 85.7621 111.867 85.2287 111.4 84.5621C111 83.8954 110.8 83.1287 110.8 82.2621C110.8 80.7954 111.567 79.4954 113.1 78.3621C112.567 78.0954 112.167 77.6954 111.9 77.1621C111.633 76.6954 111.5 76.1621 111.5 75.5621C111.5 74.8287 111.7 74.1954 112.1 73.6621C112.433 73.0621 112.933 72.6287 113.6 72.3621C114.267 72.0287 115.033 71.8621 115.9 71.8621C116.7 71.8621 117.433 71.9954 118.1 72.2621C118.767 72.5954 119.3 73.0621 119.7 73.6621C120.1 74.1954 120.3 74.7954 120.3 75.4621C120.3 76.5954 119.733 77.5954 118.6 78.4621C119.4 78.8621 120 79.4287 120.4 80.1621C120.867 80.8287 121.1 81.5621 121.1 82.3621C121.1 83.2287 120.867 83.9954 120.4 84.6621C120 85.3287 119.4 85.8287 118.6 86.1621C117.8 86.5621 116.9 86.7621 115.9 86.7621ZM115.9 84.6621C116.767 84.6621 117.467 84.4287 118 83.9621C118.467 83.5621 118.7 82.9954 118.7 82.2621C118.7 81.5287 118.4 80.8954 117.8 80.3621C117.2 79.8954 116.233 79.4954 114.9 79.1621C113.7 80.0954 113.1 81.1287 113.1 82.2621C113.1 82.9954 113.333 83.5621 113.8 83.9621C114.333 84.4287 115.033 84.6621 115.9 84.6621ZM113.9 75.6621C113.9 76.3954 114.4 76.9287 115.4 77.2621L116.7 77.7621C117.167 77.3621 117.5 76.9954 117.7 76.6621C117.9 76.3287 118 76.0287 118 75.7621C118 75.2287 117.8 74.7954 117.4 74.4621C117 74.1287 116.5 73.9621 115.9 73.9621C115.3 73.9621 114.8 74.1287 114.4 74.4621C114.067 74.7954 113.9 75.1954 113.9 75.6621ZM122 88.9621C122.2 88.6954 122.4 88.3621 122.6 87.9621C122.8 87.6287 122.933 87.3287 123 87.0621C123 86.8621 123 86.6954 123 86.5621C123 86.4287 123 86.2621 123 86.0621C123 85.9287 122.967 85.7954 122.9 85.6621C122.9 85.3954 122.9 85.1954 122.9 85.0621C122.9 84.6621 123 84.3621 123.2 84.1621C123.467 83.8954 123.733 83.7621 124 83.7621C124.333 83.7621 124.633 83.8954 124.9 84.1621C125.1 84.4287 125.2 84.7287 125.2 85.0621C125.2 85.3954 125.167 85.7954 125.1 86.2621C125.033 86.6621 124.933 87.0621 124.8 87.4621C124.6 87.8621 124.367 88.2954 124.1 88.7621C123.833 89.1621 123.533 89.5287 123.2 89.8621L122 88.9621ZM131.3 71.8621C132.367 71.8621 133.3 72.1287 134.1 72.6621C134.967 73.1287 135.633 73.8287 136.1 74.7621C136.567 75.6954 136.8 76.7621 136.8 77.9621C136.8 79.6954 136.4 81.2287 135.6 82.5621C134.867 83.9621 133.8 84.9954 132.4 85.6621C131 86.3954 129.4 86.7621 127.6 86.7621V84.7621C129.4 84.7621 130.9 84.3954 132.1 83.6621C133.233 82.8621 134.033 81.7621 134.5 80.3621C134.1 80.8954 133.6 81.3287 133 81.6621C132.467 81.9287 131.8 82.0621 131 82.0621C130.067 82.0621 129.2 81.8621 128.4 81.4621C127.667 80.9954 127.067 80.3621 126.6 79.5621C126.2 78.7621 126 77.8954 126 76.9621C126 75.9621 126.2 75.0621 126.6 74.2621C127.067 73.5287 127.733 72.9287 128.6 72.4621C129.4 72.0621 130.3 71.8621 131.3 71.8621ZM131.2 73.9621C130.4 73.9621 129.7 74.2621 129.1 74.8621C128.567 75.3954 128.3 76.0954 128.3 76.9621C128.3 77.8287 128.567 78.5287 129.1 79.0621C129.7 79.6621 130.433 79.9621 131.3 79.9621C132.167 79.9621 132.867 79.6621 133.4 79.0621C134 78.5287 134.3 77.8287 134.3 76.9621C134.3 76.0954 134 75.3954 133.4 74.8621C132.8 74.2621 132.067 73.9621 131.2 73.9621ZM144.5 86.5621C143.167 86.5621 142.033 86.1954 141.1 85.4621C140.167 84.7954 139.467 83.8954 139 82.7621C138.533 81.6287 138.3 80.4287 138.3 79.1621C138.3 77.8954 138.533 76.6954 139 75.5621C139.467 74.4287 140.167 73.5287 141.1 72.8621C142.033 72.1954 143.167 71.8621 144.5 71.8621C145.833 71.8621 146.933 72.1954 147.8 72.8621C148.733 73.5954 149.433 74.5287 149.9 75.6621C150.367 76.7954 150.6 77.9954 150.6 79.2621C150.6 80.5287 150.367 81.7287 149.9 82.8621C149.433 83.9287 148.733 84.8287 147.8 85.5621C146.867 86.2287 145.767 86.5621 144.5 86.5621ZM144.5 84.4621C145.7 84.4621 146.633 83.9621 147.3 82.9621C147.9 81.9621 148.2 80.6954 148.2 79.1621C148.2 77.6287 147.867 76.3954 147.2 75.4621C146.6 74.4621 145.7 73.9621 144.5 73.9621C143.233 73.9621 142.267 74.4621 141.6 75.4621C141 76.4621 140.7 77.6954 140.7 79.1621C140.7 80.6954 141 81.9621 141.6 82.9621C142.267 83.9621 143.233 84.4621 144.5 84.4621ZM156.2 86.6621C155.4 86.6621 154.567 86.5287 153.7 86.2621C152.9 85.9287 152.233 85.4954 151.7 84.9621L153 83.2621C153.933 84.1287 155.033 84.5621 156.3 84.5621C157.233 84.5621 157.967 84.2621 158.5 83.6621C159.1 83.0621 159.4 82.3287 159.4 81.4621C159.4 80.5287 159.067 79.8621 158.4 79.4621C157.8 78.9954 156.867 78.7621 155.6 78.7621C154.333 78.7621 153.333 78.8954 152.6 79.1621L152.5 72.1621H160.7V74.3621H154.9V76.8621C155.3 76.7954 155.867 76.7621 156.6 76.7621C158.133 76.7621 159.367 77.1954 160.3 78.0621C161.233 78.9287 161.7 80.0621 161.7 81.4621C161.7 82.4621 161.467 83.3621 161 84.1621C160.533 84.9621 159.867 85.5954 159 86.0621C158.2 86.4621 157.267 86.6621 156.2 86.6621Z" fill="#1F2933"/>
<path d="M95.1001 106.362C94.9001 106.362 94.7001 106.295 94.5001 106.162C94.3001 106.095 94.1334 105.962 94.0001 105.762C93.8668 105.562 93.6334 105.162 93.3001 104.562C93.1001 104.229 92.8668 103.895 92.6001 103.562C92.4001 103.229 92.1001 102.962 91.7001 102.762C91.2334 102.629 90.8001 102.562 90.4001 102.562V106.262H89.1001V96.562H92.3001C92.8334 96.562 93.3334 96.6953 93.8001 96.962C94.2668 97.2287 94.6334 97.5953 94.9001 98.062C95.1668 98.462 95.3001 98.9287 95.3001 99.462C95.3001 99.9287 95.2001 100.362 95.0001 100.762C94.8001 101.162 94.5334 101.462 94.2001 101.662C93.8001 101.929 93.4001 102.062 93.0001 102.062H92.5001C92.7001 102.129 92.9001 102.262 93.1001 102.462C93.3001 102.595 93.5001 102.795 93.7001 103.062C93.7668 103.129 93.9334 103.429 94.2001 103.962C94.5334 104.495 94.7334 104.795 94.8001 104.862C94.9334 105.129 95.1001 105.262 95.3001 105.262C95.3668 105.262 95.4334 105.229 95.5001 105.162L95.9001 106.062C95.7001 106.262 95.4334 106.362 95.1001 106.362ZM92.1001 101.362C92.7001 101.362 93.1668 101.195 93.5001 100.862C93.9001 100.529 94.1001 100.095 94.1001 99.562C94.1001 99.0287 93.9334 98.5953 93.6001 98.262C93.2668 97.9287 92.8001 97.762 92.2001 97.762H90.4001V101.362H92.1001ZM99.1001 106.362C98.3668 106.362 97.7334 106.229 97.2001 105.962C96.6668 105.629 96.2668 105.195 96.0001 104.662C95.7334 104.129 95.6001 103.529 95.6001 102.862C95.6001 102.195 95.7334 101.562 96.0001 100.962C96.2668 100.362 96.6334 99.862 97.1001 99.462C97.6334 99.1287 98.2668 98.962 99.0001 98.962C99.6001 98.962 100.133 99.0953 100.6 99.362C101.067 99.6287 101.4 99.9953 101.6 100.462C101.933 100.929 102.1 101.462 102.1 102.062C102.1 102.462 102.033 102.829 101.9 103.162H96.9001C96.9668 103.762 97.2001 104.262 97.6001 104.662C97.9334 105.062 98.4668 105.262 99.2001 105.262C99.9334 105.262 100.633 104.995 101.3 104.462L101.9 105.362C101.567 105.629 101.133 105.862 100.6 106.062C100.133 106.262 99.6334 106.362 99.1001 106.362ZM100.8 102.062V101.962C100.8 101.429 100.633 100.995 100.3 100.662C99.9001 100.262 99.4668 100.062 99.0001 100.062C98.4668 100.062 98.0001 100.229 97.6001 100.562C97.2668 100.895 97.0334 101.395 96.9001 102.062H100.8ZM102.6 100.962C102.4 100.362 102.1 99.962 101.7 99.762L102.4 98.762C103 99.0953 103.433 99.662 103.7 100.462L105.4 104.562L107.5 99.062H108.8L106 106.262H104.8L102.6 100.962ZM111.9 106.362C111.233 106.362 110.633 106.195 110.1 105.862C109.567 105.595 109.167 105.195 108.9 104.662C108.633 104.129 108.5 103.529 108.5 102.862C108.5 102.129 108.6 101.495 108.8 100.962C109.133 100.362 109.533 99.862 110 99.462C110.533 99.1287 111.133 98.962 111.8 98.962C112.4 98.962 112.933 99.0953 113.4 99.362C113.867 99.6287 114.233 99.9953 114.5 100.462C114.767 100.929 114.9 101.462 114.9 102.062C114.9 102.395 114.867 102.762 114.8 103.162H109.8C109.867 103.762 110.1 104.262 110.5 104.662C110.833 104.995 111.367 105.162 112.1 105.162C112.833 105.162 113.533 104.929 114.2 104.462L114.8 105.262C114.4 105.595 113.967 105.862 113.5 106.062C113.033 106.262 112.5 106.362 111.9 106.362ZM113.7 102.062V101.962C113.7 101.429 113.5 100.995 113.1 100.662C112.767 100.262 112.333 100.062 111.8 100.062C111.333 100.062 110.9 100.229 110.5 100.562C110.167 100.895 109.933 101.395 109.8 102.062H113.7ZM115.7 101.162C115.7 100.495 115.533 99.962 115.2 99.562L116.1 98.862C116.3 98.9953 116.467 99.1953 116.6 99.462C116.733 99.7287 116.833 99.9953 116.9 100.262C117.3 99.862 117.7 99.562 118.1 99.362C118.5 99.0953 118.967 98.962 119.5 98.962C119.967 98.962 120.4 99.0953 120.8 99.362C121.2 99.562 121.5 99.862 121.7 100.262C121.967 100.729 122.1 101.229 122.1 101.762V106.262H120.8V101.962C120.8 101.362 120.667 100.929 120.4 100.662C120.133 100.329 119.733 100.162 119.2 100.162C118.733 100.162 118.3 100.295 117.9 100.562C117.567 100.829 117.267 101.195 117 101.662V106.162H115.7V101.262V101.162ZM129.4 104.062C129.4 104.795 129.567 105.362 129.9 105.762L129 106.462C128.867 106.329 128.7 106.129 128.5 105.862C128.367 105.595 128.267 105.295 128.2 104.962C127.867 105.429 127.467 105.762 127 105.962C126.6 106.162 126.167 106.262 125.7 106.262C125.167 106.262 124.7 106.162 124.3 105.962C123.967 105.762 123.667 105.429 123.4 104.962C123.2 104.562 123.1 104.095 123.1 103.562V99.062H124.3V103.362C124.3 103.962 124.433 104.395 124.7 104.662C125.033 104.995 125.433 105.162 125.9 105.162C126.367 105.162 126.8 105.029 127.2 104.762C127.6 104.495 127.9 104.129 128.1 103.662V99.062H129.4V104.062ZM133.5 106.262C132.833 106.262 132.233 106.095 131.7 105.762C131.167 105.495 130.733 105.095 130.4 104.562C130.133 104.029 130 103.429 130 102.762C130 102.029 130.133 101.395 130.4 100.862C130.667 100.262 131.067 99.762 131.6 99.362C132.133 99.0287 132.733 98.862 133.4 98.862C134 98.862 134.533 98.9953 135 99.262C135.467 99.5287 135.833 99.8953 136.1 100.362C136.367 100.829 136.5 101.362 136.5 101.962C136.5 102.295 136.467 102.662 136.4 103.062H131.4C131.467 103.662 131.667 104.162 132 104.562C132.4 104.895 132.967 105.062 133.7 105.062C134.433 105.062 135.1 104.829 135.7 104.362L136.3 105.162C135.967 105.495 135.567 105.762 135.1 105.962C134.567 106.162 134.033 106.262 133.5 106.262ZM135.2 101.962V101.862C135.267 101.329 135.1 100.895 134.7 100.562C134.367 100.162 133.933 99.962 133.4 99.962C132.933 99.962 132.5 100.129 132.1 100.462C131.7 100.795 131.467 101.295 131.4 101.962H135.2Z" fill="#4D4D4D"/>
<path d="M62.2 96.8621C61.5333 96.8621 60.8999 96.8621 60.2999 96.8621C59.9999 96.8621 59.9999 96.8621 59.9999 96.5621C60.0666 95.3621 60.0666 94.1621 59.9999 92.9621C59.9999 91.6287 59.9999 90.3287 59.9999 89.0621C59.9999 88.5287 59.9999 87.9954 59.9999 87.4621C59.9999 87.2621 59.9333 87.1954 59.7999 87.2621C59.5999 87.2621 59.4 87.2621 59.2 87.2621C59 87.2621 58.9 87.1621 58.9 87.0621C58.8 86.9621 58.8 86.8621 58.9 86.7621C59.6333 85.6287 60.3666 84.5287 61.0999 83.4621C61.2999 83.1621 61.3999 83.1621 61.5999 83.4621C62.3999 84.5287 63.1666 85.6287 63.9 86.7621C64.1 86.9621 64 87.1621 63.7 87.2621C63.4333 87.2621 63.1666 87.2621 62.9 87.2621C62.8333 87.2621 62.7999 87.2621 62.7999 87.2621C62.6999 87.2621 62.7999 87.3621 62.7999 87.4621C62.7999 90.4621 62.7999 93.4954 62.7999 96.5621C62.7999 96.8621 62.7999 96.8621 62.4999 96.8621C62.3666 96.8621 62.2666 96.8621 62.2 96.8621Z" fill="#666666"/>
<path d="M59.1 79.7621C59.4333 80.5621 59.7667 81.3955 60.1 82.2621C60.1667 82.3288 60.1667 82.4288 60.1 82.5621C59.9667 82.6288 59.8333 82.6288 59.7 82.5621C59.4333 82.4288 59.1667 82.2955 58.9 82.1621C58.8333 82.1621 58.7667 82.1621 58.7 82.1621C58.5 82.3621 58.5 82.5621 58.4 82.7621C58.0667 83.8288 57.6 84.8621 57 85.8621C56.1 87.3621 54.9 88.5621 53.6 89.6621C52.1 91.0621 50.3 92.0621 48.4 92.7621C48 92.8621 47.6 92.7621 47.3 92.4621C46.8 92.0621 47 91.1621 47.6 90.9621C49.8 90.1621 51.7333 88.9621 53.4 87.3621C54.7333 86.0288 55.7667 84.4621 56.5 82.6621C56.6 82.3621 56.7 81.9621 56.8 81.6621C56.8667 81.4621 56.8 81.3288 56.6 81.2621C56.3333 81.1288 56.0667 81.0288 55.8 80.9621C55.7 80.8621 55.5 80.7621 55.5 80.6621C55.5 80.4621 55.7 80.4621 55.8 80.3621C56.7333 80.0288 57.6667 79.6621 58.6 79.2621C58.7 79.1621 58.8 79.2621 58.9 79.3621C58.9667 79.4955 59.0333 79.6288 59.1 79.7621Z" fill="#666666"/>
<path d="M56.3999 91.162C56.3999 90.8953 56.3999 90.6287 56.3999 90.362C56.4666 90.162 56.5666 90.062 56.6999 90.062C57.4332 90.062 58.1332 90.062 58.7999 90.062C59.0999 90.062 59.1999 90.162 59.1999 90.462C59.1999 91.5953 59.1999 92.7287 59.1999 93.862C59.1999 94.7287 59.1999 95.6287 59.1999 96.562C59.1999 96.762 59.1999 96.862 58.8999 96.862C58.1666 96.862 57.4332 96.862 56.6999 96.862C56.4999 96.862 56.3999 96.862 56.3999 96.562C56.3999 94.762 56.3999 92.962 56.3999 91.162Z" fill="#666666"/>
<path d="M53.8 96.8621C53.5334 96.8621 53.2667 96.8621 53 96.8621C52.8667 96.8621 52.8 96.7954 52.8 96.6621C52.8 95.2621 52.8 93.8621 52.8 92.4621C52.8 92.2621 52.9 92.1621 53.1 92.1621C53.8334 92.1621 54.5667 92.1621 55.3 92.1621C55.5 92.1621 55.6 92.2954 55.6 92.5621C55.5334 93.1621 55.5 93.7621 55.5 94.3621C55.5 95.0954 55.5334 95.8288 55.6 96.5621C55.6 96.7621 55.5 96.8621 55.3 96.8621C54.7667 96.8621 54.2667 96.8621 53.8 96.8621Z" fill="#666666"/>
<path d="M49.2 96.762C49.2 95.8287 49.2 94.8953 49.2 93.962C49.2 93.6953 49.3333 93.562 49.6 93.562C50.0666 93.562 50.5333 93.562 51 93.562C51.2 93.562 51.3666 93.562 51.5 93.562C51.8333 93.562 52 93.6953 52 93.962C52 94.8287 52 95.6953 52 96.562C52 96.862 51.9 96.862 51.7 96.862C50.9666 96.862 50.2333 96.862 49.5 96.862C49.4 96.862 49.3 96.862 49.2 96.762Z" fill="#666666"/>
<path d="M52.5999 98.4622C54.9999 98.4622 57.3666 98.4622 59.6999 98.4622C60.8332 98.4622 61.9666 98.4622 63.0999 98.4622C63.2332 98.4622 63.3332 98.4622 63.3999 98.4622C63.4999 98.5622 63.5999 98.5622 63.5999 98.7622C63.5999 98.8955 63.5332 98.9622 63.3999 98.9622C63.3332 98.9622 63.2332 98.9622 63.0999 98.9622C59.2999 98.9622 55.4999 98.9622 51.6999 98.9622C50.5666 98.9622 49.4332 98.9622 48.2999 98.9622C48.2332 98.9622 48.1666 98.9622 48.0999 98.9622C47.9666 98.9622 47.8999 98.8955 47.8999 98.7622C47.8999 98.6288 47.9666 98.5288 48.0999 98.4622C48.1666 98.4622 48.2666 98.4622 48.3999 98.4622C49.7999 98.4622 51.1999 98.4622 52.5999 98.4622Z" fill="#666666"/>
</g>
<g filter="url(#filter0_f_70_449)">
<ellipse cx="17" cy="158.5" rx="41" ry="48.5" fill="url(#paint1_linear_70_449)"/>
</g>
<g clip-path="url(#clip2_70_449)">
<path d="M278.5 2.30859H319C325.627 2.30859 331 7.68117 331 14.3086V166.308C331 172.936 325.627 178.308 319 178.308H278.5" stroke="#BCBD89" stroke-width="1.6" stroke-dasharray="6 6"/>
</g>
<g clip-path="url(#clip3_70_449)">
<path fill-rule="evenodd" clip-rule="evenodd" d="M115 -16.8379H281C286.5 -16.8379 291 -12.3379 291 -6.83789V38.1621C291 43.7621 286.5 48.1621 281 48.1621H115C109.5 48.1621 105 43.7621 105 38.1621V-6.83789C105 -12.3379 109.5 -16.8379 115 -16.8379Z" fill="white"/>
<path fill-rule="evenodd" clip-rule="evenodd" d="M135 33.1621C125.6 33.1621 118 25.5621 118 16.1621C118 6.76211 125.6 -0.837891 135 -0.837891C144.4 -0.837891 152 6.76211 152 16.1621C152 25.5621 144.4 33.1621 135 33.1621Z" fill="#F3F3F3"/>
<path d="M133.6 16.862C135.8 17.562 137.2 18.962 137.8 21.162C137.9 21.662 138 22.062 138 22.562C137.9 22.962 137.7 23.162 137.3 23.162C137.167 23.162 137.033 23.162 136.9 23.162C135 23.162 133.2 23.162 131.3 23.162C129.767 23.162 128.233 23.162 126.7 23.162C126.2 23.162 126 22.962 126 22.462C126.133 20.062 127.267 18.2953 129.4 17.162C130.2 16.8287 131.033 16.6287 131.9 16.562C132.433 16.562 133 16.662 133.6 16.862Z" fill="#666666"/>
<path d="M129.9 9.96214C130.7 9.36214 131.6 9.06214 132.5 9.26214C133.633 9.46214 134.467 10.0955 135 11.1621C135.8 12.9621 134.8 15.0621 132.9 15.6621C130.7 16.2621 128.9 14.6621 128.7 12.8621C128.633 11.6621 129.033 10.6955 129.9 9.96214Z" fill="#666666"/>
<path d="M137.6 18.262C137.3 17.962 137 17.662 136.6 17.262C137.067 16.9954 137.533 16.8287 138 16.762C139.6 16.462 141 16.962 142 18.162C142.8 18.862 143.1 19.7621 143.1 20.8621C143.167 21.3287 142.933 21.5621 142.4 21.5621C141.8 21.5621 141.167 21.5621 140.5 21.5621C140.033 21.5621 139.6 21.5621 139.2 21.5621C139 21.5621 138.9 21.4954 138.9 21.3621C138.7 20.2287 138.267 19.1954 137.6 18.262Z" fill="#666666"/>
<path d="M137.9 11.3621C139.2 10.8621 140.6 11.4621 141.1 12.6621C141.6 13.9621 141 15.3621 139.8 15.8621C138.5 16.4621 137.1 15.7621 136.5 14.4621C136.1 13.2621 136.7 11.8621 137.9 11.3621Z" fill="#666666"/>
<path d="M173.7 13.5622C172.833 13.5622 172 13.4289 171.2 13.1622C170.4 12.8289 169.733 12.3955 169.2 11.8622L170.4 10.1622C171.4 11.0289 172.5 11.4622 173.7 11.4622C174.633 11.4622 175.367 11.1622 175.9 10.5622C176.5 9.96221 176.8 9.22887 176.8 8.36221C176.8 7.42887 176.5 6.76221 175.9 6.36221C175.3 5.89554 174.367 5.66221 173.1 5.66221C171.767 5.66221 170.733 5.79554 170 6.06221V-0.937794H178.1V1.26221H172.3V3.76221C172.7 3.69554 173.267 3.66221 174 3.66221C175.533 3.66221 176.767 4.09554 177.7 4.96221C178.633 5.82887 179.1 6.96221 179.1 8.36221C179.1 9.36221 178.867 10.2622 178.4 11.0622C177.933 11.8622 177.3 12.4955 176.5 12.9622C175.633 13.3622 174.7 13.5622 173.7 13.5622ZM186 13.6622C185 13.6622 184.1 13.4622 183.3 13.0622C182.5 12.6622 181.9 12.1289 181.5 11.4622C181.033 10.7955 180.8 10.0289 180.8 9.16221C180.8 7.69554 181.567 6.39554 183.1 5.26221C182.633 4.99554 182.267 4.59554 182 4.06221C181.733 3.59554 181.6 3.06221 181.6 2.46221C181.6 1.72887 181.767 1.09554 182.1 0.562206C182.5 0.028873 183.033 -0.40446 183.7 -0.737793C184.367 -1.07113 185.1 -1.23779 185.9 -1.23779C186.767 -1.23779 187.533 -1.10446 188.2 -0.837793C188.867 -0.50446 189.4 -0.0377938 189.8 0.562206C190.2 1.09554 190.4 1.69554 190.4 2.36221C190.4 3.49554 189.833 4.49554 188.7 5.36221C189.5 5.76221 190.1 6.32887 190.5 7.06221C190.9 7.72887 191.1 8.46221 191.1 9.26221C191.1 10.1289 190.867 10.8955 190.4 11.5622C190 12.2289 189.4 12.7289 188.6 13.0622C187.867 13.4622 187 13.6622 186 13.6622ZM186 11.5622C186.867 11.5622 187.533 11.3289 188 10.8622C188.533 10.4622 188.8 9.89554 188.8 9.16221C188.8 8.42887 188.5 7.79554 187.9 7.26221C187.3 6.79554 186.333 6.39554 185 6.06221C183.733 6.99554 183.1 8.02887 183.1 9.16221C183.1 9.89554 183.367 10.4622 183.9 10.8622C184.433 11.3289 185.133 11.5622 186 11.5622ZM183.9 2.56221C183.9 3.29554 184.433 3.82887 185.5 4.16221L186.8 4.66221C187.267 4.26221 187.567 3.89554 187.7 3.56221C187.9 3.22887 188 2.92887 188 2.66221C188 2.12887 187.8 1.69554 187.4 1.36221C187.067 1.02887 186.6 0.862207 186 0.862207C185.4 0.862207 184.9 1.02887 184.5 1.36221C184.1 1.69554 183.9 2.09554 183.9 2.56221ZM197.7 -1.23779C198.767 -1.23779 199.7 -0.971127 200.5 -0.437794C201.3 0.028873 201.933 0.728873 202.4 1.66221C202.867 2.59554 203.1 3.66221 203.1 4.86221C203.1 6.59554 202.733 8.12887 202 9.46221C201.267 10.8622 200.2 11.8955 198.8 12.5622C197.4 13.2955 195.8 13.6622 194 13.6622V11.6622C195.733 11.6622 197.2 11.2955 198.4 10.5622C199.6 9.76221 200.433 8.66221 200.9 7.26221C200.5 7.79554 200 8.22887 199.4 8.56221C198.8 8.82887 198.133 8.96221 197.4 8.96221C196.4 8.96221 195.533 8.76221 194.8 8.36221C194 7.89554 193.4 7.26221 193 6.46221C192.533 5.66221 192.3 4.79554 192.3 3.86221C192.3 2.86221 192.533 1.96221 193 1.16221C193.467 0.428873 194.1 -0.171126 194.9 -0.637793C195.767 -1.03779 196.7 -1.23779 197.7 -1.23779ZM197.6 0.862207C196.733 0.862207 196.033 1.16221 195.5 1.76221C194.967 2.29554 194.7 2.99554 194.7 3.86221C194.7 4.72887 194.967 5.42887 195.5 5.96221C196.1 6.56221 196.8 6.86221 197.6 6.86221C198.467 6.86221 199.2 6.56221 199.8 5.96221C200.333 5.42887 200.6 4.72887 200.6 3.86221C200.6 2.99554 200.333 2.29554 199.8 1.76221C199.2 1.16221 198.467 0.862207 197.6 0.862207Z" fill="#1F2933"/>
<path d="M172.3 23.3622H172.8L176.9 33.1622H175.5L174.4 30.3622H170.7L169.5 33.1622H168.1L172.3 23.3622ZM173.9 29.2622L172.7 26.1622L172.6 25.6622L172.5 26.1622L171.3 29.2622H173.9ZM180.3 33.3622C179.633 33.3622 179.033 33.2289 178.5 32.9622C177.967 32.6289 177.567 32.1955 177.3 31.6622C176.967 31.1289 176.8 30.4955 176.8 29.7622C176.8 29.0289 176.967 28.3622 177.3 27.7622C177.567 27.2289 177.967 26.7955 178.5 26.4622C179.1 26.1289 179.733 25.9622 180.4 25.9622C180.867 25.9622 181.333 26.0622 181.8 26.2622C182.2 26.4622 182.533 26.6955 182.8 26.9622L182 27.7622C181.8 27.5622 181.567 27.3955 181.3 27.2622C181.033 27.1955 180.767 27.1622 180.5 27.1622C179.767 27.1622 179.167 27.3955 178.7 27.8622C178.3 28.3289 178.1 28.9622 178.1 29.7622C178.1 30.5622 178.3 31.1622 178.7 31.5622C179.1 32.0289 179.667 32.2622 180.4 32.2622C180.733 32.2622 181.067 32.1955 181.4 32.0622C181.733 31.9955 182.1 31.8289 182.5 31.5622L183 32.5622C182.6 32.8289 182.167 33.0289 181.7 33.1622C181.233 33.2955 180.767 33.3622 180.3 33.3622ZM186.1 33.4622C185.433 33.4622 184.933 33.2622 184.6 32.8622C184.2 32.4622 184 31.8955 184 31.1622V27.3622H183.1V26.2622H184V24.2622H185.3V26.2622H187.3V27.3622H185.3V31.0622C185.3 31.4622 185.367 31.7622 185.5 31.9622C185.633 32.0955 185.9 32.1622 186.3 32.1622C186.633 32.1622 186.9 32.0955 187.1 31.9622L187.7 32.8622C187.3 33.2622 186.767 33.4622 186.1 33.4622ZM188.2 26.1622L189.5 26.2622V33.2622H188.2V26.1622ZM188.8 25.2622C188.533 25.2622 188.333 25.1955 188.2 25.0622C188.067 24.8622 188 24.6622 188 24.4622C188 24.2622 188.067 24.0955 188.2 23.9622C188.333 23.7622 188.533 23.6622 188.8 23.6622C189 23.6622 189.167 23.7622 189.3 23.9622C189.433 24.0955 189.5 24.2622 189.5 24.4622C189.5 24.6622 189.433 24.8622 189.3 25.0622C189.167 25.1955 189 25.2622 188.8 25.2622ZM190.7 27.8622C190.433 27.2622 190.133 26.8622 189.8 26.6622L190.5 25.7622C191.033 26.0289 191.467 26.5622 191.8 27.3622L193.5 31.4622L195.5 26.0622H196.9L194.1 33.1622H192.9L190.7 27.8622ZM200 33.2622C199.267 33.2622 198.633 33.1289 198.1 32.8622C197.633 32.5289 197.233 32.0955 196.9 31.5622C196.633 31.0289 196.5 30.4289 196.5 29.7622C196.5 29.0955 196.633 28.4622 196.9 27.8622C197.167 27.2622 197.567 26.7955 198.1 26.4622C198.567 26.0622 199.167 25.8622 199.9 25.8622C200.5 25.8622 201.033 25.9955 201.5 26.2622C201.967 26.5289 202.333 26.8955 202.6 27.3622C202.867 27.8289 203 28.3622 203 28.9622C203 29.3622 202.967 29.7289 202.9 30.0622H197.8C197.933 30.6622 198.167 31.1622 198.5 31.5622C198.9 31.9622 199.433 32.1622 200.1 32.1622C200.9 32.1622 201.6 31.8955 202.2 31.3622L202.8 32.2622C202.467 32.5955 202.067 32.8289 201.6 32.9622C201.067 33.1622 200.533 33.2622 200 33.2622ZM201.7 28.9622V28.8622C201.7 28.3289 201.533 27.8955 201.2 27.5622C200.867 27.2289 200.433 27.0622 199.9 27.0622C199.367 27.0622 198.933 27.1955 198.6 27.4622C198.2 27.7955 197.967 28.2955 197.9 28.9622H201.7ZM210.6 33.4622C209.667 33.4622 208.833 33.2622 208.1 32.8622C207.367 32.3955 206.767 31.7955 206.3 31.0622C205.9 30.3289 205.7 29.4289 205.7 28.3622C205.7 27.3622 205.9 26.4955 206.3 25.7622C206.767 24.9622 207.367 24.3289 208.1 23.8622C208.833 23.4622 209.667 23.2622 210.6 23.2622C211.2 23.2622 211.767 23.3622 212.3 23.5622C212.833 23.7622 213.267 24.0622 213.6 24.4622C213.933 24.8622 214.167 25.2622 214.3 25.6622L213.2 25.9622C213 25.4955 212.7 25.1289 212.3 24.8622C211.9 24.5289 211.333 24.3622 210.6 24.3622C209.933 24.3622 209.333 24.5622 208.8 24.9622C208.2 25.2955 207.733 25.7622 207.4 26.3622C207.133 26.9622 207 27.6622 207 28.4622C207 29.1955 207.133 29.8622 207.4 30.4622C207.733 31.0622 208.2 31.5289 208.8 31.8622C209.333 32.1289 209.933 32.2622 210.6 32.2622C211.267 32.2622 211.833 32.1622 212.3 31.9622C212.833 31.6955 213.233 31.3289 213.5 30.8622L214.4 31.4622C214.067 32.0622 213.533 32.5622 212.8 32.9622C212.133 33.2955 211.4 33.4622 210.6 33.4622ZM221.2 31.0622C221.2 31.7955 221.367 32.3622 221.7 32.7622L220.8 33.4622C220.6 33.3289 220.433 33.1289 220.3 32.8622C220.167 32.5955 220.067 32.2955 220 31.9622C219.667 32.4289 219.267 32.7622 218.8 32.9622C218.4 33.1622 217.967 33.2622 217.5 33.2622C216.967 33.2622 216.5 33.1622 216.1 32.9622C215.767 32.7622 215.467 32.4289 215.2 31.9622C215 31.5622 214.9 31.0955 214.9 30.5622V26.0622H216.1V30.3622C216.1 30.9622 216.233 31.3955 216.5 31.6622C216.833 31.9955 217.233 32.1622 217.7 32.1622C218.167 32.1622 218.6 32.0289 219 31.7622C219.4 31.4955 219.7 31.1289 219.9 30.6622V26.0622H221.2V31.0622ZM224.5 33.3622C223.433 33.3622 222.5 32.9289 221.7 32.0622L222.4 31.3622C223.067 31.8955 223.733 32.1622 224.4 32.1622C224.867 32.1622 225.233 32.0622 225.5 31.8622C225.767 31.6622 225.9 31.3955 225.9 31.0622C225.9 30.7955 225.767 30.5955 225.5 30.4622C225.367 30.3289 225.033 30.1622 224.5 29.9622L224.2 29.8622C223.733 29.6622 223.367 29.4622 223.1 29.2622C222.767 29.1289 222.533 28.9289 222.4 28.6622C222.2 28.4622 222.1 28.1955 222.1 27.8622C222.1 27.2622 222.333 26.7622 222.8 26.3622C223.267 25.9622 223.833 25.7622 224.5 25.7622C224.9 25.7622 225.3 25.8289 225.7 25.9622C226.1 26.0955 226.433 26.2622 226.7 26.4622L226.1 27.3622C225.7 27.0955 225.2 26.9622 224.6 26.9622C224.267 26.9622 224 27.0289 223.8 27.1622C223.533 27.2955 223.4 27.4955 223.4 27.7622C223.4 27.8955 223.467 28.0289 223.6 28.1622C223.733 28.2955 223.867 28.3955 224 28.4622C224.2 28.5289 224.5 28.6622 224.9 28.8622C225.433 29.0622 225.833 29.2622 226.1 29.4622C226.433 29.5955 226.7 29.7955 226.9 30.0622C227.1 30.3289 227.2 30.6622 227.2 31.0622C227.2 31.5289 227.067 31.9289 226.8 32.2622C226.6 32.5955 226.3 32.8622 225.9 33.0622C225.5 33.2622 225.033 33.3622 224.5 33.3622ZM230.1 33.2622C229.433 33.2622 228.933 33.0955 228.6 32.7622C228.2 32.3622 228 31.7622 228 30.9622V27.1622H227V26.0622H228V24.1622H229.3V26.0622H231.2V27.1622H229.3V30.9622C229.3 31.3622 229.367 31.6622 229.5 31.8622C229.633 31.9955 229.867 32.0622 230.2 32.0622C230.533 32.0622 230.833 31.9622 231.1 31.7622L231.7 32.7622C231.233 33.0955 230.7 33.2622 230.1 33.2622ZM235 33.3622C234.333 33.3622 233.7 33.1955 233.1 32.8622C232.567 32.5289 232.167 32.0955 231.9 31.5622C231.567 30.9622 231.4 30.2955 231.4 29.5622C231.4 28.8955 231.567 28.2622 231.9 27.6622C232.167 27.0622 232.567 26.6289 233.1 26.3622C233.7 26.0289 234.333 25.8622 235 25.8622C235.667 25.8622 236.267 26.0289 236.8 26.3622C237.333 26.6289 237.767 27.0622 238.1 27.6622C238.367 28.2622 238.5 28.8955 238.5 29.5622C238.5 30.2955 238.367 30.9622 238.1 31.5622C237.767 32.0955 237.333 32.5289 236.8 32.8622C236.267 33.1955 235.667 33.3622 235 33.3622ZM235 32.1622C235.4 32.1622 235.8 32.0622 236.2 31.8622C236.533 31.6622 236.8 31.3622 237 30.9622C237.2 30.5622 237.3 30.0955 237.3 29.5622C237.3 29.0955 237.2 28.6622 237 28.2622C236.8 27.8622 236.533 27.5622 236.2 27.3622C235.8 27.0955 235.4 26.9622 235 26.9622C234.333 26.9622 233.767 27.2289 233.3 27.7622C232.9 28.2289 232.7 28.8289 232.7 29.5622C232.7 30.3622 232.9 30.9955 233.3 31.4622C233.767 31.9289 234.333 32.1622 235 32.1622ZM248.1 28.4622C248.1 27.9955 247.967 27.6622 247.7 27.4622C247.5 27.1955 247.2 27.0622 246.8 27.0622C246 27.0622 245.367 27.4622 244.9 28.2622V33.0622H243.7V28.5622C243.7 28.0955 243.567 27.7289 243.3 27.4622C243.1 27.1955 242.8 27.0622 242.4 27.0622C242 27.0622 241.633 27.1622 241.3 27.3622C240.967 27.5622 240.7 27.8622 240.5 28.2622V33.0622H239.3V28.1622V28.0622C239.3 27.3955 239.1 26.8622 238.7 26.4622L239.6 25.7622C239.8 25.8955 239.967 26.0622 240.1 26.2622C240.233 26.4622 240.333 26.6955 240.4 26.9622C240.667 26.6289 240.967 26.3622 241.3 26.1622C241.7 25.9622 242.1 25.8622 242.5 25.8622C242.9 25.8622 243.333 25.9622 243.8 26.1622C244.2 26.3622 244.5 26.6622 244.7 27.0622C244.967 26.6622 245.3 26.3622 245.7 26.1622C246.033 25.9622 246.433 25.8622 246.9 25.8622C247.633 25.8622 248.2 26.0622 248.6 26.4622C249.067 26.9289 249.3 27.5622 249.3 28.3622V33.0622H248.1V28.4622ZM253.5 33.3622C252.767 33.3622 252.133 33.1955 251.6 32.8622C251.067 32.5289 250.667 32.1289 250.4 31.6622C250.133 31.0622 250 30.4289 250 29.7622C250 29.0955 250.133 28.4622 250.4 27.8622C250.667 27.2622 251.033 26.7955 251.5 26.4622C252.033 26.0622 252.667 25.8622 253.4 25.8622C254 25.8622 254.533 25.9955 255 26.2622C255.467 26.5289 255.833 26.9289 256.1 27.4622C256.367 27.9289 256.5 28.4289 256.5 28.9622C256.5 29.3622 256.467 29.7289 256.4 30.0622H251.3C251.367 30.6622 251.6 31.1622 252 31.5622C252.4 31.9622 252.933 32.1622 253.6 32.1622C254.4 32.1622 255.1 31.9289 255.7 31.4622L256.3 32.2622C255.967 32.5955 255.533 32.8622 255 33.0622C254.533 33.2622 254.033 33.3622 253.5 33.3622ZM255.2 28.9622V28.8622C255.2 28.3289 255.033 27.8955 254.7 27.5622C254.367 27.2289 253.933 27.0622 253.4 27.0622C252.867 27.0622 252.433 27.2289 252.1 27.5622C251.7 27.8955 251.433 28.3622 251.3 28.9622H255.2ZM257.3 28.1622C257.3 27.4955 257.1 26.9622 256.7 26.5622L257.6 25.7622C257.8 25.9622 257.967 26.1622 258.1 26.3622C258.233 26.5622 258.333 26.8289 258.4 27.1622C258.667 26.8289 258.933 26.5622 259.2 26.3622C259.467 26.1622 259.767 26.0289 260.1 25.9622C260.233 25.9622 260.4 25.9622 260.6 25.9622C260.8 25.9622 261 25.9622 261.2 25.9622L261 27.1622C260.933 27.1622 260.867 27.1622 260.8 27.1622C260.667 27.1622 260.567 27.1622 260.5 27.1622C260.033 27.1622 259.633 27.2955 259.3 27.5622C258.967 27.8289 258.7 28.1622 258.5 28.5622V33.1622H257.3V28.1622ZM263.4 33.4622C262.267 33.4622 261.333 33.0289 260.6 32.1622L261.3 31.3622C261.9 31.9622 262.567 32.2622 263.3 32.2622C263.7 32.2622 264.033 32.1622 264.3 31.9622C264.567 31.7622 264.7 31.4955 264.7 31.1622C264.7 30.8955 264.6 30.6955 264.4 30.5622C264.2 30.4289 263.867 30.2622 263.4 30.0622L263.1 29.9622C262.633 29.7622 262.233 29.5622 261.9 29.3622C261.633 29.2289 261.4 29.0289 261.2 28.7622C261.067 28.5622 261 28.2622 261 27.8622C261 27.2622 261.233 26.7955 261.7 26.4622C262.167 26.0622 262.733 25.8622 263.4 25.8622C263.8 25.8622 264.2 25.9289 264.6 26.0622C265 26.1955 265.3 26.3622 265.5 26.5622L265 27.4622C264.533 27.1955 264.033 27.0622 263.5 27.0622C263.167 27.0622 262.867 27.1289 262.6 27.2622C262.4 27.3955 262.3 27.5622 262.3 27.7622C262.3 27.9622 262.333 28.1289 262.4 28.2622C262.533 28.3955 262.7 28.4955 262.9 28.5622C263.033 28.6289 263.3 28.7622 263.7 28.9622C264.233 29.1622 264.667 29.3622 265 29.5622C265.267 29.6955 265.5 29.8955 265.7 30.1622C265.9 30.4289 266 30.7622 266 31.1622C266 31.6289 265.9 32.0289 265.7 32.3622C265.433 32.6955 265.1 32.9622 264.7 33.1622C264.3 33.3622 263.867 33.4622 263.4 33.4622Z" fill="#4D4D4D"/>
</g>
<g clip-path="url(#clip4_70_449)">
<path fill-rule="evenodd" clip-rule="evenodd" d="M115 129.162H281C286.5 129.162 291 133.662 291 139.162V184.162C291 189.762 286.5 194.162 281 194.162H115C109.5 194.162 105 189.762 105 184.162V139.162C105 133.662 109.5 129.162 115 129.162Z" fill="white"/>
<path fill-rule="evenodd" clip-rule="evenodd" d="M135 179.162C125.6 179.162 118 171.562 118 162.162C118 152.762 125.6 145.162 135 145.162C144.4 145.162 152 152.762 152 162.162C152 171.562 144.4 179.162 135 179.162Z" fill="#F3F3F3"/>
<path d="M171.7 159.662C170.567 159.462 169.6 158.995 168.8 158.262C168 157.529 167.5 156.662 167.3 155.662L169.4 155.062C169.533 155.595 169.8 156.095 170.2 156.562C170.6 156.962 171.1 157.262 171.7 157.462V152.462C170.567 151.995 169.667 151.495 169 150.962C168.4 150.429 168.1 149.662 168.1 148.662C168.1 147.595 168.433 146.729 169.1 146.062C169.767 145.395 170.633 144.962 171.7 144.762V142.862H173.8V144.862C174.533 144.995 175.167 145.295 175.7 145.762C176.167 146.229 176.467 146.795 176.6 147.462L174.5 148.062C174.367 147.595 174.133 147.262 173.8 147.062V151.062C175.067 151.595 176.033 152.162 176.7 152.762C177.367 153.362 177.7 154.162 177.7 155.162C177.7 156.295 177.3 157.262 176.5 158.062C175.767 158.862 174.867 159.362 173.8 159.562V161.362H171.7V159.662ZM170.5 148.562C170.5 149.162 170.9 149.695 171.7 150.162V146.962C171.3 147.095 171 147.329 170.8 147.662C170.6 147.929 170.5 148.229 170.5 148.562ZM173.8 157.462C174.267 157.262 174.633 156.995 174.9 156.662C175.167 156.262 175.3 155.829 175.3 155.362C175.3 154.895 175.167 154.529 174.9 154.262C174.7 153.995 174.333 153.695 173.8 153.362V157.462ZM178.4 158.962C178.4 158.229 178.5 157.529 178.7 156.862C178.967 156.195 179.367 155.529 179.9 154.862C180.433 154.195 181.233 153.495 182.3 152.762L182.7 152.362C183.633 151.695 184.333 151.129 184.8 150.662C185.267 150.195 185.5 149.595 185.5 148.862C185.5 148.262 185.267 147.795 184.8 147.462C184.4 147.062 183.867 146.862 183.2 146.862C182.467 146.862 181.833 147.095 181.3 147.562C180.767 147.962 180.4 148.529 180.2 149.262L178.3 148.462C178.633 147.262 179.233 146.362 180.1 145.762C180.967 145.095 182.033 144.762 183.3 144.762C184.633 144.762 185.733 145.162 186.6 145.962C187.4 146.695 187.8 147.662 187.8 148.862C187.8 149.595 187.633 150.262 187.3 150.862C187.033 151.462 186.667 151.962 186.2 152.362C185.733 152.829 185.1 153.362 184.3 153.962L183.2 154.862C182.667 155.329 182.233 155.729 181.9 156.062C181.567 156.395 181.333 156.762 181.2 157.162H188.4V159.262H178.4V158.962ZM189.4 161.962C189.6 161.695 189.8 161.362 190 160.962C190.133 160.629 190.233 160.329 190.3 160.062C190.367 159.862 190.4 159.695 190.4 159.562C190.4 159.429 190.4 159.262 190.4 159.062C190.333 158.929 190.3 158.795 190.3 158.662C190.233 158.395 190.2 158.195 190.2 158.062C190.2 157.662 190.333 157.362 190.6 157.162C190.8 156.895 191.067 156.762 191.4 156.762C191.733 156.762 192 156.895 192.2 157.162C192.467 157.429 192.6 157.729 192.6 158.062C192.6 158.395 192.567 158.795 192.5 159.262C192.433 159.662 192.3 160.062 192.1 160.462C191.967 160.862 191.767 161.295 191.5 161.762C191.233 162.162 190.933 162.529 190.6 162.862L189.4 161.962ZM198.7 144.862C199.767 144.862 200.7 145.129 201.5 145.662C202.367 146.129 203 146.829 203.4 147.762C203.867 148.695 204.1 149.762 204.1 150.962C204.1 152.695 203.733 154.229 203 155.562C202.267 156.962 201.2 157.995 199.8 158.662C198.4 159.395 196.8 159.762 195 159.762V157.762C196.733 157.762 198.2 157.395 199.4 156.662C200.6 155.862 201.433 154.762 201.9 153.362C201.5 153.895 201 154.329 200.4 154.662C199.8 154.929 199.133 155.062 198.4 155.062C197.4 155.062 196.533 154.862 195.8 154.462C195.067 153.995 194.467 153.362 194 152.562C193.533 151.762 193.3 150.895 193.3 149.962C193.3 148.962 193.533 148.062 194 147.262C194.467 146.529 195.133 145.929 196 145.462C196.8 145.062 197.7 144.862 198.7 144.862ZM198.6 146.962C197.733 146.962 197.033 147.262 196.5 147.862C195.967 148.395 195.7 149.095 195.7 149.962C195.7 150.829 195.967 151.529 196.5 152.062C197.1 152.662 197.8 152.962 198.6 152.962C199.467 152.962 200.2 152.662 200.8 152.062C201.333 151.529 201.6 150.829 201.6 149.962C201.6 149.095 201.333 148.395 200.8 147.862C200.2 147.262 199.467 146.962 198.6 146.962ZM211.8 159.562C210.467 159.562 209.367 159.195 208.5 158.462C207.567 157.795 206.867 156.895 206.4 155.762C205.933 154.629 205.7 153.429 205.7 152.162C205.7 150.895 205.933 149.695 206.4 148.562C206.867 147.429 207.567 146.529 208.5 145.862C209.433 145.195 210.533 144.862 211.8 144.862C213.133 144.862 214.267 145.195 215.2 145.862C216.133 146.595 216.833 147.529 217.3 148.662C217.7 149.795 217.9 150.995 217.9 152.262C217.9 153.529 217.7 154.729 217.3 155.862C216.833 156.929 216.133 157.829 215.2 158.562C214.267 159.229 213.133 159.562 211.8 159.562ZM211.8 157.462C213.067 157.462 214 156.962 214.6 155.962C215.267 154.962 215.6 153.695 215.6 152.162C215.6 150.629 215.267 149.395 214.6 148.462C214 147.462 213.067 146.962 211.8 146.962C210.6 146.962 209.667 147.462 209 148.462C208.333 149.462 208 150.695 208 152.162C208 153.695 208.333 154.962 209 155.962C209.667 156.962 210.6 157.462 211.8 157.462ZM223.6 159.662C222.8 159.662 221.967 159.529 221.1 159.262C220.3 158.929 219.633 158.495 219.1 157.962L220.4 156.262C221.333 157.129 222.433 157.562 223.7 157.562C224.633 157.562 225.367 157.262 225.9 156.662C226.433 156.062 226.7 155.329 226.7 154.462C226.7 153.529 226.4 152.862 225.8 152.462C225.2 151.995 224.267 151.762 223 151.762C221.733 151.762 220.733 151.895 220 152.162L219.9 145.162H228.1V147.362H222.2V149.862C222.667 149.795 223.233 149.762 223.9 149.762C225.5 149.762 226.767 150.195 227.7 151.062C228.633 151.929 229.1 153.062 229.1 154.462C229.1 155.462 228.867 156.362 228.4 157.162C227.933 157.962 227.267 158.595 226.4 159.062C225.6 159.462 224.667 159.662 223.6 159.662Z" fill="#1F2933"/>
<path d="M168.1 169.662H174.4V170.762H169.4V173.562H173.1V174.762H169.4V178.062H174.7V179.262H168.1V169.662ZM180.6 179.362C180.533 179.429 180.433 179.462 180.3 179.462C179.767 179.462 179.367 179.229 179.1 178.762L177.6 176.562L176 179.162H174.5L176.8 175.562L174.5 172.162H176.1L177.6 174.562L179 172.162H180.6L178.4 175.462L180.2 178.062C180.267 178.195 180.4 178.262 180.6 178.262V179.362ZM181.2 174.262C181.267 173.862 181.233 173.529 181.1 173.262C181.033 172.995 180.9 172.762 180.7 172.562L181.6 171.862C181.933 172.129 182.167 172.529 182.3 173.062C182.567 172.729 182.9 172.462 183.3 172.262C183.633 172.062 184.033 171.962 184.5 171.962C185.1 171.962 185.633 172.129 186.1 172.462C186.633 172.729 187.033 173.129 187.3 173.662C187.567 174.195 187.7 174.795 187.7 175.462C187.7 176.262 187.533 176.962 187.2 177.562C186.867 178.162 186.433 178.629 185.9 178.962C185.3 179.229 184.6 179.362 183.8 179.362C183.4 179.362 182.967 179.329 182.5 179.262V182.762H181.2V174.262ZM182.5 178.162C182.833 178.229 183.267 178.262 183.8 178.262C184.6 178.262 185.233 178.029 185.7 177.562C186.167 177.095 186.4 176.429 186.4 175.562C186.4 174.829 186.233 174.262 185.9 173.862C185.5 173.395 185 173.162 184.4 173.162C183.867 173.162 183.433 173.329 183.1 173.662C182.7 174.062 182.5 174.562 182.5 175.162V178.162ZM191.5 179.362C190.767 179.362 190.133 179.229 189.6 178.962C189.133 178.629 188.733 178.195 188.4 177.662C188.133 177.129 188 176.529 188 175.862C188 175.195 188.133 174.562 188.4 173.962C188.667 173.362 189.067 172.895 189.6 172.562C190.067 172.162 190.667 171.962 191.4 171.962C192 171.962 192.533 172.095 193 172.362C193.467 172.629 193.833 172.995 194.1 173.462C194.367 173.929 194.5 174.462 194.5 175.062C194.5 175.462 194.467 175.829 194.4 176.162H189.3C189.433 176.762 189.667 177.262 190 177.662C190.4 178.062 190.933 178.262 191.6 178.262C192.4 178.262 193.1 177.995 193.7 177.462L194.3 178.362C193.967 178.695 193.567 178.962 193.1 179.162C192.567 179.295 192.033 179.362 191.5 179.362ZM193.2 175.062V174.962C193.2 174.429 193.033 173.995 192.7 173.662C192.367 173.329 191.933 173.162 191.4 173.162C190.867 173.162 190.433 173.329 190.1 173.662C189.7 173.995 189.467 174.462 189.4 175.062H193.2ZM195.2 174.262C195.2 173.595 195 173.062 194.6 172.662L195.5 171.862C195.7 172.062 195.867 172.262 196 172.462C196.2 172.729 196.333 173.029 196.4 173.362C196.733 172.962 197.1 172.629 197.5 172.362C197.967 172.162 198.433 172.062 198.9 172.062C199.367 172.062 199.8 172.162 200.2 172.362C200.6 172.629 200.933 172.962 201.2 173.362C201.4 173.762 201.5 174.229 201.5 174.762V179.262H200.2V175.062C200.267 174.462 200.133 173.995 199.8 173.662C199.533 173.329 199.167 173.162 198.7 173.162C198.233 173.162 197.8 173.295 197.4 173.562C197 173.829 196.7 174.195 196.5 174.662V179.262H195.2V174.262ZM204.7 179.562C203.633 179.562 202.7 179.129 201.9 178.262L202.6 177.462C203.267 178.062 203.933 178.362 204.6 178.362C205.067 178.362 205.433 178.262 205.7 178.062C205.967 177.862 206.1 177.595 206.1 177.262C206.1 176.995 206 176.795 205.8 176.662C205.6 176.529 205.233 176.362 204.7 176.162L204.5 176.062C203.967 175.862 203.567 175.662 203.3 175.462C203.033 175.329 202.8 175.129 202.6 174.862C202.4 174.662 202.3 174.362 202.3 173.962C202.3 173.362 202.533 172.895 203 172.562C203.467 172.162 204.033 171.962 204.7 171.962C205.1 171.962 205.5 172.029 205.9 172.162C206.3 172.295 206.633 172.462 206.9 172.662L206.3 173.562C205.9 173.295 205.433 173.162 204.9 173.162C204.5 173.162 204.2 173.229 204 173.362C203.8 173.429 203.7 173.595 203.7 173.862C203.7 174.062 203.733 174.229 203.8 174.362C203.933 174.429 204.067 174.529 204.2 174.662C204.4 174.729 204.7 174.862 205.1 175.062C205.633 175.262 206.033 175.429 206.3 175.562C206.633 175.762 206.9 175.995 207.1 176.262C207.3 176.529 207.4 176.862 207.4 177.262C207.4 177.729 207.267 178.129 207 178.462C206.8 178.795 206.5 179.062 206.1 179.262C205.7 179.462 205.233 179.562 204.7 179.562ZM211 179.462C210.333 179.462 209.733 179.295 209.2 178.962C208.667 178.695 208.267 178.295 208 177.762C207.667 177.229 207.5 176.595 207.5 175.862C207.5 175.195 207.633 174.562 207.9 173.962C208.167 173.362 208.567 172.895 209.1 172.562C209.633 172.229 210.233 172.062 210.9 172.062C211.5 172.062 212.033 172.195 212.5 172.462C212.967 172.729 213.333 173.095 213.6 173.562C213.867 174.029 214 174.562 214 175.162C214 175.495 213.967 175.829 213.9 176.162H208.9C208.967 176.829 209.2 177.362 209.6 177.762C209.933 178.095 210.467 178.262 211.2 178.262C211.933 178.262 212.6 178.029 213.2 177.562L213.8 178.362C213.467 178.695 213.067 178.962 212.6 179.162C212.067 179.362 211.533 179.462 211 179.462ZM212.8 175.162V175.062C212.8 174.529 212.6 174.062 212.2 173.662C211.867 173.329 211.433 173.162 210.9 173.162C210.433 173.162 210 173.329 209.6 173.662C209.2 173.995 208.967 174.495 208.9 175.162H212.8ZM216.9 179.562C215.767 179.562 214.833 179.129 214.1 178.262L214.8 177.462C215.4 178.062 216.067 178.362 216.8 178.362C217.267 178.362 217.633 178.262 217.9 178.062C218.1 177.862 218.2 177.595 218.2 177.262C218.2 176.995 218.1 176.795 217.9 176.662C217.7 176.529 217.367 176.362 216.9 176.162L216.6 176.062C216.133 175.862 215.767 175.662 215.5 175.462C215.167 175.329 214.933 175.129 214.8 174.862C214.6 174.662 214.5 174.362 214.5 173.962C214.5 173.362 214.733 172.895 215.2 172.562C215.667 172.162 216.233 171.962 216.9 171.962C217.3 171.962 217.7 172.029 218.1 172.162C218.5 172.295 218.8 172.462 219 172.662L218.5 173.562C218.1 173.295 217.6 173.162 217 173.162C216.667 173.162 216.367 173.229 216.1 173.362C215.9 173.429 215.8 173.595 215.8 173.862C215.8 174.062 215.867 174.229 216 174.362C216.067 174.429 216.2 174.529 216.4 174.662C216.533 174.729 216.8 174.862 217.2 175.062C217.733 175.262 218.167 175.429 218.5 175.562C218.833 175.762 219.067 175.995 219.2 176.262C219.4 176.529 219.5 176.862 219.5 177.262C219.5 177.729 219.4 178.129 219.2 178.462C219 178.795 218.667 179.062 218.2 179.262C217.8 179.462 217.367 179.562 216.9 179.562Z" fill="#4D4D4D"/>
<path d="M127 169.162C127 168.695 127 168.229 127 167.762C127 165.629 127 163.495 127 161.362C127 160.362 127.6 159.862 128.5 159.862C132.633 159.862 136.733 159.862 140.8 159.862C141.7 159.862 142.3 160.462 142.3 161.362C142.3 161.762 142.3 162.162 142.3 162.562C142.3 162.962 142.2 163.062 141.9 163.062C141.167 163.062 140.467 163.062 139.8 163.062C138.5 163.062 138.1 163.462 138 164.662C137.933 165.129 137.967 165.562 138.1 165.962C138.3 166.629 138.733 166.962 139.4 166.962C140.267 167.029 141.1 167.029 141.9 166.962C142.2 166.962 142.3 167.062 142.3 167.362C142.3 167.862 142.3 168.362 142.3 168.862C142.3 169.562 141.7 170.262 140.9 170.262C136.7 170.262 132.533 170.262 128.4 170.262C127.7 170.262 127.3 169.762 127 169.162Z" fill="#666666"/>
<path d="M131.2 157.762C132.267 156.829 133.3 155.895 134.3 154.962C134.7 154.662 135 154.562 135.5 154.762C135.9 154.962 135.9 155.262 136 155.762C136.1 156.562 135.8 157.062 135 157.362C133.8 157.862 132.7 158.362 131.6 158.962C131 159.362 130.3 159.262 129.6 159.262C129.6 159.262 129.567 159.229 129.5 159.162C130.1 158.695 130.667 158.229 131.2 157.762Z" fill="#666666"/>
<path d="M140.9 166.462C140.367 166.462 139.867 166.462 139.4 166.462C138.9 166.462 138.7 166.362 138.6 165.862C138.467 165.329 138.467 164.762 138.6 164.162C138.7 163.762 138.9 163.562 139.4 163.562C140.533 163.562 141.667 163.562 142.8 163.562C143.4 163.562 143.7 163.895 143.7 164.562C143.7 164.895 143.7 165.229 143.7 165.562C143.7 166.162 143.4 166.462 142.8 166.462C142.2 166.462 141.567 166.462 140.9 166.462ZM139.4 165.762C139.867 166.162 140.333 166.229 140.8 165.962C141.2 165.762 141.4 165.262 141.3 164.862C141.167 164.329 140.867 164.029 140.4 163.962C140 163.862 139.5 164.062 139.3 164.362C139.1 164.862 139.1 165.262 139.4 165.762Z" fill="#666666"/>
<path d="M140.6 158.162C140.467 158.029 140.367 157.929 140.3 157.862C140.3 157.662 140.5 157.662 140.6 157.562C141.133 157.162 141.4 156.629 141.4 155.962C141.4 155.662 141.3 155.562 141 155.562C140.9 155.562 140.6 155.662 140.5 155.362C140.5 155.162 140.6 155.062 140.7 154.962C141.1 154.429 141.467 153.929 141.8 153.462C142.133 153.062 142.433 153.062 142.7 153.462C143.1 153.995 143.5 154.529 143.9 155.062C144 155.162 144 155.262 144 155.462C143.9 155.562 143.7 155.562 143.6 155.562C143.3 155.462 143.2 155.662 143.1 155.962C143 157.062 142.5 157.862 141.7 158.562C141.5 158.662 141.3 158.762 141.1 158.562C140.967 158.429 140.8 158.295 140.6 158.162Z" fill="#666666"/>
<path d="M135.2 157.762C135.8 157.462 136.5 157.162 137.1 156.762C137.8 156.462 138.6 156.862 138.6 157.662C138.5 158.162 138.5 158.562 138.6 158.962C138.6 159.162 138.5 159.262 138.2 159.262C136.333 159.262 134.433 159.262 132.5 159.262C132.5 159.262 132.433 159.229 132.3 159.162C133.233 158.696 134.2 158.229 135.2 157.762Z" fill="#666666"/>
<path d="M139.7 165.062C139.7 164.662 139.867 164.462 140.2 164.462C140.533 164.396 140.733 164.529 140.8 164.862C140.933 165.129 140.867 165.362 140.6 165.562C140.3 165.762 139.7 165.562 139.7 165.062Z" fill="#666666"/>
</g>
<g clip-path="url(#clip5_70_449)">
<path d="M201 202.199H35C29.4772 202.199 25 206.676 25 212.199V257.199C25 262.722 29.4772 267.199 35 267.199H201C206.523 267.199 211 262.722 211 257.199V212.199C211 206.676 206.523 202.199 201 202.199Z" fill="white"/>
<path d="M56 253.199C65.9411 253.199 74 245.14 74 235.199C74 225.258 65.9411 217.199 56 217.199C46.0589 217.199 38 225.258 38 235.199C38 245.14 46.0589 253.199 56 253.199Z" fill="#F3F3F3"/>
<path d="M54.5866 235.829C56.803 236.521 58.1833 237.998 58.7864 240.202C58.9032 240.629 58.9833 241.075 58.9576 241.531C58.9353 241.927 58.7063 242.169 58.3118 242.175C58.1731 242.178 58.0344 242.176 57.8957 242.176C56.0438 242.184 54.1917 242.211 52.34 242.193C50.7818 242.179 49.2236 242.186 47.6655 242.175C47.225 242.172 46.9786 241.933 47.0015 241.485C47.1252 239.062 48.2573 237.285 50.4302 236.187C51.1989 235.799 52.0249 235.62 52.8793 235.595C53.4506 235.578 54.0152 235.671 54.5866 235.829Z" fill="#666666"/>
<path d="M50.9493 228.912C51.7274 228.34 52.5807 228.075 53.5187 228.254C54.6451 228.47 55.4796 229.102 55.9698 230.156C56.8134 231.969 55.8059 234.084 53.9465 234.644C51.7485 235.306 49.8758 233.691 49.7138 231.86C49.6075 230.659 50.022 229.691 50.9493 228.912Z" fill="#666666"/>
<path d="M58.5597 237.302C58.3011 236.925 57.9587 236.644 57.6475 236.298C58.0967 236.004 58.5591 235.828 59.048 235.741C60.631 235.459 61.9648 235.951 63.0466 237.114C63.7562 237.877 64.108 238.807 64.1446 239.848C64.1616 240.333 63.9104 240.578 63.4076 240.583C62.7709 240.59 62.134 240.586 61.4972 240.586C61.0563 240.587 60.6154 240.583 60.1746 240.589C59.9924 240.592 59.9112 240.51 59.8816 240.335C59.6926 239.222 59.2584 238.213 58.5597 237.302Z" fill="#666666"/>
<path d="M58.9121 230.353C60.1836 229.847 61.6318 230.461 62.1175 231.696C62.6084 232.944 62.0173 234.371 60.8278 234.872C59.5174 235.424 58.0786 234.807 57.5484 233.508C57.0537 232.296 57.6681 230.869 58.9121 230.353Z" fill="#666666"/>
<path d="M94.2459 221.045C93.8499 221.353 93.3952 221.602 92.8819 221.793C92.3832 221.969 91.8039 222.101 91.1439 222.189L90.6599 220.165C91.9359 220.004 93.6006 219.182 95.6539 217.701H96.5779V232.221H94.2459V221.045ZM99.0637 234.861C99.2691 234.597 99.4597 234.274 99.6357 233.893C99.8264 233.526 99.9511 233.204 100.01 232.925C100.039 232.72 100.054 232.558 100.054 232.441C100.054 232.294 100.046 232.148 100.032 232.001C100.017 231.854 100.002 231.708 99.9877 231.561C99.9437 231.312 99.9217 231.099 99.9217 230.923C99.9217 230.571 100.039 230.278 100.274 230.043C100.508 229.808 100.78 229.691 101.088 229.691C101.425 229.691 101.704 229.816 101.924 230.065C102.144 230.3 102.254 230.615 102.254 231.011C102.254 231.304 102.217 231.678 102.144 232.133C102.07 232.573 101.96 232.976 101.814 233.343C101.667 233.754 101.454 234.179 101.176 234.619C100.897 235.059 100.596 235.44 100.274 235.763L99.0637 234.861ZM103.608 231.891C103.608 231.114 103.718 230.402 103.938 229.757C104.173 229.112 104.569 228.459 105.126 227.799C105.698 227.124 106.49 226.406 107.502 225.643L107.964 225.291C108.873 224.631 109.555 224.059 110.01 223.575C110.465 223.076 110.692 222.49 110.692 221.815C110.692 221.214 110.487 220.73 110.076 220.363C109.68 219.996 109.137 219.813 108.448 219.813C107.685 219.813 107.033 220.033 106.49 220.473C105.962 220.898 105.617 221.478 105.456 222.211L103.52 221.331C103.872 220.172 104.473 219.278 105.324 218.647C106.189 218.016 107.245 217.701 108.492 217.701C109.871 217.701 110.971 218.075 111.792 218.823C112.613 219.571 113.024 220.568 113.024 221.815C113.024 222.548 112.877 223.201 112.584 223.773C112.291 224.345 111.917 224.851 111.462 225.291C111.007 225.731 110.377 226.266 109.57 226.897L108.47 227.799C107.913 228.254 107.458 228.657 107.106 229.009C106.769 229.346 106.534 229.706 106.402 230.087H113.618V232.199H103.608V231.891ZM119.504 232.595C118.668 232.595 117.84 232.448 117.018 232.155C116.212 231.847 115.544 231.422 115.016 230.879L116.292 229.119C117.246 229.984 118.346 230.417 119.592 230.417C120.502 230.417 121.235 230.131 121.792 229.559C122.35 228.987 122.628 228.246 122.628 227.337C122.628 226.442 122.32 225.775 121.704 225.335C121.103 224.895 120.172 224.675 118.91 224.675C117.634 224.675 116.615 224.8 115.852 225.049L115.808 218.097H123.97V220.231H118.14V222.761C118.566 222.688 119.13 222.651 119.834 222.651C121.404 222.651 122.65 223.084 123.574 223.949C124.513 224.8 124.982 225.944 124.982 227.381C124.982 228.364 124.748 229.251 124.278 230.043C123.809 230.835 123.156 231.458 122.32 231.913C121.484 232.368 120.546 232.595 119.504 232.595ZM132.143 232.639C131.101 232.639 130.17 232.382 129.349 231.869C128.527 231.341 127.882 230.615 127.413 229.691C126.958 228.767 126.731 227.718 126.731 226.545C126.731 224.77 127.105 223.208 127.853 221.859C128.615 220.51 129.686 219.476 131.065 218.757C132.458 218.038 134.064 217.701 135.883 217.745V219.703C134.108 219.688 132.627 220.07 131.439 220.847C130.251 221.624 129.429 222.724 128.975 224.147C129.356 223.604 129.84 223.179 130.427 222.871C131.028 222.548 131.717 222.387 132.495 222.387C133.448 222.387 134.306 222.614 135.069 223.069C135.831 223.509 136.433 224.118 136.873 224.895C137.313 225.672 137.533 226.545 137.533 227.513C137.533 228.51 137.298 229.398 136.829 230.175C136.374 230.952 135.736 231.561 134.915 232.001C134.093 232.426 133.169 232.639 132.143 232.639ZM132.253 230.505C133.103 230.505 133.807 230.226 134.365 229.669C134.922 229.097 135.201 228.378 135.201 227.513C135.201 226.648 134.915 225.929 134.343 225.357C133.785 224.785 133.081 224.499 132.231 224.499C131.38 224.499 130.669 224.785 130.097 225.357C129.525 225.914 129.239 226.626 129.239 227.491C129.239 228.356 129.525 229.075 130.097 229.647C130.669 230.219 131.387 230.505 132.253 230.505Z" fill="#1F2933"/>
<path d="M93.248 243.799L90.196 243.785V242.623H97.56V243.799H94.522L94.508 252.199H93.234L93.248 243.799ZM99.9909 252.479C99.3095 252.479 98.6982 252.316 98.1569 251.989C97.6155 251.662 97.1909 251.214 96.8829 250.645C96.5842 250.076 96.4349 249.432 96.4349 248.713C96.4349 247.994 96.5842 247.35 96.8829 246.781C97.1909 246.202 97.6155 245.75 98.1569 245.423C98.6982 245.096 99.3095 244.933 99.9909 244.933C100.672 244.933 101.284 245.096 101.825 245.423C102.366 245.75 102.786 246.202 103.085 246.781C103.393 247.35 103.547 247.994 103.547 248.713C103.547 249.432 103.393 250.076 103.085 250.645C102.786 251.214 102.366 251.662 101.825 251.989C101.284 252.316 100.672 252.479 99.9909 252.479ZM99.9909 251.303C100.43 251.303 100.822 251.196 101.167 250.981C101.522 250.757 101.792 250.449 101.979 250.057C102.175 249.665 102.273 249.217 102.273 248.713C102.273 248.209 102.175 247.761 101.979 247.369C101.792 246.968 101.522 246.66 101.167 246.445C100.822 246.221 100.43 246.109 99.9909 246.109C99.3095 246.109 98.7589 246.352 98.3389 246.837C97.9189 247.313 97.7089 247.938 97.7089 248.713C97.7089 249.478 97.9189 250.104 98.3389 250.589C98.7589 251.065 99.3095 251.303 99.9909 251.303ZM106.656 252.409C105.993 252.409 105.475 252.213 105.102 251.821C104.728 251.429 104.542 250.86 104.542 250.113V246.319H103.59V245.199H104.542V243.225H105.816V245.199H107.79V246.319H105.816V250.029C105.816 250.449 105.89 250.748 106.04 250.925C106.189 251.102 106.436 251.191 106.782 251.191C107.118 251.191 107.407 251.098 107.65 250.911L108.224 251.863C107.804 252.227 107.281 252.409 106.656 252.409ZM113.62 252.549C113.415 252.362 113.237 252.152 113.088 251.919C112.948 251.686 112.864 251.448 112.836 251.205C112.593 251.56 112.262 251.854 111.842 252.087C111.431 252.32 110.983 252.437 110.498 252.437C109.807 252.437 109.243 252.227 108.804 251.807C108.365 251.387 108.146 250.827 108.146 250.127C108.146 249.371 108.421 248.788 108.972 248.377C109.532 247.966 110.325 247.761 111.352 247.761C111.632 247.761 112.071 247.78 112.668 247.817V247.481C112.668 246.585 112.201 246.137 111.268 246.137C110.867 246.137 110.442 246.207 109.994 246.347C109.546 246.487 109.163 246.669 108.846 246.893L108.3 245.941C108.673 245.67 109.145 245.446 109.714 245.269C110.293 245.082 110.862 244.989 111.422 244.989C112.206 244.989 112.817 245.194 113.256 245.605C113.704 246.016 113.928 246.599 113.928 247.355V250.085C113.928 250.748 114.129 251.312 114.53 251.779L113.62 252.549ZM110.722 251.303C111.077 251.303 111.403 251.233 111.702 251.093C112.001 250.944 112.234 250.743 112.402 250.491C112.579 250.239 112.668 249.964 112.668 249.665V248.853C112.061 248.816 111.576 248.797 111.212 248.797C109.989 248.797 109.378 249.217 109.378 250.057C109.378 250.458 109.499 250.766 109.742 250.981C109.994 251.196 110.321 251.303 110.722 251.303ZM115.276 242.021H116.55V252.213H115.276V242.021ZM124.618 252.535C123.703 252.535 122.873 252.33 122.126 251.919C121.379 251.499 120.791 250.906 120.362 250.141C119.933 249.376 119.718 248.489 119.718 247.481C119.718 246.482 119.933 245.591 120.362 244.807C120.801 244.023 121.389 243.412 122.126 242.973C122.873 242.534 123.694 242.315 124.59 242.315C125.215 242.315 125.789 242.427 126.312 242.651C126.835 242.866 127.269 243.16 127.614 243.533C127.969 243.906 128.211 244.322 128.342 244.779L127.194 245.073C127.026 244.616 126.732 244.233 126.312 243.925C125.901 243.617 125.355 243.463 124.674 243.463C123.974 243.463 123.344 243.64 122.784 243.995C122.233 244.34 121.799 244.821 121.482 245.437C121.174 246.044 121.02 246.734 121.02 247.509C121.02 248.274 121.174 248.951 121.482 249.539C121.799 250.127 122.233 250.584 122.784 250.911C123.335 251.228 123.955 251.387 124.646 251.387C125.271 251.387 125.836 251.261 126.34 251.009C126.844 250.757 127.231 250.412 127.502 249.973L128.468 250.547C128.095 251.172 127.563 251.662 126.872 252.017C126.191 252.362 125.439 252.535 124.618 252.535ZM135.211 250.183C135.211 250.864 135.393 251.401 135.757 251.793L134.861 252.549C134.675 252.4 134.507 252.199 134.357 251.947C134.217 251.695 134.11 251.406 134.035 251.079C133.681 251.499 133.289 251.821 132.859 252.045C132.43 252.269 131.977 252.381 131.501 252.381C131.016 252.381 130.573 252.269 130.171 252.045C129.779 251.812 129.467 251.49 129.233 251.079C129 250.668 128.883 250.197 128.883 249.665V245.171H130.157V249.427C130.157 250.024 130.297 250.477 130.577 250.785C130.857 251.084 131.245 251.233 131.739 251.233C132.197 251.233 132.617 251.107 132.999 250.855C133.391 250.594 133.709 250.23 133.951 249.763V245.185H135.225V250.155L135.211 250.183ZM138.53 252.465C137.438 252.465 136.505 252.05 135.73 251.219L136.444 250.421C137.07 251.009 137.737 251.303 138.446 251.303C138.894 251.303 139.244 251.205 139.496 251.009C139.748 250.813 139.874 250.547 139.874 250.211C139.874 249.931 139.772 249.721 139.566 249.581C139.37 249.432 139.025 249.259 138.53 249.063L138.264 248.951C137.779 248.755 137.392 248.578 137.102 248.419C136.813 248.251 136.58 248.05 136.402 247.817C136.234 247.574 136.15 247.276 136.15 246.921C136.15 246.324 136.379 245.843 136.836 245.479C137.294 245.106 137.863 244.919 138.544 244.919C138.946 244.919 139.342 244.984 139.734 245.115C140.126 245.236 140.439 245.4 140.672 245.605L140.126 246.515C139.716 246.207 139.226 246.053 138.656 246.053C138.302 246.053 138.012 246.118 137.788 246.249C137.564 246.37 137.452 246.562 137.452 246.823C137.452 247 137.504 247.15 137.606 247.271C137.718 247.383 137.858 247.486 138.026 247.579C138.204 247.663 138.488 247.784 138.88 247.943C139.412 248.158 139.832 248.354 140.14 248.531C140.448 248.699 140.696 248.918 140.882 249.189C141.078 249.46 141.176 249.796 141.176 250.197C141.176 250.636 141.064 251.028 140.84 251.373C140.616 251.718 140.299 251.989 139.888 252.185C139.487 252.372 139.034 252.465 138.53 252.465ZM144.125 252.409C143.462 252.409 142.944 252.213 142.571 251.821C142.197 251.429 142.011 250.86 142.011 250.113V246.319H141.059V245.199H142.011V243.225H143.285V245.199H145.259V246.319H143.285V250.029C143.285 250.449 143.359 250.748 143.509 250.925C143.658 251.102 143.905 251.191 144.251 251.191C144.587 251.191 144.876 251.098 145.119 250.911L145.693 251.863C145.273 252.227 144.75 252.409 144.125 252.409ZM148.994 252.479C148.312 252.479 147.701 252.316 147.16 251.989C146.618 251.662 146.194 251.214 145.886 250.645C145.587 250.076 145.438 249.432 145.438 248.713C145.438 247.994 145.587 247.35 145.886 246.781C146.194 246.202 146.618 245.75 147.16 245.423C147.701 245.096 148.312 244.933 148.994 244.933C149.675 244.933 150.286 245.096 150.828 245.423C151.369 245.75 151.789 246.202 152.088 246.781C152.396 247.35 152.55 247.994 152.55 248.713C152.55 249.432 152.396 250.076 152.088 250.645C151.789 251.214 151.369 251.662 150.828 251.989C150.286 252.316 149.675 252.479 148.994 252.479ZM148.994 251.303C149.432 251.303 149.824 251.196 150.17 250.981C150.524 250.757 150.795 250.449 150.982 250.057C151.178 249.665 151.276 249.217 151.276 248.713C151.276 248.209 151.178 247.761 150.982 247.369C150.795 246.968 150.524 246.66 150.17 246.445C149.824 246.221 149.432 246.109 148.994 246.109C148.312 246.109 147.762 246.352 147.342 246.837C146.922 247.313 146.712 247.938 146.712 248.713C146.712 249.478 146.922 250.104 147.342 250.589C147.762 251.065 148.312 251.303 148.994 251.303ZM162.074 247.537C162.074 247.108 161.957 246.772 161.724 246.529C161.491 246.277 161.187 246.151 160.814 246.151C160.021 246.151 159.405 246.557 158.966 247.369V252.213H157.692V247.677C157.692 247.192 157.575 246.818 157.342 246.557C157.118 246.286 156.796 246.151 156.376 246.151C155.975 246.151 155.606 246.263 155.27 246.487C154.943 246.702 154.705 246.991 154.556 247.355V252.213H153.282V247.243L153.296 247.215C153.296 246.534 153.114 245.997 152.75 245.605L153.646 244.849C153.805 244.97 153.949 245.138 154.08 245.353C154.211 245.558 154.318 245.787 154.402 246.039C154.682 245.703 155.004 245.446 155.368 245.269C155.741 245.092 156.129 245.003 156.53 245.003C156.95 245.003 157.365 245.096 157.776 245.283C158.196 245.47 158.513 245.759 158.728 246.151C159.008 245.778 159.33 245.493 159.694 245.297C160.067 245.101 160.469 245.003 160.898 245.003C161.617 245.003 162.205 245.208 162.662 245.619C163.119 246.03 163.348 246.632 163.348 247.425V252.199H162.074V247.537ZM167.485 252.367C166.785 252.367 166.169 252.218 165.637 251.919C165.114 251.611 164.708 251.191 164.419 250.659C164.139 250.118 163.999 249.506 163.999 248.825C163.999 248.153 164.129 247.523 164.391 246.935C164.661 246.338 165.053 245.857 165.567 245.493C166.08 245.129 166.687 244.947 167.387 244.947C167.984 244.947 168.516 245.082 168.983 245.353C169.449 245.614 169.813 245.983 170.075 246.459C170.345 246.926 170.481 247.453 170.481 248.041C170.481 248.424 170.443 248.788 170.369 249.133H165.343C165.417 249.749 165.641 250.253 166.015 250.645C166.388 251.028 166.925 251.219 167.625 251.219C168.39 251.219 169.085 250.967 169.711 250.463L170.299 251.317C169.963 251.644 169.547 251.9 169.053 252.087C168.558 252.274 168.035 252.367 167.485 252.367ZM169.221 248.041V247.943C169.221 247.411 169.043 246.972 168.689 246.627C168.343 246.272 167.909 246.095 167.387 246.095C166.892 246.095 166.453 246.258 166.071 246.585C165.688 246.912 165.45 247.397 165.357 248.041H169.221ZM171.255 247.215C171.255 246.534 171.073 245.997 170.709 245.605L171.605 244.849C171.773 244.989 171.927 245.176 172.067 245.409C172.207 245.633 172.319 245.89 172.403 246.179C172.627 245.88 172.884 245.633 173.173 245.437C173.472 245.241 173.78 245.11 174.097 245.045C174.228 245.017 174.396 245.003 174.601 245.003C174.788 245.003 174.97 245.017 175.147 245.045L174.993 246.249C174.937 246.23 174.853 246.216 174.741 246.207C174.629 246.188 174.527 246.179 174.433 246.179C174.023 246.179 173.635 246.319 173.271 246.599C172.917 246.879 172.665 247.215 172.515 247.607V252.213H171.241V247.243L171.255 247.215ZM177.356 252.465C176.264 252.465 175.331 252.05 174.556 251.219L175.27 250.421C175.895 251.009 176.563 251.303 177.272 251.303C177.72 251.303 178.07 251.205 178.322 251.009C178.574 250.813 178.7 250.547 178.7 250.211C178.7 249.931 178.597 249.721 178.392 249.581C178.196 249.432 177.851 249.259 177.356 249.063L177.09 248.951C176.605 248.755 176.217 248.578 175.928 248.419C175.639 248.251 175.405 248.05 175.228 247.817C175.06 247.574 174.976 247.276 174.976 246.921C174.976 246.324 175.205 245.843 175.662 245.479C176.119 245.106 176.689 244.919 177.37 244.919C177.771 244.919 178.168 244.984 178.56 245.115C178.952 245.236 179.265 245.4 179.498 245.605L178.952 246.515C178.541 246.207 178.051 246.053 177.482 246.053C177.127 246.053 176.838 246.118 176.614 246.249C176.39 246.37 176.278 246.562 176.278 246.823C176.278 247 176.329 247.15 176.432 247.271C176.544 247.383 176.684 247.486 176.852 247.579C177.029 247.663 177.314 247.784 177.706 247.943C178.238 248.158 178.658 248.354 178.966 248.531C179.274 248.699 179.521 248.918 179.708 249.189C179.904 249.46 180.002 249.796 180.002 250.197C180.002 250.636 179.89 251.028 179.666 251.373C179.442 251.718 179.125 251.989 178.714 252.185C178.313 252.372 177.86 252.465 177.356 252.465Z" fill="#4D4D4D"/>
</g>
<g clip-path="url(#clip6_70_449)">
<path fill-rule="evenodd" clip-rule="evenodd" d="M115 276.162H281C286.5 276.162 291 280.662 291 286.162V331.162C291 336.762 286.5 341.162 281 341.162H115C109.5 341.162 105 336.762 105 331.162V286.162C105 280.662 109.5 276.162 115 276.162Z" fill="white"/>
</g>
</g>
<defs>
<filter id="filter0_f_70_449" x="-74" y="60" width="182" height="197" filterUnits="userSpaceOnUse" color-interpolation-filters="sRGB">
<feFlood flood-opacity="0" result="BackgroundImageFix"/>
<feBlend mode="normal" in="SourceGraphic" in2="BackgroundImageFix" result="shape"/>
<feGaussianBlur stdDeviation="25" result="effect1_foregroundBlur_70_449"/>
</filter>
<linearGradient id="paint0_linear_70_449" x1="176" y1="0" x2="176" y2="280" gradientUnits="userSpaceOnUse">
<stop stop-color="#0A5587"/>
<stop offset="1" stop-color="#021521"/>
</linearGradient>
<linearGradient id="paint1_linear_70_449" x1="17" y1="110" x2="17" y2="207" gradientUnits="userSpaceOnUse">
<stop stop-color="white"/>
<stop offset="1" stop-color="#004370"/>
</linearGradient>
<clipPath id="clip0_70_449">
<rect width="352" height="280" rx="20" fill="white"/>
</clipPath>
<clipPath id="clip1_70_449">
<rect width="186" height="65" fill="white" transform="translate(25 56.1621)"/>
</clipPath>
<clipPath id="clip2_70_449">
<rect width="79" height="179" fill="white" transform="translate(266 0.771484)"/>
</clipPath>
<clipPath id="clip3_70_449">
<rect width="186" height="65" fill="white" transform="translate(105 -16.8379)"/>
</clipPath>
<clipPath id="clip4_70_449">
<rect width="186" height="65" fill="white" transform="translate(105 129.162)"/>
</clipPath>
<clipPath id="clip5_70_449">
<rect width="186" height="66" fill="white" transform="translate(25 202.162)"/>
</clipPath>
<clipPath id="clip6_70_449">
<rect width="186" height="65" fill="white" transform="translate(105 276.162)"/>
</clipPath>
</defs>
</svg>
