<svg width="277" height="220" viewBox="0 0 277 220" fill="none" xmlns="http://www.w3.org/2000/svg">
<rect x="0.2" y="0.2" width="276.6" height="219.6" stroke="#E3E3E3" stroke-width="0.4"/>
<g clip-path="url(#clip0_378_2284)">
<rect width="24.0623" height="269" transform="translate(37.754 -65.5)" fill="#5960DF"/>
<rect width="24.0623" height="269" transform="translate(37.754 -65.5)" fill="url(#paint0_linear_378_2284)"/>
</g>
<g clip-path="url(#clip1_378_2284)">
<rect width="24.0623" height="192" transform="translate(68.8889 11.5)" fill="#5960DF"/>
<rect width="24.0623" height="192" transform="translate(68.8889 11.5)" fill="url(#paint1_linear_378_2284)"/>
</g>
<g clip-path="url(#clip2_378_2284)">
<rect width="24.0623" height="230" transform="translate(100.024 -26.5)" fill="#5960DF"/>
<rect width="24.0623" height="230" transform="translate(100.024 -26.5)" fill="url(#paint2_linear_378_2284)"/>
</g>
<g filter="url(#filter0_d_378_2284)">
<path d="M131.159 32.7182C131.159 23.7611 138.42 16.5 147.377 16.5C156.334 16.5 163.595 23.7611 163.595 32.7182V187.282C163.595 196.239 156.334 203.5 147.377 203.5C138.42 203.5 131.159 196.239 131.159 187.282V32.7182Z" fill="white" shape-rendering="crispEdges"/>
<path d="M141.719 35.1582C141.719 32.0332 144.252 29.5 147.377 29.5C150.502 29.5 153.035 32.0333 153.035 35.1582V197.842C153.035 200.967 150.502 203.5 147.377 203.5C144.252 203.5 141.719 200.967 141.719 197.842V35.1582Z" fill="#5960DF"/>
<path d="M138 50C138 44.4772 142.477 40 148 40C153.523 40 158 44.4772 158 50C158 55.5228 153.523 60 148 60C142.477 60 138 55.5228 138 50Z" fill="white"/>
</g>
<g clip-path="url(#clip3_378_2284)">
<rect width="24.0623" height="269" transform="translate(170.668 -65.5)" fill="#5960DF"/>
<rect width="24.0623" height="269" transform="translate(170.668 -65.5)" fill="url(#paint3_linear_378_2284)"/>
</g>
<g clip-path="url(#clip4_378_2284)">
<rect width="24.0623" height="173" transform="translate(201.803 30.5)" fill="#5960DF"/>
<rect width="24.0623" height="173" transform="translate(201.803 30.5)" fill="url(#paint4_linear_378_2284)"/>
</g>
<g clip-path="url(#clip5_378_2284)">
<rect width="24.0623" height="115" transform="translate(232.938 88.5)" fill="#5960DF"/>
<rect width="24.0623" height="115" transform="translate(232.938 88.5)" fill="url(#paint5_linear_378_2284)"/>
</g>
<path d="M171.564 48.1875H166.056V47.2995H168.396V40.5555H168.312L166.2 42.5235L165.612 41.8875L167.832 39.8115H169.404V47.2995H171.564V48.1875ZM178.427 48.1875H177.311L175.271 39.8115H176.339L177.239 43.8435L177.935 46.9755H177.959L178.739 43.8435L179.795 39.8115H180.947L181.967 43.8435L182.747 46.9635H182.783L183.503 43.8435L184.451 39.8115H185.483L183.335 48.1875H182.219L181.127 44.0115L180.359 40.9395H180.335L179.543 44.0115L178.427 48.1875ZM188.891 48.3315C188.331 48.3315 187.843 48.1995 187.427 47.9355C187.011 47.6635 186.687 47.2875 186.455 46.8075C186.223 46.3195 186.107 45.7475 186.107 45.0915C186.107 44.4355 186.223 43.8675 186.455 43.3875C186.687 42.8995 187.011 42.5235 187.427 42.2595C187.843 41.9875 188.331 41.8515 188.891 41.8515C189.443 41.8515 189.919 41.9835 190.319 42.2475C190.719 42.5035 191.027 42.8595 191.243 43.3155C191.459 43.7715 191.567 44.2915 191.567 44.8755V45.3315H187.115V45.6195C187.115 46.1555 187.275 46.6035 187.595 46.9635C187.923 47.3155 188.375 47.4915 188.951 47.4915C189.343 47.4915 189.683 47.3995 189.971 47.2155C190.267 47.0315 190.495 46.7675 190.655 46.4235L191.339 46.9155C191.139 47.3315 190.827 47.6715 190.403 47.9355C189.979 48.1995 189.475 48.3315 188.891 48.3315ZM188.891 42.6555C188.547 42.6555 188.239 42.7355 187.967 42.8955C187.703 43.0555 187.495 43.2795 187.343 43.5675C187.191 43.8475 187.115 44.1675 187.115 44.5275V44.6115H190.535V44.4795C190.535 44.1115 190.467 43.7915 190.331 43.5195C190.195 43.2475 190.003 43.0355 189.755 42.8835C189.507 42.7315 189.219 42.6555 188.891 42.6555ZM195.477 48.3315C194.917 48.3315 194.429 48.1995 194.013 47.9355C193.597 47.6635 193.273 47.2875 193.041 46.8075C192.809 46.3195 192.693 45.7475 192.693 45.0915C192.693 44.4355 192.809 43.8675 193.041 43.3875C193.273 42.8995 193.597 42.5235 194.013 42.2595C194.429 41.9875 194.917 41.8515 195.477 41.8515C196.029 41.8515 196.505 41.9835 196.905 42.2475C197.305 42.5035 197.613 42.8595 197.829 43.3155C198.045 43.7715 198.153 44.2915 198.153 44.8755V45.3315H193.701V45.6195C193.701 46.1555 193.861 46.6035 194.181 46.9635C194.509 47.3155 194.961 47.4915 195.537 47.4915C195.929 47.4915 196.269 47.3995 196.557 47.2155C196.853 47.0315 197.081 46.7675 197.241 46.4235L197.925 46.9155C197.725 47.3315 197.413 47.6715 196.989 47.9355C196.565 48.1995 196.061 48.3315 195.477 48.3315ZM195.477 42.6555C195.133 42.6555 194.825 42.7355 194.553 42.8955C194.289 43.0555 194.081 43.2795 193.929 43.5675C193.777 43.8475 193.701 44.1675 193.701 44.5275V44.6115H197.121V44.4795C197.121 44.1115 197.053 43.7915 196.917 43.5195C196.781 43.2475 196.589 43.0355 196.341 42.8835C196.093 42.7315 195.805 42.6555 195.477 42.6555ZM199.735 48.1875V39.3075H200.695V43.8315V44.9355H200.743L201.691 43.8795L203.443 41.9955H204.607L202.315 44.4435L204.835 48.1875H203.671L201.619 45.0315L200.695 45.9795V48.1875H199.735ZM215.295 48.1875H214.239L213.399 45.7155H210.015L209.175 48.1875H208.155L211.083 39.8115H212.367L215.295 48.1875ZM213.147 44.8275L212.091 41.7915L211.731 40.7475H211.671L211.311 41.7915L210.255 44.8275H213.147ZM218.836 48.1875H217.72L215.548 41.9955H216.508L217.588 45.0675L218.26 47.1795H218.32L218.992 45.0675L220.096 41.9955H221.02L218.836 48.1875ZM227.338 48.8715C227.338 49.2955 227.226 49.6435 227.002 49.9155C226.778 50.1955 226.442 50.3995 225.994 50.5275C225.554 50.6635 225.002 50.7315 224.338 50.7315C223.698 50.7315 223.174 50.6715 222.766 50.5515C222.366 50.4315 222.074 50.2555 221.89 50.0235C221.706 49.7995 221.614 49.5275 221.614 49.2075C221.614 48.8715 221.702 48.6075 221.878 48.4155C222.054 48.2235 222.294 48.0875 222.598 48.0075V47.8755C222.422 47.7875 222.286 47.6755 222.19 47.5395C222.094 47.3955 222.046 47.2195 222.046 47.0115C222.046 46.6995 222.146 46.4635 222.346 46.3035C222.546 46.1355 222.802 46.0115 223.114 45.9315V45.8835C222.746 45.7075 222.458 45.4555 222.25 45.1275C222.05 44.7995 221.95 44.4195 221.95 43.9875C221.95 43.5635 222.046 43.1915 222.238 42.8715C222.43 42.5515 222.702 42.3035 223.054 42.1275C223.406 41.9435 223.814 41.8515 224.278 41.8515C224.502 41.8515 224.71 41.8715 224.902 41.9115C225.102 41.9515 225.286 42.0115 225.454 42.0915V41.9835C225.454 41.7435 225.51 41.5475 225.622 41.3955C225.734 41.2355 225.918 41.1555 226.174 41.1555H227.098V41.9955H225.922V42.3915C226.146 42.5835 226.318 42.8155 226.438 43.0875C226.566 43.3595 226.63 43.6595 226.63 43.9875C226.63 44.4035 226.534 44.7755 226.342 45.1035C226.15 45.4235 225.878 45.6755 225.526 45.8595C225.174 46.0355 224.762 46.1235 224.29 46.1235C224.186 46.1235 224.082 46.1195 223.978 46.1115C223.874 46.0955 223.778 46.0795 223.69 46.0635C223.49 46.1195 223.302 46.2035 223.126 46.3155C222.958 46.4195 222.874 46.5675 222.874 46.7595C222.874 46.9435 222.962 47.0675 223.138 47.1315C223.314 47.1955 223.542 47.2275 223.822 47.2275H225.142C225.91 47.2275 226.466 47.3755 226.81 47.6715C227.162 47.9595 227.338 48.3595 227.338 48.8715ZM226.438 48.9435C226.438 48.6955 226.342 48.4955 226.15 48.3435C225.966 48.1995 225.634 48.1275 225.154 48.1275H223.09C222.89 48.2155 222.742 48.3275 222.646 48.4635C222.558 48.6075 222.514 48.7755 222.514 48.9675C222.514 49.2395 222.614 49.4715 222.814 49.6635C223.022 49.8555 223.37 49.9515 223.858 49.9515H224.746C225.282 49.9515 225.698 49.8675 225.994 49.6995C226.29 49.5315 226.438 49.2795 226.438 48.9435ZM224.29 45.3555C224.698 45.3555 225.022 45.2595 225.262 45.0675C225.502 44.8675 225.622 44.5635 225.622 44.1555V43.8195C225.622 43.4115 225.502 43.1115 225.262 42.9195C225.022 42.7195 224.698 42.6195 224.29 42.6195C223.882 42.6195 223.558 42.7195 223.318 42.9195C223.078 43.1115 222.958 43.4115 222.958 43.8195V44.1555C222.958 44.5635 223.078 44.8675 223.318 45.0675C223.558 45.2595 223.882 45.3555 224.29 45.3555Z" fill="#5960DF"/>
<defs>
<filter id="filter0_d_378_2284" x="119.159" y="2.5" width="56.4364" height="211" filterUnits="userSpaceOnUse" color-interpolation-filters="sRGB">
<feFlood flood-opacity="0" result="BackgroundImageFix"/>
<feColorMatrix in="SourceAlpha" type="matrix" values="0 0 0 0 0 0 0 0 0 0 0 0 0 0 0 0 0 0 127 0" result="hardAlpha"/>
<feMorphology radius="2" operator="dilate" in="SourceAlpha" result="effect1_dropShadow_378_2284"/>
<feOffset dy="-2"/>
<feGaussianBlur stdDeviation="5"/>
<feComposite in2="hardAlpha" operator="out"/>
<feColorMatrix type="matrix" values="0 0 0 0 0.627451 0 0 0 0 0.627451 0 0 0 0 0.627451 0 0 0 0.2 0"/>
<feBlend mode="normal" in2="BackgroundImageFix" result="effect1_dropShadow_378_2284"/>
<feBlend mode="normal" in="SourceGraphic" in2="effect1_dropShadow_378_2284" result="shape"/>
</filter>
<linearGradient id="paint0_linear_378_2284" x1="12.0312" y1="0" x2="12.0312" y2="269" gradientUnits="userSpaceOnUse">
<stop stop-color="white" stop-opacity="0.51"/>
<stop offset="1" stop-color="white" stop-opacity="0.51"/>
</linearGradient>
<linearGradient id="paint1_linear_378_2284" x1="12.0312" y1="0" x2="12.0312" y2="192" gradientUnits="userSpaceOnUse">
<stop stop-color="white" stop-opacity="0.51"/>
<stop offset="1" stop-color="white" stop-opacity="0.51"/>
</linearGradient>
<linearGradient id="paint2_linear_378_2284" x1="12.0312" y1="0" x2="12.0312" y2="230" gradientUnits="userSpaceOnUse">
<stop stop-color="white" stop-opacity="0.51"/>
<stop offset="1" stop-color="white" stop-opacity="0.51"/>
</linearGradient>
<linearGradient id="paint3_linear_378_2284" x1="12.0312" y1="0" x2="12.0312" y2="269" gradientUnits="userSpaceOnUse">
<stop stop-color="white" stop-opacity="0.51"/>
<stop offset="1" stop-color="white" stop-opacity="0.51"/>
</linearGradient>
<linearGradient id="paint4_linear_378_2284" x1="12.0312" y1="0" x2="12.0312" y2="173" gradientUnits="userSpaceOnUse">
<stop stop-color="white" stop-opacity="0.51"/>
<stop offset="1" stop-color="white" stop-opacity="0.51"/>
</linearGradient>
<linearGradient id="paint5_linear_378_2284" x1="12.0312" y1="0" x2="12.0312" y2="115" gradientUnits="userSpaceOnUse">
<stop stop-color="white" stop-opacity="0.51"/>
<stop offset="1" stop-color="white" stop-opacity="0.51"/>
</linearGradient>
<clipPath id="clip0_378_2284">
<path d="M37.754 82.2016C37.754 76.8996 42.0521 72.6016 47.354 72.6016H52.2164C57.5183 72.6016 61.8164 76.8996 61.8164 82.2016V193.9C61.8164 199.202 57.5183 203.5 52.2164 203.5H47.354C42.0521 203.5 37.754 199.202 37.754 193.9V82.2016Z" fill="white"/>
</clipPath>
<clipPath id="clip1_378_2284">
<path d="M68.8889 119.6C68.8889 114.298 73.187 110 78.4889 110H83.3512C88.6532 110 92.9513 114.298 92.9513 119.6V193.9C92.9513 199.202 88.6532 203.5 83.3513 203.5H78.4889C73.187 203.5 68.8889 199.202 68.8889 193.9V119.6Z" fill="white"/>
</clipPath>
<clipPath id="clip2_378_2284">
<path d="M100.024 100.905C100.024 95.6028 104.322 91.3047 109.624 91.3047H114.486C119.788 91.3047 124.086 95.6028 124.086 100.905V193.9C124.086 199.202 119.788 203.5 114.486 203.5H109.624C104.322 203.5 100.024 199.202 100.024 193.9V100.905Z" fill="white"/>
</clipPath>
<clipPath id="clip3_378_2284">
<path d="M170.668 82.2016C170.668 76.8996 174.966 72.6016 180.268 72.6016H185.13C190.432 72.6016 194.73 76.8996 194.73 82.2016V193.9C194.73 199.202 190.432 203.5 185.13 203.5H180.268C174.966 203.5 170.668 199.202 170.668 193.9V82.2016Z" fill="white"/>
</clipPath>
<clipPath id="clip4_378_2284">
<path d="M201.803 128.952C201.803 123.65 206.101 119.352 211.403 119.352H216.265C221.567 119.352 225.865 123.65 225.865 128.952V193.9C225.865 199.202 221.567 203.5 216.265 203.5H211.403C206.101 203.5 201.803 199.202 201.803 193.9V128.952Z" fill="white"/>
</clipPath>
<clipPath id="clip5_378_2284">
<path d="M232.938 157.006C232.938 151.704 237.236 147.406 242.538 147.406H247.4C252.702 147.406 257 151.704 257 157.006V193.9C257 199.202 252.702 203.5 247.4 203.5H242.538C237.236 203.5 232.938 199.202 232.938 193.9V157.006Z" fill="white"/>
</clipPath>
</defs>
</svg>
