<svg width="230" height="230" viewBox="0 0 230 230" fill="none" xmlns="http://www.w3.org/2000/svg">
<circle cx="115" cy="115" r="106.786" fill="white"/>
<circle cx="115" cy="115" r="115" fill="white" fill-opacity="0.4"/>
<circle cx="115" cy="115" r="90.3571" fill="#D4D4D4" fill-opacity="0.75"/>
<rect x="32.8574" y="32.8572" width="164.286" height="164.286" rx="82.1429" fill="url(#paint0_linear_750_233)"/>
<path d="M72.27 107.95V113.2H79.32V116.53H72.27V122.08H80.22V125.5H68.07V104.53H80.22V107.95H72.27ZM96.5768 125.5L92.0468 118.45L87.9368 125.5H83.1968L89.7968 114.94L83.1068 104.56H87.9368L92.4668 111.58L96.5468 104.56H101.287L94.7168 115.09L101.407 125.5H96.5768ZM108.803 107.95V113.2H115.853V116.53H108.803V122.08H116.753V125.5H104.603V104.53H116.753V107.95H108.803ZM119.55 115C119.55 112.94 120.01 111.1 120.93 109.48C121.87 107.84 123.14 106.57 124.74 105.67C126.36 104.75 128.17 104.29 130.17 104.29C132.51 104.29 134.56 104.89 136.32 106.09C138.08 107.29 139.31 108.95 140.01 111.07H135.18C134.7 110.07 134.02 109.32 133.14 108.82C132.28 108.32 131.28 108.07 130.14 108.07C128.92 108.07 127.83 108.36 126.87 108.94C125.93 109.5 125.19 110.3 124.65 111.34C124.13 112.38 123.87 113.6 123.87 115C123.87 116.38 124.13 117.6 124.65 118.66C125.19 119.7 125.93 120.51 126.87 121.09C127.83 121.65 128.92 121.93 130.14 121.93C131.28 121.93 132.28 121.68 133.14 121.18C134.02 120.66 134.7 119.9 135.18 118.9H140.01C139.31 121.04 138.08 122.71 136.32 123.91C134.58 125.09 132.53 125.68 130.17 125.68C128.17 125.68 126.36 125.23 124.74 124.33C123.14 123.41 121.87 122.14 120.93 120.52C120.01 118.9 119.55 117.06 119.55 115ZM156.437 121.51H148.097L146.717 125.5H142.307L149.837 104.53H154.727L162.257 125.5H157.817L156.437 121.51ZM155.297 118.15L152.267 109.39L149.237 118.15H155.297Z" fill="white"/>
<defs>
<linearGradient id="paint0_linear_750_233" x1="115" y1="32.8572" x2="115" y2="197.143" gradientUnits="userSpaceOnUse">
<stop stop-color="#FF9A3C"/>
<stop offset="0.5" stop-color="#FF6A00"/>
<stop offset="1" stop-color="#E64A00"/>
</linearGradient>
</defs>
</svg>
